<svg xmlns="http://www.w3.org/2000/svg" viewBox="0 0 38 44" id="admin" class="navPic navIcon">
  <path d="M17.9,30.18c.08.25.15.5.23.74.79,0,1.57-.05,2.36-.09,0-.23.05-.46.08-.69l-1.48,0Z" fill="none"/>
  <path d="M20.67,27.76c0,.48,0,1,0,1.53.06-.51.12-1,.17-1.53h-.16Z" fill="none"/>
  <path d="M26,11.56A5.41,5.41,0,0,0,27.3,9.69l-1.14,1.59A1.31,1.31,0,0,1,26,11.56Z" fill="none"/>
  <path d="M27.16,7.65c-1,0-1.91-.05-2.87,0l2.89.09Z" fill="none"/>
  <path d="M27.45,17.67l.31.53h0l0-.11L26.9,17c.19.24.35.48.52.72Z" fill="none"/>
  <path d="M18.18,36.5c-.15-.38-.45-1.17-.7-2,0,.12-.05.25-.07.39C17.66,35.4,17.92,36,18.18,36.5Z" fill="none"/>
  <path d="M20.37,31.18h0Z" fill="none"/>
  <path d="M0,0V44H38V0ZM10.56,7.51l3.55.17c-.18-1.74-.42-2.7.65-4.22l2.32,2.27,2-3.69c.63,1.14,1.25,2.29,1.86,3.43q1.74-.87,3.48-1.71c0,1.28-.06,2.57-.11,3.85,1,0,1.91,0,2.87,0l0,0,1.53,0L27.3,9.69A5.41,5.41,0,0,1,26,11.56l1.27.57h0l2.91,1.32-1.43.87v0l-.69.4-.69.43v0L26,15.92c.3.33.6.69.91,1.09h0l.91,1.08,0,.11,1,1.81-1.87-.26-2.6-.32-.06,4.31-3.27-2Q20,23.5,19,25.24c-.65-1.23-1.29-2.47-1.94-3.71-.78.8-1.56,1.59-2.35,2.37A6.74,6.74,0,0,1,14,19.72l-3.83-.63,2-3.25L9.08,14c.93-.94,1.85-1.88,2.79-2.81C11.41,10,11,8.76,10.56,7.51ZM20.71,30.14h-.14c0,.23-.06.46-.08.69-.79,0-1.57.07-2.36.09-.08-.24-.15-.49-.23-.74h-.7c0-.37,0-.74,0-1.12v-1.3h3.62c0,.51-.11,1-.17,1.53h0C20.67,29.59,20.69,29.87,20.71,30.14Zm-3.63,2.19c0-.25,0-.44,0-.44,0-.28,0-.58,0-.58s1.05-.06,2-.09l1.26,0h.25a11.69,11.69,0,0,1-.06,3.57.29.29,0,0,1,0,.09,10.46,10.46,0,0,1-.24,1.08,11.62,11.62,0,0,1-1.12,2.67c-.39-.75-.68-1.39-.89-1.87l-.09-.22c-.26-.55-.52-1.1-.77-1.65,0-.14.05-.27.07-.39A9.12,9.12,0,0,1,17.08,32.33Zm-5.29,9.22c-3.33-.46-7.67-.73-10.42-2.84A16,16,0,0,1,4.56,28.54c2.21-2.33,5.71-3.61,8.52-5.09a59.13,59.13,0,0,0,6,17.2,54.43,54.43,0,0,0,6.07-17.16c2.64,1.32,5.67,2.5,7.93,4.44,3.1,3,3.54,7.06,4,11.15C29.27,42.23,20,42.13,11.79,41.55Z" fill="none"/>
  <path d="M12.14,15.84l-2,3.25,3.83.63a6.74,6.74,0,0,0,.76,4.18c.79-.78,1.57-1.57,2.35-2.37.65,1.24,1.29,2.48,1.94,3.71Q20,23.5,21,21.76l3.27,2,.06-4.31,2.6.32-.87-.13,1.37-1.89c-.17-.24-.33-.48-.52-.72h0c-.31-.4-.61-.76-.91-1.09l1.34-.78-.1-3L26,11.56,24.29,7.61c.05-1.28.08-2.57.11-3.85q-1.74.84-3.48,1.71C20.31,4.33,19.69,3.18,19.06,2l-2,3.69L14.76,3.46c-1.07,1.52-.83,2.48-.65,4.22l-3.55-.17c.41,1.25.85,2.49,1.31,3.71-.94.93-1.86,1.87-2.79,2.81ZM17.1,9c2.76-1.69,5.87.62,6.44,3.46.69,3.28-1.68,6.92-5.32,6.19C13.87,17.37,13.34,11.32,17.1,9Z" fill="currentColor"/>
  <polygon points="27.76 18.2 27.76 18.2 27.76 18.2 27.76 18.2" fill="currentColor"/>
  <path d="M28.71,14.33v0l-.69.42Z" fill="currentColor"/>
  <path d="M18.22,18.62c3.64.73,6-2.91,5.32-6.19C23,9.59,19.86,7.28,17.1,9,13.34,11.32,13.87,17.37,18.22,18.62Z" fill="none"/>
  <path d="M25.15,23.49a54.43,54.43,0,0,1-6.07,17.16,59.13,59.13,0,0,1-6-17.2c-2.81,1.48-6.31,2.76-8.52,5.09A16,16,0,0,0,1.37,38.71c2.75,2.11,7.09,2.38,10.42,2.84,8.24.58,17.48.68,25.24-2.47-.41-4.09-.85-8.12-4-11.15C30.82,26,27.79,24.81,25.15,23.49Z" fill="currentColor"/>
  <path d="M20.67,27.76H17.21v1.3c0,.38,0,.75,0,1.12h1.89l1.48,0h.14c0-.27,0-.55-.05-.84h0C20.64,28.75,20.65,28.24,20.67,27.76Z" fill="currentColor"/>
  <path d="M18.27,36.72c.21.48.5,1.12.89,1.87a11.62,11.62,0,0,0,1.12-2.67,10.46,10.46,0,0,0,.24-1.08.29.29,0,0,0,0-.09,11.69,11.69,0,0,0,.06-3.57h-.25l-1.26,0c-.92,0-2,.09-2,.09s0,.3,0,.58c0,0,0,.19,0,.44a9.12,9.12,0,0,0,.4,2.13c.25.87.55,1.66.7,2Z" fill="currentColor"/>
  <path d="M26.16,11.28,27.3,9.69l1.41-1.94-1.53,0-2.89-.09,1.67,4A1.31,1.31,0,0,0,26.16,11.28Z" fill="currentColor"/>
  <polygon points="27.33 15.16 28.02 14.73 28.71 14.31 30.14 13.44 27.23 12.12 27.23 12.13 27.33 15.14 27.33 15.16" fill="currentColor"/>
  <polygon points="27.76 18.2 27.45 17.67 27.42 17.73 26.05 19.62 26.92 19.75 28.8 20.01 27.76 18.2 27.76 18.2 27.76 18.2" fill="currentColor"/>
  <polygon points="26.76 16.82 27.45 17.67 26.05 19.62 26.76 16.82" fill="currentColor"/>
  <path d="M17.41,31.5l3-.32Z" fill="currentColor"/>
  <line x1="19.16" y1="38.59" x2="17.41" y2="31.5" fill="currentColor"/>
  <path d="M22.06,28.84" fill="currentColor"/>
  <path d="M21.68,31.05" fill="currentColor"/>
</svg>
