<svg id="Layer_1" data-name="Layer 1" xmlns="http://www.w3.org/2000/svg" viewBox="0 0 509 533.03">
  <defs>
    <style>
      .cls-b3{fill:#9d6e3c;}.cls-b4{fill:#9b6b39;}.cls-b5{fill:#636363;isolation:isolate;}.cls-b21,.cls-b5{opacity:0.5;}.cls-b6{fill:#423857;}.cls-b7{fill:#413857;}.cls-b8{fill:#413757;}.cls-b9{fill:#413656;}.cls-b11{fill:#3e2d52;}.cls-b12{fill:#3d2c51;}.cls-b13{fill:#3d2c52;}.cls-b14{fill:#423958;}.cls-b15{fill:#e7e5e9;}.cls-b16{fill:#e2e0e5;}.cls-b17{fill:#42264f;}.cls-b19{opacity:0.65;}.cls-b20{fill:#6b6b6b;}.cls-b22{fill:#e8e7e6;}.cls-b23{opacity:0.35;}.cls-b24{opacity:0.4;}.cls-b25{fill:#412647;}.cls-b26{fill:#402547;}.cls-b27{fill:#3d2249;}
    </style>
  </defs>
  <rect id="right_bg" class="cls-b1 rbg" style="fill:#f0f0f0;" x="111.5" width="397.5" height="533"/>
  <path id="left_bg" class="cls-b2 lbg" style="fill:#c2aa8f;" d="M0,533V0H366.5c-16.8,31.5-39.4,74-66.1,124.4-62.8,118.9-67.8,123.7-78.1,152.4-21.7,60.1-34.8,89.3-42.6,108.5C136,493.4,138.4,470.1,134.5,487c-.7,3.3-7.9,36-27.3,44.6-2.2,1-9.6,1.1-24.2,1.3-17.1.3-28.5,0-28.5,0C42.5,532.7,24.5,532.5,0,533Z" transform="translate(0 0)"/>
  <g id="seperator">
    <path id="p983" class="cls-b3" d="M159.3,417.1c3.9-8.1,4.5-9.4,9.3-19.6,5.9-12.2,8.2-16.7,14.6-29.9,4.4-9,7.9-16.2,14.8-30.7,21.1-43.9,25.1-53.1,26.9-52.6,1.2.4,1.5,5.2-3.1,26.9C240,288,245.6,284,247.2,284.9c2.1,1.3-1.8,11.9-2.5,13.8a63.57,63.57,0,0,1-6.6,13.2c-2,3.1-.8,1.5-14.6,29.8-13.1,26.9-13.3,26.3-19,38.8-3.4,7.6-4.7,10.7-8.3,18-4.8,10-9.2,18-12.2,23.3,0,.3-.1.5-.1.8l-.7,1.2a23.94,23.94,0,0,0-1.3,2.8c-.3.6-.7,1.3-1,1.9-5,10-10.1,20-15,30-1,1.8-1.9,3.5-2.8,5.4-1.2,2.3-2.4,4.6-3.4,6.9-.3.6-.5,1.2-.8,1.8-1,2-2,4-3,6.1-2.6,5.3-8.4,17.1-8.9,18.1-3.6,7.7-7.4,15.3-11,23a9,9,0,0,0-1.7,3.2,58.93,58.93,0,0,0-4.5,9.9H102.7c3.6-8.3,8.6-16.2,11.7-24.7,16.8-35,26.4-54.2,32.1-65.3C148.3,439.3,153.1,430,159.3,417.1Z" transform="translate(0 0)"/>
    <path id="p72" class="cls-b4" d="M392.2,0C367,50.9,356.3,72.5,354.6,76.1c-.2.4-.8,1.5-1.5,3.1-1.3,2.9-2.9,5.7-4.3,8.6-.6,1.1-1.1,2.2-1.7,3.3-3.3,6.1-6.2,12.4-9.4,18.5-2,4.2-4.5,8.8-4.9,13.5-2.4-7-6.1-12.5-12.5-16.4-2.9-1.9-6.1-2.3-9.2-3.5,3.3-6.3,6.1-11.4,8-14.8,2.7-4.8,3.5-6.2,5.2-9.5,3.4-6.4,5.4-11.3,6.6-14,2.4-5.6,6.2-13.6,11.9-24.1,3.7-6.9,5.9-12,10.3-21.1,3.9-8.1,7.1-14.9,9.4-19.7h29.7Z" transform="translate(0 0)"/>
  </g>
  <ellipse id="shadow" class="cls-b5" cx="256.3" cy="403.8" rx="149.5" ry="21.9"/>
  <g id="main_body">
    <path id="p406" class="cls-b6" d="M321,162.3a131.34,131.34,0,0,1,5.2,13.6c2.4,7.2,2.8,14.5,4.2,21.9a93.78,93.78,0,0,1,.6,12.3,102.39,102.39,0,0,1-.9,13.1c-.1,1-.3,2-.4,3-.2,1.3-.3,2.6-.4,3.8-1.1,11.1-3.7,22-9.2,31.7a19.21,19.21,0,0,0-2.3,2,14.94,14.94,0,0,0-2.9,4.4,47,47,0,0,0-6.1,12.7,47.58,47.58,0,0,0-2.2,15.2,47.61,47.61,0,0,1-8.6,5.1,54.51,54.51,0,0,1-6.1,2.4,17.24,17.24,0,0,1-17.6-10.7,9,9,0,0,1-1-5.9c.5-2.8,2-16.7,2.4-19.1,1.1-5.6,8.6-7.2,16.7-12.5a63.89,63.89,0,0,0,15.4-15.2c8.1-11.4,9.4-23.6,9.8-28.7.8-9-1-18.2-4.7-36.5-.9-4.8-1.8-8.7-2.5-11.4a46.81,46.81,0,0,0,6.1-.5A30.29,30.29,0,0,0,321,162.3Z" transform="translate(0 0)"/>
    <path id="p262" class="cls-b7" d="M296.1,109.1a33.64,33.64,0,0,1,8.4-2.2c2.7-.3,4.7-.6,7.1,0a15.9,15.9,0,0,1,7.5,4.4c2.8,1.9,5.2,5.6,7.1,8.5a18.87,18.87,0,0,1-2.4,9.7,39.84,39.84,0,0,1-6,8.2c-4.6,4.9-12.4,11.8-17.1,12.7a10.63,10.63,0,0,0-3.8,1.5,8.25,8.25,0,0,0-2.1,2.1,117.12,117.12,0,0,0-6.3-12c-2.1-3.6-4.2-6.8-6.3-9.7-1.5-1.8-4.6-6.2-3.3-10.3.6-2.1,3.4-4,9-7.9A36.77,36.77,0,0,1,296.1,109.1Z" transform="translate(0 0)"/>
    <path id="p276" class="cls-b8" d="M150.9,110.8c3.5-1.7,7.4-3.7,11.1-2,3.9,1.9,4.9,6.7,5.1,7.7a11.41,11.41,0,0,1,1.6,2.3,10.69,10.69,0,0,1,1.2,3.2,55.33,55.33,0,0,0-7.9,6.7,53.2,53.2,0,0,0-9.8,14.1c-2.5-1.4-8.6-5.1-11.7-12.5a23.81,23.81,0,0,1-1.7-6.6c1.3-2,2.1-5.1,4.1-6.6A25.19,25.19,0,0,1,150.9,110.8Z" transform="translate(0 0)"/>
    <path id="p434" class="cls-b8" d="M447.1,174.6a14.62,14.62,0,0,1,6.7,8.2c.3,1,1.6,3.9.2,7a19.72,19.72,0,0,1-7.9,8.7,19.43,19.43,0,0,1-11,2.6c-1.6-2.4-3.3-5.1-4.9-7.9a96.15,96.15,0,0,1-5.3-10.7,32.72,32.72,0,0,1,9.4-5.5A34.31,34.31,0,0,1,447.1,174.6Z" transform="translate(0 0)"/>
    <path id="p494" class="cls-b7" d="M416.1,229.9a47.92,47.92,0,0,1,6.8-.3,29,29,0,0,1,4.3.3c.8.1,1.6.3,2.4.4a16,16,0,0,0,2.1.5l1.2.3,1.2.5a4.77,4.77,0,0,1,.8,1.6,8.27,8.27,0,0,1,.3,2.9,73.9,73.9,0,0,1-2.2,19.7,57.9,57.9,0,0,1-7.3,17.8c-1.5,2.3-14.3,22.3-30.9,22.3-4.2,0-7.9-1.3-13.7.6-3.4,1.2-5.6,2.8-9.2,5.7-10.4,8.3-11.4,13.5-17.8,14.6-2.7.5-4.8,0-8.6-1-4.4-1.1-8.9-2.2-12.1-6-3.7-4.5-3.4-10.1-3.2-12.1a99.67,99.67,0,0,1,7-22.2,48.24,48.24,0,0,1,7-10.9,22.82,22.82,0,0,1,3.6-3.5c1.8-1.3,3.3-1.8,3.2-2.4,0-.3-.6-.8-3-1.1,5.9-3.9,10.5-8.8,16.6-12.2a124.05,124.05,0,0,1,26.1-10.9A137.59,137.59,0,0,1,416.1,229.9Z" transform="translate(0 0)"/>
    <path id="p565" class="cls-b9" d="M200.8,274.9a149.52,149.52,0,0,1,17.1,6.1,160.75,160.75,0,0,1,16.6,8.2,17.37,17.37,0,0,1-4,2.5,16.4,16.4,0,0,1-3.9,1.3,24.21,24.21,0,0,1-9.4-.1C211.4,291.5,204.4,285,200.8,274.9Z" transform="translate(0 0)"/>
    <path id="p214" class="cls-b10 character" style="fill:#fefefe;" d="M206,97c9.1.7,15.5,1.5,29.1,5.9,5,1.6,12.4,3.8,21.7,6a85.87,85.87,0,0,1,10.1,4.1,89.42,89.42,0,0,1,11.3,6.3c-1.3,4.6-.7,6.9.1,8,.1.2.3.3.8,1,1.5,1.9,2.5,3.3,3,4,5,7.2,7.3,9.1,9.6,14.2,1.5,3.2,1,3.4,3,7.6a62.5,62.5,0,0,0,4.4,7.9l3,.6a11.07,11.07,0,0,1,4.3,2.8c3.5,3.6,3.3,8.4,3.9,15a107.94,107.94,0,0,0,2.6,16.1,42.6,42.6,0,0,1-2,24.3,43.85,43.85,0,0,1-20.1,22.1A100.3,100.3,0,0,1,267,254.8a119.62,119.62,0,0,1-18.7,4.5,127.91,127.91,0,0,1-25.9,2.7c-5.6,0-13.4-1.2-29-3.6a119.57,119.57,0,0,1-17.1-3.6,76,76,0,0,1-12.2-4.5,69.5,69.5,0,0,1-11.3-6.8,35.5,35.5,0,0,1-16-14.6,35,35,0,0,1-4.2-14.8c-.1-1.1-.1-2.3-.1-3.6s.1-2.4.2-3.4l.6-3c4.3,4.1,8.5,8.1,14.7,8.9a128.91,128.91,0,0,0,13.9-.1c6.4-1.6,11.6-5.3,16.7-9.2,7.3-7.2,12.2-16.8,10-27.2-2.1-9-12.4-14.2-20.6-16.4-6.5-2-12.3-.7-18.7.8l-.5-1.8c3.7-12.5,10.1-23.7,20.8-31.4,1.7-1.2,3.8-2.3,5.1-3.9.9-1.8-1-3.1-1.9-4.5-1.6-2.4-3.4-5.2-3.8-8.1.8-2.4,2.1-4.6,4.7-5.4a12.17,12.17,0,0,1,4-.8,12.41,12.41,0,0,1,4.5.7,59.84,59.84,0,0,1,13.1,3.9c1.2.8,2.6-1,3.4-1.8-.8-2.3-2.4-4.4-2.8-6.8C197.8,97.1,202.1,96.7,206,97Zm79.3,102.2a24.09,24.09,0,0,0,0-12.5c-1.3-5.9-4.3-11.4-9.3-14.8a46.64,46.64,0,0,0-18.2-7.7c-11.3-3.2-24.3,0-33.7,6.9-5.7,3.3-9.8,10.2-9.2,16.8-.7,7.9,4.1,16.1,9.3,21.8,6.7,6.7,15,10.3,23.9,13a92.36,92.36,0,0,0,12.9.2C273,220,282.8,211.6,285.3,199.2ZM189,207.4a3.46,3.46,0,0,0-2,2.5,3.53,3.53,0,0,0,1.9,3.2c1.4,1.3,4.5,1.6,4.1,3.8a39.54,39.54,0,0,0,1.4,10.8c.6,0,1.1-.1,1.7-.1.2-1.1.3-2.3.4-3.5.1-1.5.2-3,.2-4.4a5.29,5.29,0,0,1,.2-1.6,4.19,4.19,0,0,1,.8-2.1,3.09,3.09,0,0,1,1.5-.9c3.6-1.5,6.6-4.1,3.9-8.2-.7-.1-1.5-.3-2.3-.4a36.93,36.93,0,0,0-5.7-.1C194,206.3,191.3,205.9,189,207.4Z" transform="translate(0 0)"/>
    <path id="p399" class="cls-b10 character" style="fill:#fefefe;" d="M345,159.3c1-.1,2.5-.2,4.2-.3,2.7-.2,4.7-.3,5-.3a116.58,116.58,0,0,1,15.1.6,94.65,94.65,0,0,1,19.9,3.9c7.4,2.3,16.3,5.1,24.9,12.8a60.37,60.37,0,0,1,11.7,14.5,63,63,0,0,1,4.1,8.5c.9,2.3.8,2.6,1.9,5.7,1.8,5.1,2.5,5.6,3.5,8.9.6,1.9.7,2.7,1.9,9.3.4,2.5,1.1,6.2,1.9,10.9a34.93,34.93,0,0,0-6.9-2.9,37,37,0,0,0-4.9-1.1,100.05,100.05,0,0,0-12,.2,114.47,114.47,0,0,0-24.6,4.7,121,121,0,0,0-26.1,10.9c-6.1,3.4-10.8,8.3-16.6,12.2a24.72,24.72,0,0,0-4.3,3.3,31.54,31.54,0,0,0-9.3,17,62.58,62.58,0,0,1-10.9-1.9,64.28,64.28,0,0,1-8.8-3l5.4-11.4c5.6-9.7,8.1-20.6,9.2-31.7.1-1.2.2-2.5.4-3.8.1-1,.2-2,.4-3s.3-2.4.5-4c.1-1.2.3-3.8.4-6.9a112.24,112.24,0,0,0-.6-14.5c-.2-1.9-.6-3.8-1.2-7.7-1.3-7.4-1.9-11.2-3-14.2-.1-.3,0-.1-3.5-9.3-.2-.6-1.4-3.6-1.6-4.3,11-2,15.3-2.5,17-2.6,1.1-.1,2.2-.1,3.4-.2S343.8,159.4,345,159.3Z" transform="translate(0 0)"/>
    <path id="p289" class="cls-b11" d="M326.2,119.9a18,18,0,0,1,3.3,16.9,39.36,39.36,0,0,1-7.5,14.9c-2.9,3.7-8,10-16,10.9a18.91,18.91,0,0,1-5-.2,4.8,4.8,0,0,1-2-.4,3.4,3.4,0,0,1-1.6-2.6,37.72,37.72,0,0,1-2.3-3.8,21.16,21.16,0,0,1-1.1-2.9l1.8-.9,1.2-.6c2.9-1.3,4.3-1.9,5.1-2.2a44.65,44.65,0,0,0,14.6-11.4A46.85,46.85,0,0,0,326.2,119.9Z" transform="translate(0 0)"/>
    <path id="p301" class="cls-b12" d="M138.8,121.6c.6,2.3,1.2,4.6,1.7,6.8a28.64,28.64,0,0,0,3.5,7.1,26.1,26.1,0,0,0,6.8,6.7A28.83,28.83,0,0,1,149,148a27.36,27.36,0,0,1-4.3,7,24.22,24.22,0,0,1-3.5-3.2,28.73,28.73,0,0,1-2.5-3.3,25,25,0,0,1-3.9-11.2A27.41,27.41,0,0,1,138.8,121.6Z" transform="translate(0 0)"/>
    <path id="p447" class="cls-b12" d="M454,189.9a16.68,16.68,0,0,1,.9,7.1,16.36,16.36,0,0,1-4.8,9.7,20.94,20.94,0,0,1-6.7,4.9,22.45,22.45,0,0,1-5.6,1.5,46.47,46.47,0,0,1-1.9-7,32.73,32.73,0,0,1-.7-5.1A25.1,25.1,0,0,0,454,189.9Z" transform="translate(0 0)"/>
    <path id="p432" class="cls-b13" d="M315.1,176.9a78.58,78.58,0,0,1,4.6,33c-.5,6.6-1.5,19-9.6,31.2-3.3,5.1-8.4,9-13.9,15.1-5.7,6.3-12.3,6.1-16.6,12.4a25.92,25.92,0,0,0-4,10.7,18.39,18.39,0,0,0-.5,4.4,19.33,19.33,0,0,0,1,6.1c2.1,5.8,7.2,7.9,12.8,9.1A38,38,0,0,0,304,295a36.57,36.57,0,0,1,1.9,6.3,33,33,0,0,1,.7,7.8,23.86,23.86,0,0,1-3.9,14.2,23.08,23.08,0,0,1-9.6,8.1,16.77,16.77,0,0,1-10.5-.5c-1.8-.7-5-2.4-8.6-7.8-7.1-10.8-8.1-24.9-8.3-30.6-.2-6.6,0-12.4.2-17.1.7-11.9,1.4-6.3,2.9-16.2a5.78,5.78,0,0,1,1.5-3.2,6.08,6.08,0,0,1,3.2-1.5c2.2-.3,9.8-4,29.5-15.5a50.2,50.2,0,0,0,9.2-13.9c5.4-11.6,3.2-22,3.7-34.3C316.4,186.2,314.9,181.7,315.1,176.9Z" transform="translate(0 0)"/>
    <path id="p496" class="cls-b13" d="M434.1,231.6c.4.2,1,.4,1.5.6a8.22,8.22,0,0,0,3.3.4,102,102,0,0,1,.3,18c-.6,7.6-1.2,15.5-5,24.3-2,4.6-9.5,20-25.3,27.1-9.2,4.1-13.4,2-23,7.6a50,50,0,0,0-14.1,12.5c.1,15.6-6.9,27.5-15.7,29.5-4.8,1.1-9.5-1-10.7-1.6-8-3.6-11.2-11.6-13.6-17.7a52.58,52.58,0,0,1-3.4-17,60,60,0,0,1,1.6-17.5,25.53,25.53,0,0,0,8.5,11.5,18.7,18.7,0,0,0,10.1,4.2,15.69,15.69,0,0,0,6.6-1.2c7.5-2.9,11.5-12.4,18.7-16.3,2.1-1.1,4.5-2.7,7-2.9a86.6,86.6,0,0,0,16-2.1c10.3-2,20.4-8.2,25.7-17.4,6.3-9.9,7.6-23.3,9.2-34.7C432.6,236.6,433.4,234.1,434.1,231.6Z" transform="translate(0 0)"/>
    <path id="p563" class="cls-b13" d="M201.9,277a24.25,24.25,0,0,0,6,9,25.49,25.49,0,0,0,9.7,5.9,16.51,16.51,0,0,0,7.7.5,38.7,38.7,0,0,0,5-1.3c1.2-.4,2.3-.8,3-1.1a5.08,5.08,0,0,1,1.3.9,7.68,7.68,0,0,1,2.2,4,21.56,21.56,0,0,1-1.2,14.6c-4.5,9.4-14.4,11.5-15.5,11.7a33.3,33.3,0,0,1-15-10.1c-4.3-5.2-5.5-12.2-8.1-26.3-.8-4.3-1.3-8.2.4-9.2C198.5,274.9,200.5,276,201.9,277Z" transform="translate(0 0)"/>
    <path id="p622" class="cls-b12" d="M308.5,309.8c2.7.5,5.5,1,8.3,1.6,3,.6,5.9,1.2,8.8,1.8a64.49,64.49,0,0,0,1.8,10.2c.9,3,1.1,6.2,2.2,9.1.4,1,1,2.4.4,3.7-.2.5-.7,1.4-3.3,2.4a18.07,18.07,0,0,1-7.7,1.1,49.45,49.45,0,0,1-12-7.8c-1.6-1.4-3-2.8-3.3-4.9-.3-2.3.9-4,1.8-5.9A25.71,25.71,0,0,0,308.5,309.8Z" transform="translate(0 0)"/>
  </g>
  <g id="face">
    <path id="p397" class="cls-b14" d="M148.8,159l.5,1.8c6.4-1.5,12.2-2.9,18.7-.8,8.2,2.2,18.5,7.4,20.6,16.4,2.2,10.5-2.7,20-10,27.2-5.1,4-10.3,7.6-16.7,9.2a128.91,128.91,0,0,1-13.9.1c-6.2-.8-10.4-4.8-14.7-8.9.8-3.3,2-6.4,3.1-9.6,1.7-5.7,5.1-10.4,7.1-16C146.2,172.1,147.5,165.6,148.8,159Zm5.3,26.2c-.2,3,2.5,2.6,4.5,3.3a51.26,51.26,0,0,0,14.1.3l1.2-1.5C167.4,184.4,161,184.8,154.1,185.2Z" transform="translate(0 0)"/>
    <path id="p409" class="cls-b14" d="M257.9,164.2a48.86,48.86,0,0,1,18.2,7.7c5,3.5,8,8.9,9.3,14.8a22.75,22.75,0,0,1,.8,5.1,24.53,24.53,0,0,1-.8,7.3c-2.5,12.4-12.3,20.8-24.3,23.7a92.83,92.83,0,0,1-12.9-.2c-8.9-2.7-17.2-6.3-23.9-13-5.2-5.7-10-13.9-9.3-21.8-.6-6.7,3.5-13.5,9.2-16.8C233.5,164.2,246.5,161.1,257.9,164.2Zm-14.7,25.5c-3.6-.7-9.7-1.9-12.4,1.3,1.5,1.7,4,1.9,6.1,2.3a44.08,44.08,0,0,0,13.1.5C251,189.8,245.6,190.7,243.2,189.7Z" transform="translate(0 0)"/>
    <path id="p440" class="cls-b15" d="M154.1,185.2c6.9-.4,13.3-.8,19.8,2.1a15.76,15.76,0,0,1-1.2,1.5,51.26,51.26,0,0,1-14.1-.3C156.6,187.8,153.9,188.2,154.1,185.2Z" transform="translate(0 0)"/>
    <path id="p446" class="cls-b16" d="M243.2,189.7c2.4,1,7.9.2,6.7,4.1a44.34,44.34,0,0,1-13.1-.5c-2.1-.4-4.6-.6-6.1-2.3C233.5,187.8,239.6,189,243.2,189.7Z" transform="translate(0 0)"/>
    <path id="p465" class="cls-b17" d="M188.9,206.8a15.54,15.54,0,0,1,2.9-.5c1.1-.1,2.1-.1,4.1-.2,3.3,0,4.3.1,4.7.1,1,.1,1.8.3,2.4.4a4.72,4.72,0,0,1,1.1,3.9,4.47,4.47,0,0,1-1.1,2.1,9.64,9.64,0,0,1-3.8,2.5,3.59,3.59,0,0,0-1.5.9c-.4.5-.9,1.2-1,3.7a39.34,39.34,0,0,0,.2,4.8,23.29,23.29,0,0,1-.2,3.2,2.51,2.51,0,0,1-1,.2,4.89,4.89,0,0,1-1.3-.1,36.31,36.31,0,0,1-1.4-10.7c.3-2.3-2.7-2.6-4.1-3.8A3.68,3.68,0,0,1,188.9,206.8Z" transform="translate(0 0)"/>
  </g>
  <g id="bamboo">
    <path id="p599" class="cls-b18 item" style="fill:#82b030;" d="M424.6,297.4c4.7.3,9.4.7,14.1,1s9.6.7,14.3,1.1c1.1.1,2.8.2,4.8.3.6,0,1.2.1,1.7.1,1.1,0,2.1.1,2.7.1h.7c1,0,5.3.2,15.8.6-.1,1.3-.2,3.2-.3,5.6-.2,3.7-.4,6.4-.5,7.3-1.1,15.7-.5,19.1-3,20.6-1,.6-1.6.4-9.5-.6-4.2-.6-7.7-1-9.7-1.3-15.9-1.7-27.2-2.8-35.7-3.6-9.4-.9-14.7-1.3-21.3-2.5a69.73,69.73,0,0,0-10.5-1.7c-.6-.1-3.8-.3-7.9-1-4.6-.7-5.2-1.1-5.5-1.6-1.2-2.3,4.4-7.3,6.9-9.5a10.48,10.48,0,0,1,4.6-3c3.6-1.2,5.1.7,9.1-.2,2.6-.6,3.3-1.6,5.2-2.4a9.3,9.3,0,0,1,2.1-.6c2.5-.6,3.4-.3,5.1-.6s1.8-.8,5.3-2.6c1.8-.9,3.4-1.6,4.7-2.1C419.7,299.4,422.2,296.4,424.6,297.4Z" transform="translate(0 0)"/>
    <path id="p566" class="cls-b18 item" style="fill:#82b030;" d="M313.4,277.3c2.2-.7,5,.7,7.3,1.1,3.6,1.1,7.5,1.4,11,2.8a83.75,83.75,0,0,0-3.2,10.9,90.69,90.69,0,0,0-2.3,19.9,78.72,78.72,0,0,0-9.2-2.5c-3.5-.8-6.5-1.2-8.4-3.6a7.89,7.89,0,0,1-1-1.6c.4-3.6,1-7.4,1.7-11.3.4-2,.8-4,1.2-5.9.2-1,.5-2.1.8-3.1s.6-1.9.8-2.8A29.66,29.66,0,0,1,313.4,277.3Z" transform="translate(0 0)"/>
    <path id="p520" class="cls-b18 item" style="fill:#82b030;" d="M132.5,253.1c-11.2,14.1-22.6,21.4-30.1,25.2C89.9,284.7,77,287.4,60,290.8c-6.7,1.4-12.3,2.3-16.2,2.9a120.12,120.12,0,0,1,88.7-40.6Z" transform="translate(0 0)"/>
    <path id="p540" class="cls-b18 item" style="fill:#82b030;" d="M137.2,245.7c.6-5.4,2.3-7.2,3.7-7.8,4.8-2.1,10.8,7.6,23.9,13.7a53.85,53.85,0,0,0,16.6,4.6,123.54,123.54,0,0,0,25,6.9l2.3.3c1.4,0,2.8.1,4.2.2l4.2.3a77.22,77.22,0,0,0,13.6,0c1.4,0,2.8-.1,4.3-.2,0,0,2-.1,4.1-.3,3-.3,14.9-2.5,30.8-6.4a53,53,0,0,0-5,20.2c-.3,9.2,2,15.6-1.3,17.8-2.1,1.4-5.4.2-9.7-1.4-1.4-.5-7.4-2.9-7.1-5.4.1-.9,1-1.4.8-1.7s-1.7-.2-7.5,2.2c-3.6-1.6-9.2-4.1-16.2-6.8-6.2-2.4-10.7-4.1-11.7-4.4C204.7,274.5,185.4,266.6,137.2,245.7Z" transform="translate(0 0)"/>
    <path id="p548" class="cls-b18 item" style="fill:#82b030;" d="M129.9,267.4c.6-.9,5.9-9.1,8.4-8.1s1.3,9.2,1,11.4a48.48,48.48,0,0,1-4.1,14c-4.3,8.8-13.7,24.8-26.8,44.6.2-3.3.3-6.7.5-10A211.75,211.75,0,0,1,119.6,288,188,188,0,0,1,129.9,267.4Z" transform="translate(0 0)"/>
    <path id="p413" class="cls-b18 item" style="fill:#82b030;" d="M51.4,158.1c51.8,33.1,71.2,44.8,74.6,45.9a5.74,5.74,0,0,1,2.7,1.7c2,2.4,1.4,6.3.5,9.3.6,1.7,1.1,3.4,1.7,5.2,1.5,4.4,3.1,8.7,4.7,12.8-1,2.7-3.1,6.8-6.8,7.8-4.5,1.2-9-2.7-11-4.3-3.7-3.1-22.3-13.9-59.5-35.5-3.7-2.2-7.3-4.5-11.1-6.7-3.2-1.8-5.9-4.3-9.2-5.9-1.6-.8-3.7-1.7-4-3.3a4.32,4.32,0,0,1,1.3-3.2c3.7-4.4,6.2-9.6,9.7-14.1A77.28,77.28,0,0,0,51.4,158.1Z" transform="translate(0 0)"/>
    <path id="p211" class="cls-b18 item" style="fill:#82b030;" d="M125.8,84a150.39,150.39,0,0,1-2.6,25.8c-1.7,9.1-4.8,24.5-14.7,41.5a116.92,116.92,0,0,1-16.8,22.2c-.1-1.6-.3-4-.5-6.9-.4-4.9-.6-8.8-.6-9.6-.2-5,1.1-10.7,5.4-21.7,3.5-9,6.3-16.2,11.7-25.7A167.72,167.72,0,0,1,125.8,84Z" transform="translate(0 0)"/>
    <path id="p222" class="cls-b18 item" style="fill:#82b030;" d="M69,93.7c4.4,7.9,7.2,15.6,11.6,31.8,4.6,16.9,1.4,8,4.1,18.5a38.27,38.27,0,0,1,.9,9.9c-.1,2.2-.3,3.7-.5,5.5-.6,4.7-1,7-2.1,7.5-2.4,1.1-7.4-5.6-7.7-6a153.8,153.8,0,0,1-9-28.3,147.31,147.31,0,0,1-3-22.2c-.1-1.9-.1-4.8-.1-10.7,0-9.8.2-11.7,1-12C65.4,87.4,67.3,90.7,69,93.7Z" transform="translate(0 0)"/>
    <g class="cls-b19">
      <path id="p174" class="cls-b20" d="M125.8,84c-2.3,18.4-5.8,37.1-12.3,54.6-4.5,12-11.5,24.8-21.2,33.2-1.2-4.7-2-9.3-.7-14.1.2,2.1.4,4.1.6,6.2,12.8-13.1,18.7-32.5,22.7-50,.8-6,3.3-12.2,2.8-18.2C120.2,91.8,122.5,87.3,125.8,84Z" transform="translate(0 0)"/>
    </g>
    <g class="cls-b19">
      <path id="p190" class="cls-b20" d="M66.6,91.5c.7,1.6,1.7,4,3,6.9,2.9,6.8,4.9,11.7,7,17.8,1.1,3.1,2.3,6.5,3.5,11.1a139.49,139.49,0,0,1,3.3,16.5,47.64,47.64,0,0,1,.8,8.3,37.56,37.56,0,0,1-.8,8.1,30.4,30.4,0,0,1-1.6,5.7c-1.8-1.1-2.7-2.8-3.7-4.5a20.44,20.44,0,0,0,1.3-4.2c1.1-4.7,0-12.4,0-12.4-.4-2.5-.8-5-1.6-8.4-.3-1.4-1.6-7-3.1-12A159.49,159.49,0,0,0,64.2,99.6c-.1-2.1-.1-3.8-.1-5.1V92.2a24.37,24.37,0,0,0,.1-2.7c0-.1-.1-.3.1-.4s.4,0,.6.1a1.69,1.69,0,0,0,.5.2A5.14,5.14,0,0,1,66.6,91.5Z" transform="translate(0 0)"/>
    </g>
    <g class="cls-b19">
      <path id="p396" class="cls-b20" d="M52,159c3.1,1.3,5.7,3.8,8.3,5.9-2.8,4.6-5.9,9.1-8.6,13.8a9.41,9.41,0,0,0,3.7,11.9c21.3,12.3,42.8,24.5,63.9,37.1,4.4,2.4,9.1,2.5,12.9-.9.7,1.5,2.3,3.2,1.4,4.9a60.71,60.71,0,0,1-4.8,9.1c-5.8-2.2-10.9-6.3-16.5-9.1-25.1-14.8-50.6-29.5-75.8-44.2-.9-.7-3.2-1.6-2.2-3.1,3.1-6.9,8.7-12.8,12.7-19.3C48.4,163,49.7,160.1,52,159Z" transform="translate(0 0)"/>
    </g>
    <g class="cls-b19">
      <path id="p501" class="cls-b20" d="M141,237.8c4.3,3.9,8.4,7.7,13.7,10.5,15.4,8.7,32.2,12.2,49.5,14.3l-4.2.6c8,3.7,16.2,6.8,24.4,10.3,4.7,2.2,10.2,4.2,14.9.7,2.9-2.8,4.1-7.4,4.9-11.2.9-.2,1.9-.5,2.9-.7.1,2.5-.8,4.7-1.6,7-1.8,5-3.2,10.1-5.1,15-.6,1.2-1.2,3.2-3,2.3-32.3-13.5-64.3-27-96.7-40.2C135.7,244.6,139.1,240.5,141,237.8Z" transform="translate(0 0)"/>
    </g>
    <g class="cls-b19">
      <path id="p521" class="cls-b20" d="M123.1,254.1a67.67,67.67,0,0,1,7.8.1A77.11,77.11,0,0,1,104,275c-17.1,8.4-35.5,13-54.1,16.8a17,17,0,0,1-3.9.1c2.8-3.5,7.2-5.8,10.8-8.6,2.5.9,4.6-.1,7.1-.5,11.8-2.9,23.7-6.2,34.8-11.1C107.6,267.4,116.9,261.9,123.1,254.1Z" transform="translate(0 0)"/>
    </g>
    <g class="cls-b19">
      <path id="p531" class="cls-b20" d="M258.4,260.3a7.3,7.3,0,0,1,6.4,1c.2,4.1-1.2,8.6-1.6,12.7-.5,6.5.1,13.1-.3,19.6-3.6-.8-7.3-1.8-10.9-2.6a5.1,5.1,0,0,1-3.6-2.2c1.2-4.5,2.9-8.8,4.3-13.2C254.5,270.6,255.7,265,258.4,260.3Z" transform="translate(0 0)"/>
    </g>
    <g class="cls-b19">
      <path id="p537" class="cls-b20" d="M137.5,261.3c.2-.1.4-.2.5-.1.3.1.4.5.4,1.3a21.35,21.35,0,0,1,0,2.6,14.93,14.93,0,0,1-.1,1.9c-1.6,13.8-8.1,27.2-15.7,38.7A102.08,102.08,0,0,1,110,323c-.3-3.4.6-6.7,1.4-10l1.1.4c9.6-12.7,17.6-25.8,21.1-41.5a8.64,8.64,0,0,0-.8-6.3c.6-.7,1.2-1.4,1.9-2.1C135.9,262.7,136.7,261.9,137.5,261.3Z" transform="translate(0 0)"/>
    </g>
    <g class="cls-b19">
      <path id="p603" class="cls-b20" d="M309,299c5.6,1.4,11.3,3,17,4.2-.2,2,1,6.5-2,6.8a107.15,107.15,0,0,1-14.7-4.2A39.14,39.14,0,0,1,309,299Z" transform="translate(0 0)"/>
    </g>
    <g class="cls-b19">
      <path id="p611" class="cls-b20" d="M472.8,300.3c1.3.2,2.7.4,4,.7a17.14,17.14,0,0,1,.9,4.9,16.16,16.16,0,0,1-.7,5c-.2.9-.3,1.8-.5,2.6-.3,1.9-.5,3.9-.7,6-.2,2.3-.3,4.5-.4,6.6,0,2.5-.5,5.4-2.4,6.5a3.16,3.16,0,0,1-1.9.4c-30-3.8-61.8-7.8-91.7-11.4-1.1-.4-2.9-.5-3.4-1.6a31.79,31.79,0,0,1,6.9-6.8c.6,2.4,4.2,2.6,6.2,2.8,24.3,2.6,48.8,5.9,73,9.1,7.4-.4,10.3-7.2,10.3-13.8.1-2.1.2-4.2.2-6.3C472.6,303.4,472.7,301.8,472.8,300.3Z" transform="translate(0 0)"/>
    </g>
    <g class="cls-b21">
      <path id="p438" class="cls-b22" d="M80,184a49,49,0,0,1,7.1,3.9c6.3,3.5,12.5,6.8,18.8,10.2,2.8,1,3,5.1.9,6.6-2.7,1-4.7-1.4-7-2.4-6.9-3.3-13.2-7.5-20-11a17.18,17.18,0,0,1-3.5-2.5C76.8,186.9,77.9,184.8,80,184Z" transform="translate(0 0)"/>
    </g>
    <g class="cls-b21">
      <path id="p462" class="cls-b22" d="M116.9,204c3.8,1.8,7.2,4.3,11.1,6v5.1c-1.1.3-2.5,1.1-3.6.5a75.73,75.73,0,0,1-12.1-6.9C111.8,206.6,114.2,203,116.9,204Z" transform="translate(0 0)"/>
    </g>
    <g class="cls-b21">
      <path id="p571" class="cls-b22" d="M312.1,281a77,77,0,0,1,10.6,2.3c.3,2,1.1,6.3-1.8,6.7-3.5-.2-7.1-1.8-10.4-3C311,284.9,311.5,283,312.1,281Z" transform="translate(0 0)"/>
    </g>
    <g class="cls-b21">
      <path id="p609" class="cls-b22" d="M417.9,300.8c6.4,1.5,13.4.5,19.4,2.9,1.8,3.1.1,7.4-4.1,6.2-1.9-.3-3.9-.6-5.9-.9s-3.7-.5-5.6-.7c-4.3-.9-8.8-1-13.1-2.1C412,304.5,415.2,303.2,417.9,300.8Z" transform="translate(0 0)"/>
    </g>
    <g class="cls-b21">
      <path id="p613" class="cls-b22" d="M450,304.2c1.2.1,2.4.2,3.6.2s2.3.2,3.4.2c1.5.4,3.9.2,4.8,1.6.4,1.6.5,3.4-1.1,4.5a89.75,89.75,0,0,1-12.7.2c-2.6.1-5.1-2.8-3.4-5.3C445.1,303.1,448.2,304.4,450,304.2Z" transform="translate(0 0)"/>
    </g>
  </g>
  <g id="lights">
    <g class="cls-b21">
      <path id="p249" class="cls-b22" d="M300.8,107.7a12.71,12.71,0,0,1,4.9-.7,22.23,22.23,0,0,1,3.6.6c3.6.5,6.6,2.2,9.9,3.8-2.1.6-3.8-.2-5.9-.7a15.41,15.41,0,0,0-9.5-.1c-4,1.1-7.8,2.3-11.1,5-5.6,4-8.6,10.2-10.6,16.6-1-1.3-2-2.7-3-4,1.5-1.4,1.8-3,2.4-4.9C284.4,114.8,292.3,109.7,300.8,107.7Z" transform="translate(0 0)"/>
    </g>
    <g class="cls-b21">
      <path id="p260" class="cls-b22" d="M154,110.6a11.52,11.52,0,0,1,7.7-1,8.73,8.73,0,0,1,2.9,1.2,9.56,9.56,0,0,1,1,2.4,7.78,7.78,0,0,1,.1,3,32.82,32.82,0,0,0-13.6-1c-3,.5-6.4,2.9-9.4,2.1a24.11,24.11,0,0,1,5.2-3.9A28.29,28.29,0,0,1,154,110.6Z" transform="translate(0 0)"/>
    </g>
    <g class="cls-b21">
      <path id="p430" class="cls-b22" d="M450.4,179.1a43,43,0,0,0-12.3,2.5,40.61,40.61,0,0,0-10.6,5.7,4.13,4.13,0,0,1-2.7-3.9,4.35,4.35,0,0,1,4.6-3.9c5-4.7,11.5-6.4,16.4-4.2A13.63,13.63,0,0,1,450.4,179.1Z" transform="translate(0 0)"/>
    </g>
    <g class="cls-b23">
      <path id="p558" class="cls-b22" d="M292,277.1c.9,4.7-2.1,5-5.6,6.3-3.7,1.5-6.9-.7-10.5-1.6a18.34,18.34,0,0,1-1.8-3c-.3-1.9,1.8-3.6,2.9-4.9C282.6,272.6,287.9,272.4,292,277.1Z" transform="translate(0 0)"/>
    </g>
    <g class="cls-b23">
      <path id="p586" class="cls-b22" d="M339.3,289.3c4.8-1,12.5-.6,14.7,4.8,1,4.6-4.8,5.1-8,5-4.2.4-8.1-1.3-10-5.2C335.5,291,337,290.3,339.3,289.3Z" transform="translate(0 0)"/>
    </g>
  </g>
  <g id="shadows">
    <g class="cls-b24">
      <path id="p451" class="cls-b20" d="M426,192.9c7,11.4,9.5,26.7,11.1,39.9-1-.4-2-.8-3.1-1.2l-1.2-.5c-1.5-.3-3.4-.7-3.3-.9s1.3.2,2.2-.5,1.2-2.1.7-7c-.2-1.6-.4-3.8-.8-6.4-.4-1.8-.7-3.5-1.1-5.3a72,72,0,0,0-1.5-8.2A68.64,68.64,0,0,0,426,192.9Z" transform="translate(0 0)"/>
    </g>
    <g class="cls-b24">
      <path id="p414" class="cls-b20" d="M300.1,165c2.2.6,4.4.9,6.5,1.4,2.7,6.6,3.5,14.4,4.6,21.4.2,3.6.4,7.4.4,11.4q0,6.3-.3,12c-1.8,9.7-5.2,18.7-12.6,25.5-12.1,10.6-27.1,16.1-42.6,19.5-6.6,1.4-13.3,1.7-19.9,3-3.7.2-7.6.3-11.6.3s-8.1-.1-11.9-.3c-14.7-1.8-29-3.8-42.9-9.2-6.1-2.4-12.1-4.5-17.1-8.9,7.8,1.7,15.4,4.2,23.4,5.5,9.2,1.5,18.4,2.8,27.6,3.6,3.5.2,7.2.3,11,.3,4,0,7.8-.1,11.5-.2,9.5-1.1,18.5-2,27.8-4.3,12.5-3.2,25.3-7.1,34.3-16.7,8.9-7.8,12.4-20.8,14.1-32.1.1-3.4.2-7,.1-10.6,0-3.4-.1-6.6-.2-9.8A59.83,59.83,0,0,0,300.1,165Z" transform="translate(0 0)"/>
    </g>
    <g class="cls-b24">
      <path id="p543" class="cls-b20" d="M321.4,263c6.2.5,12.5,2.1,18.7,2.3-2.5,3.3-4,7.2-6.4,10.6-5.7.8-11.8-2.3-17.5-3.1C315.2,269.2,320.2,266.1,321.4,263Z" transform="translate(0 0)"/>
    </g>
    <g class="cls-b24">
      <path id="p261" class="cls-b20" d="M257,111c6.8,1.5,13.5,5.2,19.7,8.4.6,1.7.2,4,.2,5.8C270.6,119.9,263.4,116,257,111Z" transform="translate(0 0)"/>
    </g>
  </g>
  <g id="outline">
    <path id="p149" class="cls-b25" d="M128.1,75.1c2.6-.3,1.6,1.1,2.1,2.9-.9,6.3-1.5,12.7-2.6,18.9-2.4,13.6-4.8,27-9.6,40-4.1,11-8.8,21.5-16.6,30.5a30.46,30.46,0,0,1-11.2,9.9,36.48,36.48,0,0,1-2.2-8.2,36,36,0,0,1-.2-7.9,44.54,44.54,0,0,1,.5-5c.1-1,.3-2,.4-2.9a124.33,124.33,0,0,1,11.6-34c2.1-3.6,3.9-7.4,5.8-11.2,5.4-9.2,11.1-18.4,17.3-27C124.7,79.3,126,75.8,128.1,75.1ZM117.7,95.7a178.38,178.38,0,0,0-13.1,22.9,108.79,108.79,0,0,0-13,39.1c-1.4,4.8-.5,9.4.7,14.1,9.8-8.4,16.7-21.3,21.2-33.2,6.5-17.5,10-36.2,12.3-54.6C122.5,87.3,120.2,91.8,117.7,95.7Z" transform="translate(0 0)"/>
    <path id="p164" class="cls-b26" d="M66,83a263,263,0,0,1,16.9,41.1c.6,1.9,1.1,3.9,1.6,5.8.8,4.7,1.8,9.3,2.8,13.9a47,47,0,0,1,.5,7.9,49.93,49.93,0,0,1-.8,8.4c-1,3.3-1.2,7.2-2.8,10.2-2.2,2-4-.5-5.5-2C68.2,155.7,64.4,137.9,62.4,122c-.4-2.6-.5-5.2-.7-7.8l-.3-4.5c-.1-2-.2-4-.2-5.9-.2-2.2-.3-4.5-.4-6.8.1-.5.1-7.9.3-10.2.2-2.1.4-4.1.7-5.9C63.2,78.5,65.2,81.7,66,83Zm-1.3,24.2C65.9,125,68.2,146,78,161.4c1,1.8,1.9,3.4,3.7,4.5a26.68,26.68,0,0,0,1.6-5.7,43.08,43.08,0,0,0,0-16.4C81.2,125,73.3,107,65.6,89.9c-.1-.5-.6-.8-1.4-.8-.2,2.9-.2,6.1-.1,9.5C64.2,101.7,64.4,104.6,64.7,107.2Z" transform="translate(0 0)"/>
    <path id="p515" class="cls-b25" d="M119.8,250.7c1.8-.1,3.7-.1,5.7-.1,2.3,0,4.5.2,6.5.3,1.8.3,3.3,0,4,2.1-2.6,4.9-7.3,8.7-11.2,12.8a100,100,0,0,1-26.9,15.9c-6.3,2.8-12.8,4.7-19.3,7.1a55.35,55.35,0,0,0-7.8,1.9l-.8.2c-7.4,1.7-14.7,3.6-22.1,4.8-4.1.6-7.6,1.8-11.8,1.1a4.23,4.23,0,0,1,.2-2.5c6.4-5.4,13.3-10.2,20.1-15.2l2.4-1.8C77.8,265,96.8,253.7,119.8,250.7Zm-63,32.6c-3.6,2.7-7.9,5.1-10.8,8.6a17,17,0,0,0,3.9-.1c18.6-3.8,37-8.3,54.1-16.8a77.11,77.11,0,0,0,26.9-20.8,67.67,67.67,0,0,0-7.8-.1C98.5,256,76.5,269.4,56.8,283.3Z" transform="translate(0 0)"/>
    <path id="p525" class="cls-b25" d="M140.8,256.1c.4,8.8,1,17.3-2.1,25.8-5.7,15.4-14.4,28.6-24.2,41.7-2.6,3-4.7,6.7-7.9,9.1-2,1.3-1.6-1.8-2-2.9a245,245,0,0,1,9.7-38.6c5.2-12.3,11.9-26.8,23.4-34.4A3.74,3.74,0,0,1,140.8,256.1Zm-3.7,5.5a42.91,42.91,0,0,0-4,4c-11.5,12.7-17.3,31.2-21.5,47.4-.8,3.3-1.8,6.6-1.4,10a125.33,125.33,0,0,0,12.6-17.3c7.6-11.5,14.1-24.9,15.7-38.7a44.87,44.87,0,0,0,0-5.2.71.71,0,0,0-.3-.6C137.7,261,137.3,261.4,137.1,261.6Z" transform="translate(0 0)"/>
    <path id="p201" class="cls-b27" d="M198.8,92.7a36.94,36.94,0,0,1,5.4-.6,33.67,33.67,0,0,1,6,.5c1.2.2,2.4.5,3.7.7l9.9,1.8c11.1,3.1,22.1,5.8,32.8,10.2,8.2,2.6,15.6,6.9,23.4,10.6,5.1-6.9,11.8-10.6,19.9-13.1a22,22,0,0,1,5-.6,18.36,18.36,0,0,1,5.3.7l.8.3c3.2,1.2,6.4,1.6,9.2,3.5,6.4,3.9,10.1,9.4,12.5,16.4.2,2.7.3,5.4.4,8.2v.9c.3,5.6-2.8,11.3-5.4,16-.9,1.2-1.8,2.5-2.7,3.8-.7.9-1.4,1.9-2.2,2.8l-1.8,2.1a21.31,21.31,0,0,0,7.1-.5c1.5-.3,3.1-.5,4.6-.7s3.8-.5,6.3-.7c2.3-.2,5.4-.5,9.1-.7,3-.2,7-.3,11.6-.2.5,0,.9.1,1.4.1,1.3,0,2.7.1,4.1.2,0,0,1.5.1,3.8.3a139.23,139.23,0,0,1,15.2,2.7c2,.5,4.1,1,6.2,1.6,1.8.4,3.5.9,5.2,1.3,1.6.7,3.3,1.4,4.9,2.1,1.2.6,2.5,1.2,3.7,1.8a67.56,67.56,0,0,1,13.5,9,12,12,0,0,1,1.7,1.6,7.17,7.17,0,0,1,1.1,1.5c.7.9,1.3,1.9,2.1,2.8a110.38,110.38,0,0,1,13.2-6.9c4.3-1.2,7.6-1.5,11.9-.2a17.93,17.93,0,0,1,6.2,5.1,18.8,18.8,0,0,1,3.7,8.4c.1,1.6.2,3.4.2,5.2a64,64,0,0,1-.3,6.4A26.45,26.45,0,0,1,446.3,213c-.6.3-1.2.7-1.8,1-1.7,1.5-6.8,2.2-5.1,5.1a11.75,11.75,0,0,0,.8,4.9,61.49,61.49,0,0,1,1.5,14.8v1c-.1,2.1-.1,4.2-.1,6.3,0,1,0,2.1.1,3.1a37.76,37.76,0,0,1-.6,4.7,29.21,29.21,0,0,0-.6,7.2l-.2.8a37.58,37.58,0,0,0-1.7,7.2c-.7,2.3-1.6,4.5-2.4,6.7-.3.6-.6,1.3-.9,1.9a34.18,34.18,0,0,0-2.1,4.3c-.3.6-.5,1.2-.8,1.8-1.8,2.9-3.9,5.5-5.9,8.2,1.9,2.2,7.1,1.9,9.8,2.2a31.09,31.09,0,0,0,4.7.7c1.1.1,2.2.2,3.1.2l5.1.6a24.62,24.62,0,0,0,2.6.2c1.8.2,3.5.3,5.2.4.7,0,1.4.1,2.2.1,1.7.1,3.4.3,5.1.4,1.2,0,2.4,0,3.6.1l4.8.3a6.75,6.75,0,0,1,3.6.6,8.47,8.47,0,0,1,2.9,2.2c.1.6.3,1.2.4,1.7a74.71,74.71,0,0,1-.3,8.1c0,.4-.2,1.6-.3,3.2-.1,1.8-.2,3.2-.2,3.8-.1,1.7-.2,4.2-.5,7.8,0,1.3-.1,2.7-.2,4.1s-.2,2.9-.4,4.2a31.08,31.08,0,0,1-3.1,4.3,24.34,24.34,0,0,1-6,.5c-20.1-3.7-40.7-5.4-60.9-8.4a27.25,27.25,0,0,0-6.4-.6c-4.6-1-9.2-.9-13.9-1.8-4.8-.5-8.8-1.9-13.7-.9a49.4,49.4,0,0,0-1.8,7.6c-.5,2-1,4.1-1.5,6.1-.4.9-.9,1.9-1.3,2.8-1.3,2-2.6,4-3.8,6.1-2.8,2.1-5.7,4.8-9,5.9-3.4.2-7.4.7-10.6-.8a11.78,11.78,0,0,0-1.9-1.1c-1.1-.7-2.3-1.4-3.4-2.1-4.5-2.7-5.9-7.1-9.2-10.7-1.3.5-2.5,1.1-3.7,1.7-.7.4-1.4.7-2.2,1.1-4.8.2-8.5,0-12.9-2.1-1.7-1.3-3.5-2.6-5.3-3.8-2.7-1.9-4.3-5-6.8-7.1-2.4,1.4-4.8,2.9-7.3,4.2h-1a35.29,35.29,0,0,0-4.6,0,23.34,23.34,0,0,1-9.3-2.1c-1.5-1.5-3.1-2.8-4.8-4.2l-1-.9c-1.2-2.8-2.8-5.4-4.2-8.1-.5-1-1.1-2-1.6-3-1-4.1-2.5-7.7-3.1-11.9-.3-2-.2-3.8-1.5-5.5-5.1-1.8-10.6-2.3-15.6-4.3a12,12,0,0,1-3.4-5.7c-1.4,1.3-3.8,2.5-3.6,4.6a134.56,134.56,0,0,0,.2,14.2l-.1,1q-1.05,2.1-2.4,4.5a48.53,48.53,0,0,1-2.8,4.1,32.12,32.12,0,0,1-5.1,3.7,29.65,29.65,0,0,1-5.7,2.8,10.8,10.8,0,0,1-9.3.1c-2.7-1-5.2-2.9-7.7-4.4-8.2-9.1-11.2-20.1-13.2-31.9-1.3-4.6-.6-9.1-1.1-13.8-4.8-2.7-10.4-4.7-15.6-6.7-11.3-5.2-22.9-9.6-34.4-14.3-4-2.1-8-2.6-9.5-7.3-1-1.7-5.8,1.2-7.7-.4-25.5-14.7-50.8-29.9-76.5-44.4-5.8-3.6-11.7-6.9-17.5-10.6-1.2-1.8-3.4-4.8-1.8-6.9,3.8-6.1,8-12,11.9-18.1,2.8-4,4.5-8,8.7-10.8,1.3.2,2.9.2,3.9,1,5.8,3.5,10.7,8,16.4,11.6,6,3.9,11.8,8.2,18.1,11.6,11.4,7.6,23.8,14.1,35.9,20.3,1.6.7,3.2,2,4.9,1.4a90.73,90.73,0,0,1,7.1-18.1c3.2-6.1,5-12.6,6.8-19.3a6.27,6.27,0,0,0-.3-4.6c-.6-1.1-1.3-1.4-2.7-2.8a19.36,19.36,0,0,1-3.3-3.8,40,40,0,0,1-3.4-6,31.6,31.6,0,0,1-2-5.9,12.51,12.51,0,0,1-.8-4.5,14.79,14.79,0,0,1,.8-5,36.21,36.21,0,0,1,4.5-11.4,55.09,55.09,0,0,1,7.1-7.4,45.69,45.69,0,0,1,11.9-4.8c3.5-.5,7.2.1,10.7-.4a16.78,16.78,0,0,1,5.3-3.8,17.25,17.25,0,0,1,8.2-1.2c2.6.4,5.2.8,7.9,1.3,1.4.2,2.8.4,4.2.7.3-1.8.5-3.7.9-5.5A20.13,20.13,0,0,1,198.8,92.7Zm-16.6,13c-2.7-.8-5.8-1.2-8.5.1-2.6.8-3.9,2.9-4.7,5.4.4,2.8,2.3,5.7,3.8,8.1.8,1.4,2.8,2.7,1.9,4.5-1.3,1.6-3.4,2.7-5.1,3.9-10.7,7.7-17.1,18.9-20.8,31.4-1.3,6.6-2.6,13.1-5.3,19.4-2,5.6-5.4,10.3-7.1,16-1,3.2-2.3,6.4-3.1,9.6l-.6,3c-.1,1.1-.2,2.2-.2,3.4s0,2.5.1,3.6a41,41,0,0,0,20.1,27.2c5,4.5,11,6.5,17.1,8.9,13.9,5.4,28.2,7.4,42.9,9.2,4.5.2,8.3.2,11.1.3a113.88,113.88,0,0,0,12.4-.2c1.9-.2,2.3-.6,9.6-1.5,3.4-.4,6.9-.9,10.3-1.6,15.5-3.4,30.5-8.9,42.6-19.5a40.48,40.48,0,0,0,9.8-14.8,47.43,47.43,0,0,0,2.8-10.8c.6-4.1.5-7.7.3-14.6-.2-4.4-.4-8.1-.6-10.8s-.8-5.7-1.4-8.9a78.68,78.68,0,0,0-2.9-10.5c-2.2-.5-4.4-.8-6.5-1.4l-1.1-1.2c0-1.3.1-2.5.2-3.8,3.4-.3,5.8,1.9,8.8-.1,9.5-5.3,17-13.5,19.8-24.2.4-5.1.7-11.3-1.6-16-1.9-2.9-4.3-6.6-7.1-8.5-3.2-1.5-6.3-3.2-9.9-3.8a13.72,13.72,0,0,0-8.5,0c-8.5,2-16.4,7.1-19.3,15.7-.6,1.9-.9,3.5-2.4,4.9a35.53,35.53,0,0,1-2.3-3.1c0-1.8.5-4-.2-5.8-6.2-3.2-12.9-6.9-19.7-8.4-6.7-3.7-14.6-5.5-21.8-8.1A180.85,180.85,0,0,0,206,96.8c-3.9-.3-8.2.1-10,4.1.4,2.4,2,4.5,2.8,6.8-.8.7-2.1,2.6-3.4,1.8A58.89,58.89,0,0,0,182.2,105.7Zm-26.4,5c-5,1-9,3.5-13,6.6-2,1.4-2.8,4.5-4.1,6.6a23.15,23.15,0,0,0,1.2,23.3,58.81,58.81,0,0,0,5.2,6c2.8-3.2,3-7.7,5.9-11,3.4-4.6,5.9-10.4,10.4-13.9a92,92,0,0,0,7.7-6.3c-.9-2-2.2-3.8-3.2-5.8-.6-1.6-.5-4.1-1.6-5.3C162,109.2,158.1,110,155.8,110.7Zm194.8,48.2c-.9.1-1.5.1-2.9.2-1.1.1-2.1.1-2.7.2-1.2.1-2.4.1-3.6.2s-2.2.1-3.4.2c-5.7.7-11.4,1.4-17,2.6a64.51,64.51,0,0,0-8.7,2c-.8,4,1.7,8.7,2.8,12.6-.2,4.8,1.4,9.3,1,14.1-.5,12.3,1.8,22.7-3.7,34.3a47.39,47.39,0,0,1-9.2,13.9,84.83,84.83,0,0,1-29.8,17.2c-2.2.6-2.6,1.6-3.2,3.7-.9,5.5-2.4,11.3-2.2,16.9.2,5.4-2,9.9-.5,15.4.9,11.2,3.4,26,12.2,33.9,4.4,3.9,9.3,4.4,14.6,2,7.6-2.5,11.4-12,9.8-19.3a128.91,128.91,0,0,1-.1-13.9c1.8-9.5,3.5-18.3,7.9-27.1,2-2.5,4-7.6,8-6.3l1.3,1.2c-1.1,3.1-6.2,6.2-5.2,9.7,5.7.9,11.8,4,17.5,3.1,2.4-3.4,3.9-7.3,6.4-10.6,2.3-3,4.4-5.7,7.8-7.5,3.4.1,4,1.5,1.8,4-11,10.2-15.6,23.6-18.1,38a54.51,54.51,0,0,0,.7,28.9c2.9,8.6,7.7,18,16.8,21.2,4.7,2.1,10.3-.8,13.3-4.5,5.7-6.6,5.7-16.2,7.8-24.3,3.4-9,11.8-14.3,21-15.9,6.3-1.5,12.3-1.7,18.2-4.8,12.6-6.5,20.8-19,24.9-32.2,3-11.6,4.7-23.4,2.9-35.4-1.7-13.2-4.1-28.4-11.1-39.9-2.9-6.1-6.9-12.4-12-16.9-14-12.7-34.8-15.6-52.8-17.2-3-.1-5.4-.1-7,0C352.2,158.8,350.6,158.9,350.6,158.9ZM132.3,226.8a67.21,67.21,0,0,1-4.3-11.6v-5.1c-.3-2.5.9-4.9-2-6A463.69,463.69,0,0,1,60.2,165c-2.6-2.1-5.2-4.6-8.3-5.9-2.2,1.1-3.6,4.1-5,6-3.9,6.6-9.5,12.4-12.7,19.3-1,1.5,1.4,2.4,2.2,3.1,25.2,14.7,50.7,29.4,75.8,44.2,5.6,2.8,10.7,6.9,16.5,9.1a60.71,60.71,0,0,0,4.8-9.1C134.6,230,132.9,228.2,132.3,226.8Zm294.9-41.7a85,85,0,0,1,7.9,16c1.1,3.5,2.2,7.1,3.2,10.6,4.2-1.7,8.6-4.4,11.3-8.1a26.68,26.68,0,0,0,3.3-6.6,21,21,0,0,0,1.1-7.2c0-2.5,0-7.5-3.6-10.8-6.4-5.8-13-2.4-19.7.5C428.6,181.2,424.2,182.1,427.2,185.1ZM244.1,263c-1.6,0-3.3.1-4.9.2l-4.1.3c-1.5.1-2.9.2-4.3.2a77.22,77.22,0,0,1-13.6,0l-4.2-.3c-1.4-.1-2.9-.1-4.2-.2-1.5-.2-3.1-.5-4.6-.7-17.3-2.1-34.1-5.6-49.5-14.3-5.3-2.8-9.4-6.5-13.7-10.5-1.9,2.7-5.3,6.8-.3,8.5,32.4,13.3,64.4,26.7,96.7,40.2,1.8.9,2.3-1.1,3-2.3,1.9-4.9,3.3-10,5.1-15,.8-2.3,1.7-4.5,1.6-7A20.09,20.09,0,0,1,244.1,263Zm19.1,11c.4-4.1,1.8-8.6,1.6-12.7a7.3,7.3,0,0,0-6.4-1c-2.7,4.7-3.9,10.3-5.7,15.3-1.4,4.4-3.1,8.7-4.3,13.2A5.53,5.53,0,0,0,252,291c3.6.9,7.3,1.8,10.9,2.6C263.3,287.1,262.7,280.5,263.2,274Zm-30,16.1c-10.2-4.7-20.7-9.1-31.3-13.1-1.7-.7-4.4-2.3-3.8,1,1.1,9.2,1.8,17.8,5.5,26.4,2.6,7.1,8.3,14.5,16.5,14.6,5.4-1,11.5-4,13.7-9.3,2-4.5,1.2-8.8,1.4-13.7C234.7,293.7,235.9,291.1,233.2,290.1Zm78.9-9.1c-.6,2-1.2,4-1.6,6a37.68,37.68,0,0,0-1.5,12,51.5,51.5,0,0,0,.2,6.8,107.15,107.15,0,0,0,14.7,4.2c3-.3,1.8-4.8,2-6.8a201,201,0,0,1,5.7-21.9c-3.5-1.4-7.4-1.6-11-2.8-2.2-.4-5-1.8-7.3-1.1Q312.7,279.05,312.1,281Zm105.8,19.8c-2.8,2.5-6,3.8-9.2,5.4-8.8,2.6-17.6,2.8-26,7a31.79,31.79,0,0,0-6.9,6.8c.6,1.1,2.4,1.2,3.4,1.6,29.9,3.6,61.7,7.7,91.7,11.4a2.58,2.58,0,0,0,1.9-.4c1.4-1.1,1.3-3.4,1.4-6.4a58.58,58.58,0,0,1,.7-8.1c.1-2,.2-4,.3-5.9.1-2.1.2-4.3.3-6.4.1-1.5.1-2.9.2-4.4l-.8-.2c-.6,0-1.1-.1-1.7-.1-2.9,0-5.9,0-9-.1q-5.85-.15-11.4-.6c-9.5-1-18.8-1.6-28.2-2.9C422.2,296.4,419.7,299.4,417.9,300.8ZM307.6,321.6c-.8,2.5-3.6,3.8-1.6,6.4,3.1,4.3,7.8,8.7,13.1,9.9,3.3.4,6.5.6,9.1-1.6,1.3-1,.4-2.4.1-3.6-1.8-5.6-2.5-11.6-3.8-17.3-4.5-1.7-9.7-2.6-14.4-3.9C309.1,314.8,309,318.4,307.6,321.6Z" transform="translate(0 0)"/>
  </g>
</svg>
