<svg id="Layer_1" data-name="Layer 1" xmlns="http://www.w3.org/2000/svg" viewBox="0 0 509 533">
  <defs>
    <style>
      .cls-3{fill:#9d6e3c;}.cls-4{fill:#9d6d3b;}.cls-5{fill:#636363;isolation:isolate;}.cls-34,.cls-5{opacity:0.5;}.cls-6{fill:#f1d8c2;}.cls-7{fill:#efd6c0;}.cls-8{fill:#7d2032;}.cls-9{fill:#ea3933;}.cls-10{fill:#fefbfb;}.cls-11{fill:#e23637;}.cls-12{fill:#6b1e3c;}.cls-13{fill:#9b2535;}.cls-14{fill:#ac2934;}.cls-15{fill:#f6fcfe;}.cls-17{fill:#352450;}.cls-18{opacity:0.6;}.cls-19{fill:#6b6b6b;}.cls-20{opacity:0.4;}.cls-21{opacity:0.44;}.cls-23{fill:#cebbaa;}.cls-24{fill:#cebaa9;}.cls-25{fill:#cdbaa9;}.cls-26{fill:#3f224a;}.cls-27{fill:#442448;}.cls-28{fill:#eeecef;}.cls-29{fill:#f3f1f3;}.cls-30{fill:#e73f7a;}.cls-31{fill:#eae7ec;}.cls-32{fill:#f1ad75;}.cls-33{fill:#eeac74;}.cls-35{fill:#e8e7e6;}.cls-36{fill:#3b1e47;}
    </style>
  </defs>
  <rect id="right_bg" class="cls-1 rbg" style="fill:#ededed;" x="111.5" width="397.5" height="533"/>
  <path id="left_bg" class="cls-2 lbg" style="fill:#c2aa8f;" d="M0,533V0H366.5c-26,54-49.6,96.3-66.1,124.4-45.5,77.9-121.2,193.3-135,284.3-.1.6-.2,1.1-.3,1.8,0,0-.1.7-.2,1.3-16.2,102.4-57.7,119.9-57.7,119.9-3.1,1.3-19.7,1.3-52.7,1.3Z"/>
  <g id="seperator">
    <path id="p1125" class="cls-3" d="M133.6,470c4.8-8.9,5.4-12.6,7.4-12.8,1.4-.1,21.4.1,24.3,1.9.4.2-4.2,8-9.4,19.8-.6,1.4-1.1,2.6-1.4,3.3-.6,1-4.1,8.1-4.3,8.7-.4.9-.8,1.7-1.2,2.6a19.54,19.54,0,0,0-1.9,3.5c-3.7,7.6-7.2,15.3-11.1,22.8-2.2,4.4-4.6,8.6-6.1,13.2H102.8c3.7-8.3,8.7-16.2,11.7-24.9,2.6-4.6,4.9-9.4,7.1-14.1,3.8-7.3,7.4-14.6,11-22A6.19,6.19,0,0,1,133.6,470Z"/>
    <path id="p5" class="cls-4" d="M362.5,0h29.7c-3.8,6.8-11.2,22.2-11.4,22.9-.8,1.4-1.6,2.8-2.4,4.3a39.87,39.87,0,0,1-3.5,7.7C372,39.3,363.2,59,361.7,62c-2.7,4.5-4.9,9.3-7.2,14.1-.5,1-1,2.1-1.5,3.1-1.1,2.3-2.2,4.5-3.2,6.8a68.62,68.62,0,0,0-18.9-21.9c3.5-6,6.3-12.6,9.4-18.9C342.2,41.8,358.2,11.2,362.5,0Z"/>
  </g>
  <ellipse id="shadow" class="cls-5" cx="254.9" cy="456" rx="176.8" ry="20.1"/>
  <path id="p494" class="cls-6" d="M260.1,200.4c-1,1.9-2.4,3.6-3.5,5.5-23.9,4.4-46.6,13.7-65.3,29.4a98.7,98.7,0,0,1-13.4,11.6c-1.4.9-2.5,1.8-4.2,1.3C196.3,222.9,225.9,204.5,260.1,200.4Z"/>
  <path id="p498" class="cls-7" d="M288.2,201.1a67.62,67.62,0,0,1,20.1,6.5c4.7,2.2,10,4.5,13.7,8.2-3.3.6-5-.4-7.6-2a38,38,0,0,0-7.7-3.5c-5.5-1.7-10.6-3.9-16.3-4.4C289.6,204.3,288.9,202.8,288.2,201.1Z"/>
  <g id="notif">
    <path id="p570" class="cls-8" d="M293.7,232.8c.5,13.1.3,26.3.1,39.3-1.1-1.6-.8-3.3-.9-5.1.1-9.3.1-18.7,0-28C293,236.8,292.8,234.8,293.7,232.8Z"/>
    <path id="p530" class="cls-9" d="M358.2,223c-.3,13-.2,26,0,39-.8,2.5-1.5,4.8-4.1,6-5.3,2.6-12,2.3-17.7,3.3-2.8,2.1-4.1,6.4-5.4,9.6-1.5,3.2-2.2,7-5.9,8.2-2.2-2.5-3.2-6.1-5.1-8.9-1.5-2.1-2.2-5.2-5-5.6-5.9.2-11.8,2.5-17.5,1.1-1.8-.6-2.6-1.9-3.5-3.5.2-13.1.4-26.3-.1-39.3,1.2-4.5,4.8-7,9.3-7.7,14.4-1.7,28.7-3.9,43-5.9C350.6,218.5,356.5,216.9,358.2,223Zm-30.3,14.9c-3-.3-6.2-2.2-9-1.2a9.86,9.86,0,0,0-6.8,14.2c3.1,5.3,9.2,9.2,15,11,3.6.2,7.1-4.9,9.7-7.1,4.7-4.4,8.6-9.7,6.9-16.5-1.2-4-5.8-5.1-9.3-3.9C332,235.3,330.1,236.8,327.9,237.9Z"/>
    <path id="p571" class="cls-10" d="M334.3,234.4c3.6-1.2,8.2-.1,9.3,3.9,1.7,6.8-2.2,12.1-6.9,16.5-2.6,2.2-6.1,7.3-9.7,7.1-5.8-1.8-11.9-5.7-15-11a9.86,9.86,0,0,1,6.8-14.2c2.9-1,6,.9,9,1.2C330.1,236.8,332,235.3,334.3,234.4Z"/>
  </g>
  <g id="collar">
    <path id="p760" class="cls-11" d="M227,311.9a64.65,64.65,0,0,0,25,7.3c.2,0,1.8.1,3.7.2,3.1.2,5.3.3,5.7.3,3.3.2,5,.3,5.6.3.9,0,3.8,0,7.6-.3a62,62,0,0,0,8.2-1.3l1.8.7a10.31,10.31,0,0,1,.2,2c.1,1.6.1,2.8.1,3.7,0,2.1-.1,4.1-.1,6.1-.8,0-2,0-3.5.1-2.4.1-4.3.3-7,.5s-2.9.3-4.5.4c-1.8.1-2.6-.1-4.8,0-1.5.1-2,.1-3.1.2a39.9,39.9,0,0,1-6.9-.1c-1.3-.1-4.3-.3-8.3-.9-1.1-.2-5.5-.8-10.6-2.1a106.4,106.4,0,0,1-20.8-7.9,35.53,35.53,0,0,1-5-3.3,24.09,24.09,0,0,1-4.4-4c6.3-1.2,10.4,2,16.1,3.7,3.6,1.2,7.2,2.1,10.8,3.4,3.9,1.3,7.9,2.2,11.8,3.1a14.85,14.85,0,0,0,6.3.4c-1.2-.4-3.1-.9-5.4-1.5-2.7-.7-4.4-1.2-5.2-1.4a131.31,131.31,0,0,1-12.5-4.3c-3.4-1.4-7.2-3.1-11.2-5.2a7.85,7.85,0,0,1,3.4-2C222.9,309.6,225.2,311,227,311.9Z"/>
    <path id="p785" class="cls-12" d="M235.3,320c3.7,1,7.1,2.4,10.8,3.1l-1.4,1.2a113.44,113.44,0,0,1-11.8-3.1A13.44,13.44,0,0,0,235.3,320Z"/>
    <path id="p779" class="cls-13" d="M285.8,318.1a67.35,67.35,0,0,1,0,12.7l-.8.1c0-3.8.4-7.8-.3-11.5l-1.8-.8A9.82,9.82,0,0,1,285.8,318.1Z"/>
    <path id="p795" class="cls-14" d="M246.1,323.1a15.37,15.37,0,0,1,5,1.6,13.41,13.41,0,0,1-6.3-.4Z"/>
  </g>
  <g id="phone">
    <path id="p840" class="cls-15" d="M323.3,349.3c2.8-.7,5.7-.8,7.4,2,.8,2.7.3,6.6-2,8.4-2.8,1.8-7.5,2.4-9.4-1C318.3,355,319.2,350.5,323.3,349.3Z"/>
    <path id="p763" class="cls-16 item" style="fill:#42aef0;" d="M328.4,306.4a4.21,4.21,0,0,1-.7,1.3c-1.6,2.1-4.6,2.3-5.7,2.4-3.1.3-7.7,1.3-14.9,3.6a10.39,10.39,0,0,0-6,1.4,10.19,10.19,0,0,0-4.4,5.7c-.2,2-.3,4-.4,6.1-.1,1.8-.1,3.5-.1,5.2-.2,1.3-3.1-.4-3.9-.4a45,45,0,0,1-.8-8.8c.1-3.7.1-5.8,1.5-7.7,1.1-1.5,2.5-2.3,6.8-3.6,8.3-2.5,14.6-2.9,20.7-4,.5-.1,2.5-.5,5.2-.9C326.8,306.6,327.8,306.5,328.4,306.4Z"/>
    <path id="p764" class="cls-16 item" style="fill:#42aef0;" d="M336.1,312.2a8.51,8.51,0,0,1,3.9-.3,8.86,8.86,0,0,1,3.7,1.8c.1,11.2.3,22.6.7,34.3.5,14.2,1.2,28,2.1,41.3-3.7,1.4-8.6,3.3-14.6,5.4-19.5,7-22.8,7.3-25.8,5.6-4.6-2.6-5.8-8.5-7.3-15.4-.9-4.1-1.8-8.7.8-12.7a12.51,12.51,0,0,1,4.6-4,55.65,55.65,0,0,0,4.8-10.8,61.27,61.27,0,0,0,2.1-8.8,20.86,20.86,0,0,0-2.9-6.9,24.88,24.88,0,0,0-6.2-6.8c0-1.9-.1-3.8-.1-5.7,0-2.1,0-4.3-.1-6.4a5.11,5.11,0,0,1,1.6-2c1.7-1.5,3.9-1.6,4.5-1.8C317.5,316.9,326.8,314.5,336.1,312.2Zm-.8,8c-1.8,1-1.8,4.5,0,5.5,2.4,1.3,6.4-3,4-5C338.5,319.7,336.4,319.9,335.3,320.2Zm-12,29.1c-4.1,1.2-5,5.7-4,9.4,1.9,3.3,6.6,2.8,9.4,1,2.4-1.8,2.8-5.7,2-8.4C329,348.5,326.1,348.6,323.3,349.3Z"/>
    <path id="p787" class="cls-17" d="M335.3,320.2c1.1-.3,3.2-.5,4,.5,2.4,2.1-1.5,6.4-4,5C333.5,324.8,333.5,321.2,335.3,320.2Z"/>
    <path id="p906" class="cls-16 item" style="fill:#42aef0;" d="M296.4,377.6a56.29,56.29,0,0,1,.2,9.4,48.39,48.39,0,0,1-1.1,7.4,19.47,19.47,0,0,1-2.2-3,10.91,10.91,0,0,0-.6-1.1,7.31,7.31,0,0,1-1.4-2.8,9.83,9.83,0,0,1,.4-6.1,5.09,5.09,0,0,1,2.2-3.1A3.73,3.73,0,0,1,296.4,377.6Z"/>
    <g class="cls-18">
      <path id="p753" class="cls-19" d="M327.6,307.2c.6,1.4-1.6,1.7-2.5,1.7-.7-.5-1.4-.9-2.1-1.4C324.3,307,326.3,306.3,327.6,307.2Z"/>
    </g>
    <g class="cls-20">
      <path id="p755" class="cls-19" d="M323,307.6c.7.5,1.4.9,2.1,1.4-5.7.8-11.2,2.9-16.9,3.8-1.1-.4-2.2-.8-3.3-1.1C310.9,310.3,317,309.1,323,307.6Z"/>
    </g>
    <g class="cls-20">
      <path id="p839" class="cls-19" d="M311.2,348.8a19.1,19.1,0,0,0,.7,7.5,18.37,18.37,0,0,0,1.4,3.4,46.33,46.33,0,0,0,13.5,15.9,35.48,35.48,0,0,0,16.2,7.3c.5.1.9.1,1.4.2a9.72,9.72,0,0,1,.1,1.8,9.43,9.43,0,0,1-.3,2c-.7,3.5-3.7,3.6-6.5,4.6-9.9,2.4-19.8,5-29.7,7.3a4.35,4.35,0,0,1-2,0,6.82,6.82,0,0,1-4.2-3.3c.2-3.9.3-8.2.2-12.7-.1-3.9-.3-7.7-.7-11.1a25,25,0,0,0,5.4-5.7,25.72,25.72,0,0,0,2.4-4.6,31.15,31.15,0,0,0,1.9-7.1A26.4,26.4,0,0,0,311.2,348.8Z"/>
    </g>
    <g class="cls-18">
      <path id="p901" class="cls-19" d="M296,378a40.65,40.65,0,0,1,.6,7.5,46.05,46.05,0,0,1-1,8.4c-.4-.5-.9-1-1.3-1.5,1.3-3.6,1.4-10.2-.1-13.8A2.16,2.16,0,0,1,296,378Z"/>
    </g>
    <g class="cls-18">
      <path id="p909" class="cls-19" d="M292.9,379.9a72.21,72.21,0,0,1-.1,10.4C291.7,387.7,291.3,382.1,292.9,379.9Z"/>
    </g>
    <g class="cls-21">
      <path id="p901-2" data-name="p901" class="cls-19" d="M294.1,378.6a17.63,17.63,0,0,1,.7,2.7,22.72,22.72,0,0,1-.7,11.1c-.5-.7-.9-1.5-1.4-2.2.1-1.5.2-3.1.2-4.8,0-2,0-3.8-.1-5.6a4.43,4.43,0,0,1,.7-.9A3.33,3.33,0,0,0,294.1,378.6Z"/>
    </g>
  </g>
  <g id="main_body">
    <path id="p715" class="cls-22 character" style="fill:#cebba9;" d="M337.8,291.3a8.06,8.06,0,0,1,2.2-3.8,9.07,9.07,0,0,1,6.3-2.7,47.34,47.34,0,0,1,18.6,6c6.4,3.7,9.9,7.9,16.1,15.3,6.4,7.7,11.1,13.2,13.7,21.3.4,1.1,1.4,4.9,3.4,12.4,1.9,7.1,2,7.5,2.1,8,.9,9-6.3,17.2-7.6,18.6a40.43,40.43,0,0,1-20.2-.8c-3.4-1.1-11.4-3.6-17.1-11.5a31.76,31.76,0,0,1-5.8-18.1c0-2.7.3-2.3.6-8.6,0,0,.1-3.2.2-13.7a8.33,8.33,0,0,0-1.8-3.7c-3.2-4-8.6-3.8-9.3-3.8a16.24,16.24,0,0,1-7.4-2.5,17.23,17.23,0,0,1-4.1-3.8Z"/>
    <path id="p161" class="cls-22 character" style="fill:#cebba9;" d="M140.9,66.2c6.2-3.1,9.7-3.7,12-4a31.18,31.18,0,0,1,7,.1,45.6,45.6,0,0,1,7,1.6,53.49,53.49,0,0,1,6.6,2.6,42.88,42.88,0,0,1,5.1,8.5,28,28,0,0,1,1.8,4.6,80.67,80.67,0,0,1,2.9,16.3c2.3.4,2.9-2.3,3.7-4,1.5-3.6,1.1-7,1.1-10.7-1.8-1.5-4-3.7-3.6-5.9.8-4.7,12.2-6.5,23.5-8.2a189.3,189.3,0,0,1,27.3-2.2A60,60,0,0,1,252,66a60.84,60.84,0,0,1,12,3.8c3.4,1.2,8.4,2.9,14.7,5,13.5,4.3,16.9,4.9,21.9,7.6a46.34,46.34,0,0,1,16,14.2,74.68,74.68,0,0,1,21.3,24.2,70.84,70.84,0,0,1,4.5,10c.7,2,1.3,4.1,2,6.1,4.1,12.7,4.1,26.7,8.3,39.5,5.4,12.5,15.1,23.5,19.6,36.5,2.5,4.5,7.4,14.5,5.9,27.2-1.7,15.1-11.7,28.5-14.6,27.5-.9-.3-1.6-2.1-.8-8.7,1.2-14.3,1.6-24.9,1.5-28.3s-.2-8-.2-8a16.18,16.18,0,0,0-.1-1.8c-.8-4.7-8.9-9.1-13.1-8.6-6.1.8-12.5,2.1-18.7,2.4a124.78,124.78,0,0,1-12.2-8.3c.5-.7,5.5-8.1,6.3-14.8a32.32,32.32,0,0,0,.1-5.3,30,30,0,0,0-.8-5c-.9-3.9-1.7-7-4-9.5-3.1-3.4-7.5-4.1-9.6-4.3-7.3,2.8-9.9,9.7-11.5,16.7a17.11,17.11,0,0,0,.2,10.5c.1,1.2.1,2.3.1,3.4-6.6-1.5-13-3.4-19.7-4a46.29,46.29,0,0,0-17.4,0,143.35,143.35,0,0,0-40.2,9.8c-1.2.7-1.7.3-1.4-1.3a17.11,17.11,0,0,0,.1-10.5c-1.1-4.1-1.9-8.1-4.4-11.6-1.9-3.7-6.6-6.6-10.8-6.1-6.8,2.6-8.8,8.1-10.4,14.7a13,13,0,0,0,0,8.5c1.2,6.5,3.1,10.8,7.4,15.8-5.5,4.3-11.6,7.4-16.3,12.7-7.2,6.2-13.7,13.6-17.8,22.3-.6,1.4-.8,1.9-.2,3.3-.5.7-1,1.5-1.5,2.3a42.34,42.34,0,0,0-5.6,20.1c-.2,1.6-.4,3.9-.8,6.6-.8,6.4-1.2,7-1.7,7.3-1.7,1.2-5.5-.5-13.2-6.7-9.5-7.7-14.4-11.7-19.1-18.8-1.6-2.5-5.5-8.7-9.9-29.3-4.1-19-6.9-32.1-5.2-49.9a123.92,123.92,0,0,1,6.8-30.1,28,28,0,0,1,2.7-6.5c3.9.4,7.7,2.6,11.7,2.7a20.49,20.49,0,0,0,13.2-5.8c10.1-8.8,15.4-24.2,20.8-36.1a18.78,18.78,0,0,0,.3-10.6,14.18,14.18,0,0,0-1.6-3.7,203.25,203.25,0,0,0-7.9,18.8c-5.3,14.8-5.4,20.6-11.4,25.5-.7.6-8.8,7.1-18.1,4.5-6.2-1.7-9.7-7.2-11.7-10.1a34,34,0,0,1-4.3-9.5,17,17,0,0,1-2.1-6.6,18.58,18.58,0,0,1,0-4.1,54.34,54.34,0,0,1,4.6-20.2,45.71,45.71,0,0,1,9.9-15C130.9,71.2,135.6,68.8,140.9,66.2ZM257,175.9a50.11,50.11,0,0,0-18.4,5.8c-2.4,1.4-5.1,2.8-6.6,5.2,8.2-2.3,16.1-5.2,24.7-6.2,2.8-.3,6-.5,9.4-.6a77.3,77.3,0,0,1,10.1.6c3.3.3,6.5,1.2,9.8,1.2a3.76,3.76,0,0,0-1.4-1.4,46.07,46.07,0,0,0-16.7-4.5,42.86,42.86,0,0,0-5.5-.4A30.28,30.28,0,0,0,257,175.9Z"/>
    <path id="p168" class="cls-23" d="M336.3,74.6c2.2,2.3,3.7,4.6,6.7,9.2a104.1,104.1,0,0,1,8,14.5c.7,1.9,1.3,3.8,2,5.7.5,1.3,1.2,3,1.8,5.1a36.71,36.71,0,0,1,1.2,5.7,20.34,20.34,0,0,1-.2,7.3,16.68,16.68,0,0,1-4.9,8.4c-10.3-12.5-17.4-21.7-22.6-29a60.57,60.57,0,0,0-13.2-14.2c-2.8-2.1-5.5-3.7-8.1-5.3a123.9,123.9,0,0,0-15.6-7.8c1.8-2,8.8-9.5,19.8-10.4C325,62.7,334.5,72.7,336.3,74.6Z"/>
    <path id="p717" class="cls-22 character" style="fill:#cebba9;" d="M131.1,272.8A66.45,66.45,0,0,0,146,284c7.6,4.2,12.5,4.9,19.6,10.1a54.53,54.53,0,0,1,9,8.4c2.8,1.7,5.7,3.6,8.7,5.6s5.7,4,8.3,6a47.08,47.08,0,0,0,4.5,2.2,65,65,0,0,0,8.4,2.9,119.48,119.48,0,0,0,15.3,8.4,117.9,117.9,0,0,0,30.5,9.1c2.7.1,5.7.1,8.8,0q5.25-.3,9.6-.9l2.5.5a65,65,0,0,1,6.6-.4,52.88,52.88,0,0,1,6.6.4,25,25,0,0,1,11.7,2.2,25.27,25.27,0,0,1,7.7,5.8c-2.7,1.2-5.4,2.4-8.2,3.5-1.1.5-2.2.9-3.3,1.4-.7.9,2.1,1.3,2.7,1.6,3.4.5,6.4-.1,9.7-.6.1.5.1,1.1.2,1.6a77.17,77.17,0,0,1,.3,9.5,55.22,55.22,0,0,1-17.1,16.6c-8.7,5.3-16.4,6.3-31.7,8.4-10.2,1.4-21.9,2.9-37.3,1.1-7-.8-13.1-2.4-25.3-5.6-18.9-5-25.6-8.4-31.1-12.9-3-2.4-8-4.2-9.3-3.6-1.1.5-3.6-.1-2.9,1.5-4.8,3.7-9.2,7.2-11.5,13.1,6.4-2.8,12.1-6.8,19.1-8.5,5.4,2.4,10.5,6.2,16.1,8.3,10.4,5.1,21.2,7.9,32.4,10.6a30.78,30.78,0,0,1,6.4,11.6,36.72,36.72,0,0,0-4.8,6.9,32.47,32.47,0,0,0-2.9,8.7A33.31,33.31,0,0,1,218.9,404a27.57,27.57,0,0,1,17-3.5,26.24,26.24,0,0,1,9.4,3.2c9.8,6,13.1,18.9,12.5,28.3-.2,3-.8,14.8-9.4,21.8-9.5,7.8-21.3,2.1-49,1.5-16-.4-29-.5-37.3-.7-6,.7-21.7,1.5-32.7-8.6-10.4-9.6-10.8-23.7-11.4-40.3a121.39,121.39,0,0,1,4.6-37c1.9-16.7,4.2-30.1,6.1-39.6,2.7-13.4,5.2-22.8,4.8-36.8A102.69,102.69,0,0,0,131.1,272.8Z"/>
    <path id="p963" class="cls-24" d="M344.9,396.1a54.69,54.69,0,0,1-6,22,51.36,51.36,0,0,1-9.6,13c-1.9,1.8-4.1,3.2-6.1,5a78.67,78.67,0,0,1-47.1,17.7c-18.5,2.8-23.5,1.7-24.2-.2-.8-2.4,5.9-4.8,9.2-12.6,3.2-7.4,1.2-14.9.1-18.7-.6-2.1-5.4-19-19.1-23.7-12.3-4.3-24,4.1-28.2-1.2-1.8-2.3-1.2-5.6-.6-7.7a137.52,137.52,0,0,0,45.1,1.2,134,134,0,0,0,27.3-6.8c12.2,17.8,21.4,20.5,27.1,20.2,2.4-.1,3.8-.8,15.5-3.9C335.3,398.5,341,397.1,344.9,396.1Z"/>
    <path id="p975" class="cls-22 character" style="fill:#cebba9;" d="M389.4,404.9a54.62,54.62,0,0,1,2.9,15l1.5-.2a30.51,30.51,0,0,0,1.5-4.3,29.32,29.32,0,0,0,.8-9.3A12.29,12.29,0,0,1,404,414c.7,1.6,1.5,3.4,2.2,5.5a45.24,45.24,0,0,1,1.6,6c-.2,1.9-.4,4-.8,6.1a88,88,0,0,1-2.4,10.6,20.85,20.85,0,0,1-6.9,9.9c-5.5,4.2-11.8,4.2-17.5,4.1-20.1-.3-30.2-.5-31.9-.7a273,273,0,0,0-43.5-1.4,191.89,191.89,0,0,0,17.1-11.7c7.6-5.8,11.4-8.7,15.1-13.4,3.1-3.9,7.7-11.3,9.6-23,.7-11.4,2.4-19.4,5.8-20.1,2.3-.4,4.9,2.5,6.2,5,3,5.8-.2,12-1.9,18.4-1.6,6.1-2.5,15.1,1.1,27.4.2-2.7.3-5.4.5-8.1.3-4.5.5-9,.8-13.5l3.3-6a14.07,14.07,0,0,1,4.9-5.5,13.4,13.4,0,0,1,6.3-2.2,71.54,71.54,0,0,0,1.3,12.2,43.79,43.79,0,0,0,1.5,6,15.05,15.05,0,0,0,1-1.7,16.18,16.18,0,0,0,1-3,23.54,23.54,0,0,0,.9-5.9,14.4,14.4,0,0,0-2-7,6.37,6.37,0,0,1,7-4.2A7.09,7.09,0,0,1,389.4,404.9Z"/>
    <path id="p948" class="cls-25" d="M359.8,396.8c.8,1.6,2,3.3,2.2,5.1a44.28,44.28,0,0,1-4.3,5.4C357,403.9,358.9,400,359.8,396.8Z"/>
    <path id="p952" class="cls-22 character" style="fill:#cebba9;" d="M91.4,397.9c.8-5.3,5.4-8,8.2-7.1,2.3.7,4.1,4,3.6,7.9,1.7,3,3.2,6.2,4.9,9.3,1.6-1.3,3.7-1.2,4.6-.2,1.1,1.2.9,3.8-1.3,5.3,9,22.4,8.9,28.8,6.7,30.2-3.1,2-12.4-5-17.4-12.8a33.57,33.57,0,0,1-5-13.3,16.28,16.28,0,0,1-1-2.9,15.94,15.94,0,0,1-.6-3,28.57,28.57,0,0,1-2.4-7.9A27.11,27.11,0,0,1,91.4,397.9Z"/>
  </g>
  <g id="face">
    <path id="p436" class="cls-26" d="M257,175.9a57.2,57.2,0,0,1,6.2-.3,33.78,33.78,0,0,1,4.7.3,48.16,48.16,0,0,1,16.7,4.5,4.67,4.67,0,0,1,1.4,1.4c-3.3,0-6.5-.9-9.8-1.2-2.5-.3-5.6-.5-9.1-.6,0,0-5,0-10.3.6-10.7,1.2-21.1,4.9-24.7,6.2,1.5-2.4,4.2-3.8,6.6-5.2A51.39,51.39,0,0,1,257,175.9Z"/>
    <path id="p695" class="cls-27" d="M291,285.1a19.66,19.66,0,0,1-3.9,3.2c-6,3.7-12.3,2.8-16.5,2.1a12,12,0,0,1-4.8-1.7,17.54,17.54,0,0,1-1.8-1.5c1.4-.2,2.9-.4,4.5-.5a50.65,50.65,0,0,1,6.7-.1c3.4-.2,6.8-.5,10.3-.9Z"/>
    <path id="p461" class="cls-28" d="M308.4,186.3c1.9-.7,4-.5,4.6,1.8,2.1,3.9.8,10.4-3.8,11.7C304.8,195.9,305.2,190.9,308.4,186.3Z"/>
    <path id="p478" class="cls-29" d="M211.3,193.2c1.7-.4,3.4-.6,4.1,1.4,1.8,3,3,9.1-.7,11.1-1.7.8-2.9-.2-3.9-1.4C209.1,200.7,208.4,196.4,211.3,193.2Z"/>
    <path id="p585" class="cls-30" d="M269,241c8.3,1.7,15.5,6.8,18.4,15,.2.6,2,4.8.2,6.5a2.19,2.19,0,0,1-.5.3c-6.3,3.6-15.3,2.6-21.8-.2-.8-3,1-6.4.8-9.6.3-3.2-.6-5.8-1.6-8.8C265.7,242.4,266.2,240.4,269,241Z"/>
    <path id="p599" class="cls-31" d="M258.3,249.4a5.24,5.24,0,0,1,2.5-.3c.5,3.4-.4,6.4-1.1,9.8A21.33,21.33,0,0,1,254,253C253.6,250.8,256.9,250.1,258.3,249.4Z"/>
    <path id="p507" class="cls-32" d="M256.6,205.9c.8,1.6,1.2,3.8,3.1,4.5,3.2,1.7,6.9-.2,10.1-1,.2,1.1.5,2.3.7,3.5a12.53,12.53,0,0,1,2.1,3.3,13.17,13.17,0,0,1,.7,8.5,9.37,9.37,0,0,1-.6,3.4c-1.7,4-6.1,5.2-6.7,5.4a50.61,50.61,0,0,1-10.3,11.4,50,50,0,0,1-9.1,5.8,20.07,20.07,0,0,1-12.7-3.7,19.57,19.57,0,0,1-7.3-10.8,53.62,53.62,0,0,0-.9-10c-.3-1.4-.6-2.7-1-4-4.6,3-3.2,7.9-5.1,12.5-2.3,3.6-5.5,6.6-7.7,10.2-4.4,7.1-7.8,14.7-9.1,23a41.14,41.14,0,0,0-.7,6c-.5,13.4,9.3,25,14.9,30.7a30,30,0,0,1-12.3,4.7,33.42,33.42,0,0,1-15.4-1.4,36.4,36.4,0,0,1-11.2-6,25.08,25.08,0,0,1-14-17.2,27.92,27.92,0,0,1-1.3-5.5,31,31,0,0,1,0-5.3c-.6-5.9,1.4-12.5,4.2-17.7.9-1.6,1.9-3.2,2.9-4.7,1.3-1,2.5-2.1,3.8-3.1,1.7.5,2.8-.4,4.2-1.3a87.19,87.19,0,0,0,13.4-11.6C210,219.6,232.6,210.3,256.6,205.9Z"/>
    <path id="p508" class="cls-33" d="M290.3,205.9c5.8.6,10.8,2.7,16.3,4.4a33.63,33.63,0,0,1,7.7,3.5c-1.6,1.6-2.9,4.1-5.4,4.1a51,51,0,0,0-8.5,3.2,44.13,44.13,0,0,0-12.8,9.5,12.34,12.34,0,0,1-6.5-1.8c-4.4-2.8-6.6-8.7-5.7-14.9a4.4,4.4,0,0,0,1.1-2.3,3.67,3.67,0,0,0-.4-2.4C281.2,208.1,287.4,211.2,290.3,205.9Z"/>
    <path id="p584" class="cls-32" d="M222.8,241.2c1.9,2.5,3.6,5.1,5.5,7.5,3.1,3.3,7.3,5.1,11.5,6.5,2.7,1.1,5.4.6,8.3.6,2.2,2.2,3.7,4.9,6.1,6.9,5.2,4.9,11.6,7.1,18.5,8.6a15.42,15.42,0,0,0,9.5-.1,34.83,34.83,0,0,1,4.4-1c1.5,5.5,3.5,9.9,9.2,12,2.8,1.3,6.5.9,9.4.1,2.5-.3,5-1.2,7.5-1.1a14.47,14.47,0,0,1,2.9,1.3c4.6,2.8,5.9,7.9,6.2,9.5-8.3,6.6-25.6,18.4-50,21.3-10,1.2-28.5,3.3-46.5-7.3a58.06,58.06,0,0,1-14.8-12.5,11.1,11.1,0,0,1-3.3-4.6c-2-5.3,1-10.2,1.4-10.8-.1-1.1-.2-2.4-.2-3.9a30.48,30.48,0,0,1,.2-3.2C210.6,259.9,214.8,249.4,222.8,241.2Zm52.4,46.1a52.42,52.42,0,0,0-11.2-.1,6.55,6.55,0,0,0,1.8,1.5c7.6,3.9,19.4,3.1,25.2-3.6C285.7,285.3,280.5,286.9,275.2,287.3Z"/>
    <path id="p508-2" data-name="p508" class="cls-33" d="M341.9,272.4c4-.7,7.3.9,8,3.2.8,2.5-1.5,5-2,5.6-3.8,4.2-11.8,4.6-13.2,2.1C333.7,281.1,336.7,276.6,341.9,272.4Z"/>
  </g>
  <g id="lights">
    <g class="cls-34">
      <path id="p967" class="cls-35" d="M222.1,404c2.4-.2,1.7,1.2,2.4,2.9-1.2,2.6-4.7,3.8-6.8,5.8-2.4,2-3.8,4.6-5.5,7.1l-.6-2C213.6,412.8,216.8,406.3,222.1,404Z"/>
    </g>
    <g class="cls-34">
      <path id="p703" class="cls-35" d="M344,287.6a10.51,10.51,0,0,1,7,0c6.8,2,12.5,5.9,17.9,10.4a47.41,47.41,0,0,1,10,10c6.4,7.5,12.6,15,15.3,24.7-6.3-7.4-11.1-16-18.5-22.6-7.1-7.5-15.5-15.4-25.9-18.1-4-.6-8.4.5-12.1-.9A35,35,0,0,1,344,287.6Z"/>
    </g>
    <g class="cls-34">
      <path id="p144" class="cls-35" d="M149.2,63.2a20.75,20.75,0,0,1,6.5-1.4,22,22,0,0,1,5,.6c4.2.8,6.9,1.3,9.6,3.2a17.3,17.3,0,0,1,5.2,5.5,16.32,16.32,0,0,1-4.1-1,16.59,16.59,0,0,0-4.1-1.4,22.42,22.42,0,0,0-11.5,0,51.19,51.19,0,0,0-31,21.1c-4.7,6.6-6.9,14.1-8,22-.3.7-.5,1.5-.8,2.2-.5,1.2-.9,2.5-1.3,3.7a11.9,11.9,0,0,1-1.5-11.9c7.2-21.1,6.7-22.5,10.4-27a45.71,45.71,0,0,1,15-11.6C140.5,66.2,143.4,65.2,149.2,63.2Z"/>
    </g>
    <g class="cls-34">
      <path id="p150" class="cls-35" d="M212.4,67.8a166.24,166.24,0,0,1,17.4-1.5c2.3-.1,4.4,0,4.4,0a38.89,38.89,0,0,1,4.2.3c3.1.3,6,.7,9.9,1.3,2.4.4,5.5.9,9.2,1.6,3.3.8,7.7,2,12.9,3.6,5.4,1.7,10.1,3.4,12.9,4.5,14.4,5.9,27.9,12.9,38.9,24,3.7,3.9,7.7,7.2,10.6,11.4,5.4,6.9,9.1,15.3,11.5,23.7l-.7,2.1c-2-3.4-2.9-7.2-5.1-10.6-5.7-8.2-12.2-16.8-20.3-22.7C306.5,94.8,292.3,88.7,277.8,83c-1.2-.4-2.5-1.1-3.8-.9-6.6,4-15.9,2.1-22.4-1-2.8-1.3-4.2-3.5-6.1-5.8-19.1-3.4-39.5-1.1-57.7,5.8-.7-1.6-1.4-3.9-.5-5.8,1-2.3,3.7-3.3,11.4-5C204.3,69.2,207.3,68.5,212.4,67.8Z"/>
    </g>
    <g class="cls-34">
      <path id="p151" class="cls-35" d="M310.8,66.7a21.29,21.29,0,0,1,4.2-.5,16.08,16.08,0,0,1,4.2.5c9.6,1.7,17.6,10.7,22.6,18.5,4.5,6,6.9,12.8,9.5,19.7l-.6,2c-4.3-10.3-10-19.8-18-27.6-6.5-6.1-17.1-9.9-25.9-7.5a61.19,61.19,0,0,0-7.8,2.9c-2.8,1.3-4.7,2.4-6.2,1.6a3.3,3.3,0,0,1-1.5-2.2C300.6,69.9,307.7,67.3,310.8,66.7Z"/>
    </g>
    <g class="cls-34">
      <path id="p776" class="cls-35" d="M190.8,315.7c5.3,2.8,21.5,11.4,37.9,17.5,0,0,11.5,4.3,21.1,5.2,4.3.4,8.5.4,8.5.4a64.31,64.31,0,0,0,6.9-.4l2.3-.3,2.3-.3A61.21,61.21,0,0,1,280,337a60.32,60.32,0,0,1,10.2.8c4.8,1,9.2,1.9,11.9,6.4a17.8,17.8,0,0,1-3.1,2.3,69.88,69.88,0,0,0-10.8-2.8,72.18,72.18,0,0,0-11.5-.9c-1.1.2-2.7.4-4.6.6a107.36,107.36,0,0,1-19.4.5,100.23,100.23,0,0,1-26.6-5.7,110.12,110.12,0,0,1-32.7-18.7C192.6,318.2,191.7,317,190.8,315.7Z"/>
    </g>
    <g class="cls-34">
      <path id="p939" class="cls-35" d="M95.3,393.2a8.22,8.22,0,0,1,4.4,0,31.14,31.14,0,0,1,3.5,5.4c-1.6.2-3.3.3-5,.6-3.7,3.7-2.7,7.6-4.2,12l-.3-1a49.33,49.33,0,0,1-.4-6.9,51.66,51.66,0,0,1,.3-5.7C94.1,396.2,94.6,394.7,95.3,393.2Z"/>
    </g>
    <g class="cls-34">
      <path id="p969" class="cls-35" d="M371,404a37.22,37.22,0,0,1,9.6-2c3.7-.2,7.8-.6,9.1,1.6a4,4,0,0,1,.2,3.2c-1.8-.2-16.9-1.9-25.5,8.4a24,24,0,0,0-4.2,7.8l-.6-2.1C361.2,414.5,365.1,407,371,404Z"/>
    </g>
    <g class="cls-34">
      <path id="p959" class="cls-35" d="M229.2,402.2c4-.4,7.7-.4,11.2,1.7-.2.9-.4,1.8-.6,2.6-3.3-.6-6.5-.2-9.8-.3C229.7,404.8,229.4,403.5,229.2,402.2Z"/>
    </g>
    <g class="cls-34">
      <path id="p982" class="cls-35" d="M396.3,409.1a11.76,11.76,0,0,1,4.2,4.9c-1.9,1.8-3.2-2-4.4-3.1Z"/>
    </g>
  </g>
  <g id="shadows">
    <g class="cls-20">
      <path id="p518" class="cls-19" d="M270.5,212.8c.8,4.3.3,8.7,1.4,13.1-.9,1.5-3.1,2.4-4.4,3.6-3.8,3.6-6.3,8.4-9.7,12.3-5,4.7-10.9,9.1-18.2,6.6-8.1-2.4-11.9-10.7-12.7-18.5,5.7,3.1,8.8,7.7,16.1,8,2.9-.5,5.8-2.2,8.2-3.8,6.1-5.5,11.5-11.9,17.7-17.2C270.1,216.1,270.1,214.1,270.5,212.8Z"/>
    </g>
    <g class="cls-34">
      <path id="p519" class="cls-19" d="M372.4,212.8c2.1,4.1,3.1,8.5,4,13a27.83,27.83,0,0,1,.8,6.4,32.15,32.15,0,0,1-.8,7,69.23,69.23,0,0,1-4.2,13c-2.1,4.7-2.9,4.9-4.1,7.9a10.59,10.59,0,0,1-1.7,2.7,6.14,6.14,0,0,1-1.7,1.4,5.31,5.31,0,0,1-.3-1.1,7.46,7.46,0,0,1,0-3c.1-1.5-.1-1.2-.3-5v-2.6c0-3.9.1-8.2.2-10.1a27.53,27.53,0,0,0,4.4-6.8,33.07,33.07,0,0,0,2.2-8C371.3,224,372,219,372.4,212.8Z"/>
    </g>
    <g class="cls-20">
      <path id="p521" class="cls-19" d="M277,213.9c5.4,2.8,10.8,5.4,16,8.4-2.5,2.4-3.8,5.3-5.3,8.3-3-2-6.6-3-9.4-4.9C277.9,221.8,277.2,217.9,277,213.9Z"/>
    </g>
    <g class="cls-20">
      <path id="p685" class="cls-19" d="M209.9,282c3.9,2.8,6.7,6.7,10.4,9.6,12,8.5,26.1,10.9,40.6,10.4,18.5,1,40.5-4,54.3-17,1.1,1.8,2.4,3.8,2.7,6-4.5,6.6-10.6,9.9-17.4,13.7a104.43,104.43,0,0,1-29.5,8.7,60.25,60.25,0,0,1-15.5,0,89.88,89.88,0,0,1-17.7-3.7,88.33,88.33,0,0,1-13.8-5.9,22.93,22.93,0,0,1-8.9-7.1c-.1-.1-.6-.8-1.2-1.7A44.47,44.47,0,0,1,209.9,282Z"/>
    </g>
    <g class="cls-34">
      <path id="p174" class="cls-19" d="M306.9,71.8c4.4,5.4,8.3,9.8,11.2,13,0,0,16.6,18.1,34.1,31.6a8.42,8.42,0,0,1,.9.7c.2.2.4.3.6.5s.4.2.4.4,0,.3,0,.5c-.1.4,0,.3-.1,1a7.72,7.72,0,0,0-.1,1,7.59,7.59,0,0,1-.6,1.8,12.18,12.18,0,0,1-1.6,3.4,8.42,8.42,0,0,1-2.7,2.6c-1.1-.9-1.6-2.7-2.2-4-2.2-6.2-6.7-12-10.7-17.3-8.1-8.8-16.5-16.9-26.5-23.4-5.2-2.8-10.3-5.7-15.7-8.1a50.61,50.61,0,0,1,6.4-1.8c2.1-.5,2.7-.6,4-.9l.8-.2A4.53,4.53,0,0,1,306.9,71.8Z"/>
    </g>
    <g class="cls-34">
      <path id="p818" class="cls-19" d="M144.3,337.3A18.73,18.73,0,0,1,157,339c8.9,4.4,17.8,8.9,26.7,13.3,13.4,6.2,28.3,11.2,43.1,12,3.8,1.2,8.2.6,12.2.7,4.3-.1,9.1.5,13.2-.7,15.3-1.5,29.9-3.5,44.4-8.8,2.7-.8,5.7-3.2,8.4-1.7-.2,1.5.4,4.2-1.4,4.7-3.5,1.4-7.1,2.2-10.5,3.7,1.2,2.3,5.2,1.5,7,3.6-14.1,14.3-34.8,18.1-53.9,20.5-3.4.2-6.9.3-10.6.3s-7.4-.1-10.8-.3c-25.2-2.2-49.4-10.1-69.8-25.3-2.7-1.7-4-1.4-6,1-4.9-3.8-9.7-6.3-11.2-12.8C135.8,344.2,139.9,339.2,144.3,337.3Z"/>
    </g>
    <g class="cls-34">
      <path id="p917" class="cls-19" d="M285.8,384.1c.3,5.1-.1,9.3,4,13.1a98.16,98.16,0,0,0,13.5,7.4c4.6,1.3,9.3-.2,13.8-1.4,9.3-2.3,18.5-4.5,27.7-7.1a13.54,13.54,0,0,1-.7,6.9c-7.3,3.5-15,5.1-22.9,6.4a47.71,47.71,0,0,1-17.4,0c-4.3-.5-8.4-1.6-12.8-1.4-4.1.2-7.8-.8-11.2,1.8-4.8,2.7-6.2,9.3-3.5,14,3.3,6.9,11.6,9.6,18.7,10.5,4,.9,7.9.6,11.9,1.1,5.5,1.2,10.7.5,16.3.9a86.44,86.44,0,0,1-37.7,17.2,65.82,65.82,0,0,1-29.4.5c1.1-2.3,4.9-10.6,6.3-17.6a30.44,30.44,0,0,0,.6-4.8,29.54,29.54,0,0,0-.7-8,41.69,41.69,0,0,0-3.7-9.5,46.28,46.28,0,0,0-7.8-10.7c-3.6-4-9.4-6.1-14.5-7.5a15.42,15.42,0,0,0-9.5,0c-2.6.7-5.1,1.8-7.7,2.3-1.7-.9-2.6-4-3-5.8a37.5,37.5,0,0,1,6.7.1c.9.1,2.3.2,4.1.3,6.4.4,8.4.4,9.1.4,1.7,0,3,0,4.8-.1,3.1-.1,5.7-.3,7.5-.5a151.42,151.42,0,0,0,15.1-2.4q1.8-.3,5.1-1.2c4.6-1.2,6.5-1.9,11.2-3.1A28.56,28.56,0,0,1,285.8,384.1Z"/>
    </g>
    <g class="cls-34">
      <path id="p979" class="cls-19" d="M108.1,408c.5.4,1,.7,1.5,1.1s1.2.9,1.7,1.3c0,1,.1,1.9.1,2.9.1,1.3.2,2.5.3,3.7a94.45,94.45,0,0,0,5,23c-10-3.4-18.2-12.8-21-22.8,4.6.2,8.3,2.3,12.1-1.5A66.08,66.08,0,0,0,108.1,408Z"/>
    </g>
    <g class="cls-34">
      <path id="p188" class="cls-19" d="M168.1,78c3.9-.5,7.7,3.1,7.9,7,.7,7.8-3.1,16.2-7.9,22.1,1-4.8,2.7-8.8,1.7-13.8-1.2-1-1.6-2-3-.5a53.19,53.19,0,0,0-5.9,13.1c-3,9.5-7,19-12.9,27.1-2.8,3.8-6.4,7.5-11.1,8.8a18.35,18.35,0,0,1-9.6-1.1c-7.7-3.3-12.7-12.3-12.6-23,.1-.2.2-.5.3-.7.1-.4.3-.7.4-1.1a16.23,16.23,0,0,0,3.7,5.4,20.83,20.83,0,0,0,10,4.6c3.7.6,6.9-3.3,9.2-5.7,8.6-10.6,13.4-24.5,21.6-35.4C162.1,82.3,164.8,79,168.1,78Z"/>
    </g>
    <g class="cls-34">
      <path id="p372" class="cls-19" d="M119.7,152.8c1.9,3.9,1,7.8,1.8,11.9,2.1,19.7,6,40.9,15.2,58.7,7.4,13.4,16.7,25.1,30.2,32.7-2.8,5.2-4.7,11.8-4.2,17.7a4.08,4.08,0,0,0-2,2.1,48.56,48.56,0,0,1,.3,5.6c0,1.6-.1,3.1-.2,4.5a48.26,48.26,0,0,1-11-5.1,56.51,56.51,0,0,1-15.5-14.2,78.59,78.59,0,0,1-10-16.7,145.66,145.66,0,0,1-11.6-46.8c-.3-4.5-.3-9-.3-9,0-3.3.1-6.5.3-9.4C113.8,174,115.8,163,119.7,152.8Z"/>
    </g>
    <g class="cls-34">
      <path id="p665" class="cls-19" d="M132.4,274.9c2.4.7,4.1,3.2,5.9,4.8a70.18,70.18,0,0,0,21.1,12.8c4.7,1.1,7.3,6.2,10.8,9.5a9.19,9.19,0,0,1-5.2.2c-10.6-1.1-19.4-5.4-28.8-10,0,.3-.1.8-.1,1.4a52.65,52.65,0,0,0,0,6.9c0,1.3.1,3.1,0,5.3q-.3,5.1-.6,5.1c-.2,0-.3-1.3-.4-3.9,0-1.4,0-3.5-.1-6a145.92,145.92,0,0,0-.7-16.1A91.68,91.68,0,0,0,132.4,274.9Z"/>
    </g>
    <g class="cls-20">
      <path id="p679" class="cls-19" d="M202.4,279.6c.1.5.2,1.1.3,1.6,1.6,8.4,4.5,16.1,10.1,22.7-2.5,1.8-5.7,2.7-8.6,3.5a23.91,23.91,0,0,1-5.5.8,22.89,22.89,0,0,1-6-.8c-8.3-1.7-13.8-6.8-19.9-12.2-2.9-3.6-5.9-6.5-7-11.1,4.8,2.9,9.5,5.3,15.1,5.8a28.83,28.83,0,0,0,11.2-3.4c.4-.2,2-1.2,5.1-3.2a32.82,32.82,0,0,0,3.8-2.7,4.55,4.55,0,0,1,.9-.7C202.2,279.7,202.3,279.6,202.4,279.6Z"/>
    </g>
    <g class="cls-34">
      <path id="p731" class="cls-19" d="M332.8,297c2,2.4,4.1,4.8,6.2,7.1-2.8-.7-6.9-1.2-9-3A29.61,29.61,0,0,1,332.8,297Z"/>
    </g>
    <g class="cls-34">
      <path id="p771" class="cls-19" d="M350.2,313.8a34.17,34.17,0,0,0,5.8,1.6,32.73,32.73,0,0,0,5.1.7,12.55,12.55,0,0,1-1.7,7.5,13.29,13.29,0,0,1-9.3,6.2,60.53,60.53,0,0,1-.4-8.8A53.08,53.08,0,0,1,350.2,313.8Z"/>
    </g>
    <g class="cls-34">
      <path id="p798" class="cls-19" d="M364.7,324.9c1.2,8.3,5.1,17.2,11.5,22.9a17.39,17.39,0,0,0,7.2,3.6,21.38,21.38,0,0,0,14.2-1.4c-.1.4-.1.8-.2,1.2-.8,4.7-3.4,10.1-7.6,12.6-5,4-11.7,4.1-17.5,1.8C360.8,360.8,354,349.9,352,338a1.57,1.57,0,0,1,1-2C357.9,333.8,363,330.1,364.7,324.9Z"/>
    </g>
    <g class="cls-34">
      <path id="p878" class="cls-19" d="M122.7,368.8c.4,17,4.8,36.2,16.2,49.4,6.9,6.9,15.7,9.3,25.1,10.8,8.2,0,15.9.9,23.7-2.3a51.41,51.41,0,0,0,8.9-3.7,63.5,63.5,0,0,0,8.7-5.4c0,1.2.1,3.1.2,5.5.1,4.4.1,5.1.2,6.2a19.38,19.38,0,0,0,3.1,7.8,96.86,96.86,0,0,1,1.9-16.2c3.3.8,2.8,4.7,4.4,7.2,3.8,6.4,9.5,12.6,17.3,13.7a21.34,21.34,0,0,0,22.5-9.8c.3-2.3.3-4.7.6-7.1a45.37,45.37,0,0,1-.2,14.2,44.51,44.51,0,0,1-6.1,15.6h-7.9c-12,0-24,0-35.9.1-10,.1-20.2.2-30.5.1-9.8,0-19.4-.1-29-.3a26.92,26.92,0,0,1-8.6-1.9,26.12,26.12,0,0,1-7.1-4.3,29.08,29.08,0,0,1-7.3-9.5,47.68,47.68,0,0,1-4.1-16.8c0-.2-.1-1.6-.2-3.6-.1-1.1-.2-2.3-.2-3.4C117,399.6,120.3,383.9,122.7,368.8Z"/>
    </g>
    <g class="cls-34">
      <path id="p923" class="cls-19" d="M351.5,385.4c.5.5,1.3,1.2,2.2,2.2a37.71,37.71,0,0,1,4.2,6c.5.8,1.1,1.9,1.8,3.2-1,3.2-2.8,7.1-2.1,10.5a34,34,0,0,0-3,9.5l-.8,1.3c-2.4,4.4-3.8,9.1-6.6,13.3-1.2,5.3-.4,14,6.4,15h10.7c3.6,0,7.2,0,10.8-.1,7.3-.1,14-.8,20.4-4.6a31.41,31.41,0,0,0,8-9c.7-2.5.5-5.3.8-7.9.5,2.1,2.6,11.3-2.8,19.9a24.14,24.14,0,0,1-7.1,7.2c-1.4.5-2.9,1-4.3,1.4-20.6,1-42.3,1.2-64.9.4-5.8-.2-11.6-.5-17.3-.8a92.12,92.12,0,0,0,14-7.7,88.48,88.48,0,0,0,11.7-9.5c3.9-5,8.2-9.2,11.1-14.9a65.15,65.15,0,0,0,6.5-20.6q.3-3.75.3-7.8A54.48,54.48,0,0,0,351.5,385.4Z"/>
    </g>
    <g class="cls-20">
      <path id="p671" class="cls-19" d="M347,276.4c-1,5.6-6.4,5.7-10.8,7.5.9-2.2,2-5.3,4.1-6.6,1.5-.3,3.1-.4,4.6-.6Z"/>
    </g>
  </g>
  <g id="outline">
    <path id="p122" class="cls-36" d="M153.8,56.9c10.5-.3,23.1,3.8,29.4,12.8,3.1-.8,6.1-2.3,9.2-3.3,8.4-3.1,17.6-4.5,26.4-5.6a83.09,83.09,0,0,1,10.6-.7c4,0,7.7.3,10.9.6a174.42,174.42,0,0,1,45.6,10.9c7.1-5,14.2-9.4,23-11a31.59,31.59,0,0,1,5.9-.6,29,29,0,0,1,6.6.8,64.35,64.35,0,0,1,9.6,3.4,67.57,67.57,0,0,1,18.9,21.9c1.8,3.1,3.3,6.3,5,9.4l.2.8c1,3.7,2.5,7.3,3.8,11,.2.9.4,1.9.6,2.9a24.6,24.6,0,0,0,.7,2.9,17.55,17.55,0,0,1,.3,3.5,11.43,11.43,0,0,1-.3,2.8s-.1.9-1,5.7c-1.1,3.1-2.6,6-5.4,7.8-1.3,1.1-2.8,1.4-2.9,3.4a17.78,17.78,0,0,0,.7,3.9c.8,2.8,1.5,5.6,2.3,8.4a37,37,0,0,0,.7,5.7c.7,3.8,1.3,7.5,2.1,11.2.3,1.5.5,3,.9,4.6l.2.8c.3.9.6,1.7.9,2.6,1.8,6.1,6.2,11.5,9.3,17,.5.9,1.1,1.8,1.6,2.7a16.44,16.44,0,0,0,1.4,2.2c.6,1,1.2,2,1.8,2.9,4.7,9.5,9.1,18.9,10.6,29.6.1,1.3.2,2.8.2,4.5a33.18,33.18,0,0,1-.4,4.8c-2.3,14.2-8.1,27.5-19.3,36.8-2.4,1.7-6.5,4.9-5,8.2.4,2.8,2.6,2.9,4.7,4l1.2.9,4.2,3c1.7,1.3,3.4,2.7,5.1,4.1,7.4,5.7,13,13.9,18.7,21.1.6,1,1.2,2,1.8,2.9,2.2,3.8,4.5,7.3,5.7,11.6.5,1.8,1,3.6,1.6,5.4a39.62,39.62,0,0,1,1.6,6.6,24.7,24.7,0,0,1,.7,6,27.71,27.71,0,0,1-.7,6.4,24.26,24.26,0,0,1-5.7,11.4,22.21,22.21,0,0,1-5.6,4.4,30.54,30.54,0,0,1-5.1,2.4,27.49,27.49,0,0,1-8,1.5l-5.2-.6c-2.6-1-5.1-2.4-7.7-3.6-1-.6-2-1.2-3.1-1.8-2.1-1.6-4.1-3.4-6.1-5.1-.6-.6-1.2-1.3-1.8-1.9-1.1-1.7-2.3-3.4-3.5-5.1-.5-.6-.9-1.2-1.5-1.8-.5,5.3-.1,10.7-.3,16,.1,1.8-.3,3.6.9,5.1.9,1.1,1.9,2.1,2.9,3.1,1.3,1.3,2.6,2.6,4,3.8a30.81,30.81,0,0,0,3.7,5c2.3,3.4,3.9,7.1,5.9,10.6,2.5.7,6.5-1.8,9.4-2a14.23,14.23,0,0,1,3.9-.5,16.86,16.86,0,0,1,4.5.6c2.6.7,5,1.6,7.5,2.4a32.84,32.84,0,0,0,3.1,2l3,2.1a53.34,53.34,0,0,0,4.2,4c1.8,2.6,3.2,5.4,4.8,8.1.3.6.6,1.3.9,1.9,1.6,5.9,3.5,11.6,3.3,17.8l-.1,2c-1.1,3.4-1.9,6.8-3.3,10.1-.3.5-.6,1-.9,1.6a17.86,17.86,0,0,0-3,4.2,34.35,34.35,0,0,1-6.8,4.8,36.79,36.79,0,0,1-9.5,3.4c-23.7.2-43.1.2-56.7.2-17.8,0-33.7-.2-62.7-.2H251c-45,.1-75.7-.3-85.9-.4-4.9-.1-12.3-.2-21.3-.3-1.9-.4-3.8-.8-5.6-1.2a33.74,33.74,0,0,1-13.5-7.7c-4.9-2.4-10.3-3.7-15.2-6.4-10-5.9-16.3-14.5-20.2-25.3a48.58,48.58,0,0,1-1.8-22.4c1.2-3.6,2.5-8.4,6.6-9.7a7.39,7.39,0,0,1,3.4-.9,6.85,6.85,0,0,1,3.7,1c6.1,2.8,7.3,9,10.7,14.2,2.5-30.7,11.2-59.1,17-89.1a116.35,116.35,0,0,0-2.4-34.3c-1.8-11.6-6.2-22-11-32.6a152.78,152.78,0,0,1-8.6-37.7,92.79,92.79,0,0,1-.9-12.5,111.85,111.85,0,0,1,.9-13.9c.5-7.7,2.5-15.3,4.3-22.8,1.3-5.8,4.8-11.1,6-16.9a55,55,0,0,1-5.2-8.3c-1.3-3.8-2.7-7.6-3.1-11.6a69.87,69.87,0,0,1-.5-8.3,83.15,83.15,0,0,1,.5-9.1c.1-.6.1-1.2.2-1.8s.1-1.2.2-1.8l.2-.9c1.4-5.1,2.6-10,5.4-14.6,2.6-6,7.1-9.8,11.4-14.4a53.17,53.17,0,0,1,13.3-9.1A60.2,60.2,0,0,1,153.8,56.9Zm-1,6.8a51.59,51.59,0,0,0-11.5,3.7,49.63,49.63,0,0,0-14.1,10.8,50.62,50.62,0,0,0-12.6,27.5,61.3,61.3,0,0,0,.1,12.9c.3,3.1.7,5.7,1.1,7.7a32.13,32.13,0,0,0,2.8,5.7,25.28,25.28,0,0,0,8.6,8.7c2.9,1.7,6.3,1.4,9.6,1.1,4.7-1.3,8.3-5,11.1-8.8,5.9-8.1,9.9-17.6,12.9-27.1a55.31,55.31,0,0,1,5.9-13.1c1.4-1.6,1.7-.5,3,.5,1,5-.7,9-1.7,13.8-5.4,12-10.7,27.3-20.8,36.1A20.49,20.49,0,0,1,134,149c-4-.1-7.8-2.3-11.7-2.7a28.73,28.73,0,0,0-2.7,6.5,129.83,129.83,0,0,0-7,32c-.2,3-.3,6.1-.3,9.4s.1,6.2.3,9c1.9,22,8.2,45.6,21.6,63.5,7,7.9,14.9,14.5,24.7,18.7a12.09,12.09,0,0,0,1.8.5,48.71,48.71,0,0,0-.1-10.1,4,4,0,0,1,2-2.1c1.6,3.4,2,6.8,3.2,10.3,1.1,4.6,4.1,7.6,7,11.1,6,5.4,11.6,10.5,19.9,12.2a22.42,22.42,0,0,0,11.5,0c2.9-.8,6.2-1.7,8.6-3.5-5.6-6.6-8.5-14.3-10.1-22.7a34.2,34.2,0,0,1-.8-7.2,27.19,27.19,0,0,1,.7-6.2,64.44,64.44,0,0,1,9.1-23c2.3-3.6,5.4-6.6,7.7-10.2,1.9-4.6.5-9.5,5.1-12.5a54.85,54.85,0,0,0,2.3,7.9c.8,7.8,4.6,16,12.7,18.5,7.2,2.5,13.2-1.9,18.2-6.6,3.4-3.9,5.8-8.7,9.7-12.3,1.3-1.2,3.5-2,4.4-3.6-1.1-4.3-.6-8.7-1.4-13.1-.2-1.2-.4-2.3-.7-3.5-3.2.8-6.9,2.8-10.1,1-1.8-.6-2.2-2.9-3.1-4.5,1.1-1.8,2.5-3.5,3.5-5.5-34.2,4.1-63.8,22.5-86.5,47.8-1.3,1-2.5,2.1-3.8,3.1a3,3,0,0,1,.2-3.3c4-8.6,10.6-16.1,17.8-22.3,4.8-5.3,10.8-8.4,16.3-12.7a29.37,29.37,0,0,1-7.4-15.8,12.16,12.16,0,0,1-.6-3.2,12.78,12.78,0,0,1,.7-5.3c1.6-6.6,3.6-12.1,10.4-14.7,4.2-.5,8.8,2.4,10.8,6.1,2.5,3.5,3.4,7.5,4.4,11.6a16.87,16.87,0,0,1,.8,5.3,16.27,16.27,0,0,1-.9,5.2,1.19,1.19,0,0,0,.2,1.6,1,1,0,0,0,1.2-.3,142.51,142.51,0,0,1,40.2-9.8,47.61,47.61,0,0,1,17.4,0c6.8.6,13.1,2.5,19.7,4,0-1.1,0-2.3-.1-3.4a18.43,18.43,0,0,1-.9-5.5,19.9,19.9,0,0,1,.7-5c1.6-7.1,4.2-13.9,11.5-16.7a10.59,10.59,0,0,1,6,1.1,11.43,11.43,0,0,1,3.6,3.2c2.7,3.3,3.4,6.9,4.2,10.3a25.47,25.47,0,0,1,.7,5.5,24.27,24.27,0,0,1-.2,4.1c-.4,3.5-2.4,8.9-6.3,14.8a124.78,124.78,0,0,0,12.2,8.3c6.2-.2,12.6-1.5,18.7-2.4,5.6-.7,11.6,3.1,13.1,8.6.3,5.6.3,10.2.3,13.4-.1,8.3-.8,13.3-.4,22.6.1,2.3.2,4.2.3,5.5-.1.7-.1,1.9.3,2.1s.9-.6,1.2-1a50.42,50.42,0,0,0,6.4-11,68.32,68.32,0,0,0,4.2-13,28.9,28.9,0,0,0,0-13.4c-.9-4.5-1.9-8.9-4-13-4.5-12.9-14.2-24-19.6-36.5-4.2-12.7-4.2-26.8-8.3-39.5-2.4-8.4-6.1-16.8-11.5-23.7-3-4.2-7-7.5-10.6-11.4-11.1-11.1-24.5-18.2-38.9-24-8.7-3.1-17-6.4-26.2-8-2.1-.4-4.1-.7-6.4-1.1-4.3-.7-9.3-1.6-13.5-2-1.6-.1-2.9-.2-3.1-.2-.4,0-2.2-.1-4.3-.1-.7,0-3.8,0-8,.4a134.88,134.88,0,0,0-16.9,2.7,83.35,83.35,0,0,0-16.3,5.2c-2.9.8-1.3,4.6-.7,6.6,0,3.7.4,7.2-1.1,10.7-.8,1.6-1.3,4.3-3.7,4a83.23,83.23,0,0,0-2.9-16.3c-1.6-5.5-4.1-7.7-4.9-8.5a23.3,23.3,0,0,0-6.2-4.5,27.59,27.59,0,0,0-8.1-2.9c-2.2-.4-3.7-.4-4.1-.5A34.12,34.12,0,0,0,152.8,63.7Zm158,3a44.31,44.31,0,0,0-7.2,2.2,68.94,68.94,0,0,0-9.8,4.9c-.8.4-.8.9.2,1.5,5.4,2.4,10.5,5.3,15.7,8.1,10,6.5,18.5,14.7,26.5,23.4,4,5.3,8.4,11,10.7,17.3.6,1.3,1,3.1,2.2,4,2.3-1.4,3.4-3.5,4.3-6,1.2-2.9.8-6.5.1-9.4a76.87,76.87,0,0,0-2.1-7.9c-2.6-6.9-5-13.7-9.5-19.7-5-7.9-13-16.8-22.6-18.5a21,21,0,0,0-4.2-.5A35.46,35.46,0,0,0,310.8,66.7Zm-2.4,119.6c-3.1,4.5-3.6,9.6.8,13.5,4.6-1.3,5.9-7.9,3.8-11.7C312.4,185.8,310.2,185.6,308.4,186.3Zm-97.1,6.9c-2.9,3.2-2.2,7.4-.5,11.1,1,1.3,2.2,2.3,3.9,1.4,3.8-2,2.6-8.1.7-11.1C214.7,192.6,213,192.8,211.3,193.2Zm79,12.7c-3,5.2-9.1,2.2-14.1,3.3.2,1.6.5,3.2.8,4.8.2,3.9.9,7.8,1.3,11.8,2.8,1.9,6.4,2.9,9.4,4.9,1.5-3,2.8-5.9,5.3-8.3,4.9-3.4,10.3-3.5,16-4.4,2.5.1,3.8-2.5,5.4-4.1,2.7,1.6,4.3,2.6,7.6,2-3.6-3.7-9-6-13.7-8.2a67.62,67.62,0,0,0-20.1-6.5C288.9,202.8,289.6,204.3,290.3,205.9Zm3.4,26.9c-.9,2-.7,4-.8,6.2.1,9.3.1,18.7,0,28,.1,1.8-.2,3.5.9,5.1.9,1.6,1.6,2.9,3.5,3.5,5.7,1.3,11.6-.9,17.5-1.1,2.9.5,3.6,3.6,5,5.6,1.9,2.8,2.9,6.4,5.1,8.9,3.7-1.2,4.4-5,5.9-8.2s2.6-7.4,5.4-9.6c5.7-1,12.5-.7,17.7-3.3,2.6-1.2,3.3-3.5,4.1-6v-2c0-1.4,0-2.7-.1-4.1,0-3.8-.1-7.7-.1-11.6,0-4.8,0-9.5.1-14.2,0-2.2.1-4.4.1-6.5V223c-1.6-6.1-7.5-4.5-12.1-3.8-14.3,2.1-28.6,4.3-43,5.9C298.5,225.8,295,228.3,293.7,232.8Zm-85,38.2c-.1,1.2-.2,2.6-.2,4.1a26.61,26.61,0,0,0,.2,3c.4,1.3.8,2.6,1.3,3.9.8,8.7,5.8,18.4,14.4,21.7a84.85,84.85,0,0,0,31.5,9.6,55.39,55.39,0,0,0,7.5.5,63.46,63.46,0,0,0,8-.5,95.49,95.49,0,0,0,29.5-8.7c6.8-3.9,12.8-7.1,17.4-13.7-.3-2.1-1.6-4.1-2.7-6a31.94,31.94,0,0,0-2.6-3.8c-2.5-.1-5,.8-7.5,1.1a12.15,12.15,0,0,1-4.8.7,15.3,15.3,0,0,1-4.6-.8c-5.7-2.1-7.7-6.5-9.2-12-1.5.2-2.9.7-4.4,1a21.83,21.83,0,0,1-4.8.8,26.51,26.51,0,0,1-14.6-3.4,39,39,0,0,1-8.6-5.9,39.66,39.66,0,0,1-6.1-6.9,18.72,18.72,0,0,1-4.3.2,20.41,20.41,0,0,1-4.1-.7c-4.2-1.4-8.4-3.2-11.5-6.5-2-2.4-3.6-5-5.5-7.5C214.8,249.4,210.6,259.9,208.7,271Zm78.4-8.1c2-1,1.2-5.3.3-6.9-2.9-8.2-10.1-13.3-18.4-15-2.7-.6-3.2,1.4-4.5,3.2,1.1,3,1.9,5.6,1.6,8.8.2,3.2-1.6,6.6-.8,9.6C271.8,265.4,280.7,266.5,287.1,262.9Zm-28.8-13.5c-1.4.8-4.8,1.5-4.3,3.6a21.33,21.33,0,0,0,5.7,5.9c.7-3.3,1.7-6.3,1.1-9.8A5.39,5.39,0,0,0,258.3,249.4ZM135.1,295a30.89,30.89,0,0,1,.4,4c.1.8.1,1.7.2,2.7a64.73,64.73,0,0,1-.3,9.5c-3.2,19.5-8.9,38.2-12.6,57.6-2.4,15.1-5.7,30.9-4.5,46.2l.3,3.6c.1,1.2.1,2.3.2,3.4,1.2,10.5,5.3,20.9,14.3,27a32.86,32.86,0,0,0,9.1,3.7,16,16,0,0,0,2.1.5,36.77,36.77,0,0,0,7.1.8c13.1-.1,23.7-.1,30.7-.1,20.1.1,31.5.4,52.1.2,6.1-.1,11.1-.2,14.1-.2.2-.3.5-.6.7-.9l.3-1c5.3-7.3,8.1-18.3,6-27.2-1.1-5.4-3.4-12.4-8.1-15.7-.8,3.6-.8,9.5-4,11.9a165,165,0,0,0-2.9-17.1c-3.5-2.1-7.3-2.1-11.2-1.7.2,1.4.6,2.7.9,4a27.49,27.49,0,0,1-2.4,12.4l-1.4.2c-.2-4.1-.4-8-1.7-12-.7-1.7,0-3.1-2.4-2.9-5.3,2.2-8.5,8.7-10.4,13.8-.4,1-.7,1.9-1,2.9a96.86,96.86,0,0,0-1.9,16.2c-2.3-1.5-2.5-5.3-3.1-7.8-.1-2.5-.2-5.1-.3-7.6,0-1.4-.1-2.7-.1-4a30.83,30.83,0,0,1,7.7-15.6c-.8-3.5-3.9-8.9-6.4-11.6-11.1-2.7-21.9-5.5-32.4-10.6-5.6-2.1-10.6-5.9-16.1-8.3-6.9,1.8-12.7,5.8-19.1,8.5,2.2-5.9,6.6-9.4,11.5-13.1a16.58,16.58,0,0,1-1.6-4.9c2-2.3,3.3-2.7,6-1,20.4,15.2,44.6,23,69.8,25.3,3.5.2,7.1.3,11,.3,3.7,0,7.1-.1,10.4-.3,19.1-2.3,39.9-6.2,53.9-20.5-1.8-2-5.9-1.3-7-3.6,3.4-1.5,7-2.3,10.5-3.7,1.9-.5,1.3-3.2,1.4-4.7,0-1.2-.1-2.4-.2-3.7-3.3.5-6.4,1.2-9.7.6-.5-.3-3.4-.7-2.7-1.6,2.2-1.1,4.5-1.6,6.6-2.9a17.8,17.8,0,0,0,3.1-2.3c-2.8-4.5-7.1-5.4-11.9-6.4a67.1,67.1,0,0,0-20.5,0l-4.6.6c-2.3.2-4.9.4-7.6.4a62.45,62.45,0,0,1-7.8-.4c-21.1-3.2-40.8-11.5-59-22.6-6.7-5.1-14.4-7.9-20.6-13.7-3.5-3.3-6.1-8.3-10.8-9.5a67.07,67.07,0,0,1-21.1-12.8c-1.8-1.6-3.6-4.1-5.9-4.8a65.38,65.38,0,0,1,1.9,9.5C134.6,288.2,134.5,291.2,135.1,295Zm209.8-18.3c-1.5.2-3.1.3-4.6.6-2.1,1.4-3.2,4.4-4.1,6.6,4.4-1.9,9.9-2,10.8-7.5Zm-.9,10.9a23.94,23.94,0,0,0-6.2,3.6c-1.9,1.5-3.3,3.8-5,5.7-1,1.3-2,2.6-2.9,4,2.1,1.9,6.3,2.4,9,3,5,2.3,9.6,3.9,11.2,9.8-.3,5.3-.3,10.7-.1,16l1.2-.6c5.5-2.5,9.9-6.7,9.8-13.1.3-3.9-.9-7.4-1.7-11.2a3.43,3.43,0,0,1,2.7,2.1c3.1,5.7,5.3,11.5,2.7,17.9-1.8,5.2-6.8,9-11.7,11.1a1.69,1.69,0,0,0-1,2c2,12,8.8,22.9,20.3,27.6,5.8,2.3,12.4,2.2,17.5-1.8,4.1-2.6,6.8-8,7.6-12.6a24.5,24.5,0,0,0,.4-4.4,21.72,21.72,0,0,0-.5-4.1,55.92,55.92,0,0,0-3.1-9.9c-2.7-9.7-8.9-17.2-15.3-24.7a45.17,45.17,0,0,0-10-10c-5.4-4.5-11.1-8.4-17.9-10.4a10,10,0,0,0-3.5-.6A13.13,13.13,0,0,0,344,287.6Zm-21,20c-6,1.5-12.1,2.7-18.1,4-4,1.4-11.4.6-12.5,5.7a63,63,0,0,0-.1,14.4c.8,0,3.8,1.8,3.9.4,0-2,.1-4,.2-6.1.1-1.8.2-3.5.4-5.2,1.4-5.4,6.5-7.1,11.5-8.1,5.7-.8,11.2-3,16.9-3.8.9,0,3.1-.3,2.5-1.7C326.3,306.3,324.3,307,323,307.6ZM235.3,320l-2.4,1.2c-3.6-1.2-7.2-2.1-10.8-3.4-5.7-1.8-9.8-4.9-16.1-3.7q2.1,1.8,4.5,3.6c1.7,1.3,3.3,2.4,4.9,3.5a113.3,113.3,0,0,0,15.6,6.1,99.66,99.66,0,0,0,15.7,3.9,100.28,100.28,0,0,0,19.4.7c3.7-.1,6.7-.3,8.8-.5,1.7-.2,3.6-.4,5.5-.6,1.5-.1,3-.2,4.4-.2l.8-.1a67.35,67.35,0,0,0,0-12.7,9.82,9.82,0,0,0-2.9.5,18.92,18.92,0,0,1-2.9.7s-4.3.5-7.7.8c-5,.5-7.6.8-8.6.8a49.78,49.78,0,0,1-9.4-.4,50.35,50.35,0,0,1-9-1.9c-9.9-2.6-15.2-4.8-18.3-6.6-1-.6-3.7-2.3-6.8-1.7a7.25,7.25,0,0,0-3.4,1.7A91.28,91.28,0,0,0,235.3,320Zm67.4,2.8c-.4.9-.3,1.5-.3,3.4,0,0,.1,2.6.1,6.1a18.58,18.58,0,0,1-.1,2.6,25,25,0,0,1,5.9,7.1,30.25,30.25,0,0,1,2.9,6.9,17.8,17.8,0,0,1,.8,5.5,16.21,16.21,0,0,1-1.2,5.6,38.4,38.4,0,0,1-3.2,6.5,32.37,32.37,0,0,1-4.6,5.7c-1.3,1.1-1,2.3-1.1,3.9,0,5,.1,10,0,15,.1,1.8-.3,3.6.9,5.1,1.3,1.8,2.6,3.4,5.1,2.8,9.9-2.3,19.8-4.9,29.7-7.3,2.8-1,5.9-1.1,6.5-4.6-.2-23.5-.4-47.1-.5-70.6a2.14,2.14,0,0,0,0-1.4,3,3,0,0,0-.5-1c-1.2-2.8-4.6-1.9-7-1.7-16.5,4.5-28.1,7.6-29.9,7.9a3.93,3.93,0,0,0-1.8.6A4.07,4.07,0,0,0,302.7,322.8Zm-8.6,55.8-1.2,1.2c-1.5,2.3-1.2,7.9-.1,10.4a7.44,7.44,0,0,0,1.4,2.2l1,1c.4.3.9-4.6,1-6.5a56.05,56.05,0,0,0-.2-7.3V378C295.3,378.2,294.7,378.4,294.1,378.6Zm-45.9,13.7c-.8.1-3.7.3-7.5.5-2.5.1-5.4.2-9.2,0s-4.3-.4-8.3-.6c-3-.1-5.5-.1-7.1-.1.4,1.8,1.3,5,3,5.8,2.6-.5,5.1-1.6,7.7-2.3a14.71,14.71,0,0,1,5.3-.7,20.28,20.28,0,0,1,4.2.7c5.1,1.4,10.9,3.5,14.5,7.5a60.94,60.94,0,0,1,7.8,10.7,49.39,49.39,0,0,1,3.6,9.1,26.41,26.41,0,0,1,.9,7.8,44.55,44.55,0,0,1-.7,5.4c-1.1,5.7-2.4,11-5.6,15.9a11.11,11.11,0,0,0-.7,1.6c7.9.1,16.4.9,24.2-.5,15.8-1.6,30.8-6.7,42.9-17.2,1.9-1.8,4.1-3.2,6.1-5,6.9-8.2,13.8-17.2,14.9-28.2a12.54,12.54,0,0,0,.7-6.9c-9.2,2.6-18.4,4.8-27.7,7.1-4.5,1.2-9.2,2.7-13.8,1.4a98.16,98.16,0,0,1-13.5-7.4c-4.1-3.8-3.8-8-4-13.1a273.51,273.51,0,0,1-30.2,7.3A62.74,62.74,0,0,1,248.2,392.3Zm103.6,7.6a64,64,0,0,1-7,20.9,65.27,65.27,0,0,1-11.1,14.9c-7,7-21.4,15.4-24.8,16.7-.1.1-.8.3-.8.5,0,.4,2,.3,5.9.5,3,.2,2.9.3,4.8.3a39.6,39.6,0,0,0,5,0h3.5c2.4.3,10.1.3,10.1.3h11c11.6-.1,13.7.3,21.8.2,4.8,0,11.7-.3,20.1-1.1.6-.2,1.2-.3,1.7-.5a23.34,23.34,0,0,0,9.7-8.1c4.9-7.5,3.4-16.1,2.8-19.9a32.6,32.6,0,0,0-3.9-10.8,11.76,11.76,0,0,0-4.2-4.9l-.2,1.8a32.61,32.61,0,0,1-2.3,8.8l-1.5.2a55.35,55.35,0,0,0-2.9-15c-.9-3.5-8.4-3.1-11.2-2.7a19.55,19.55,0,0,1,.9,4.8,24.43,24.43,0,0,1-.8,8.3,13.91,13.91,0,0,1-2,4.7c-1.3-4-1.6-8.1-3-12.1-.6-1.3-1.1-3.1-2.3-3.9-6,3.1-9.9,10.6-11.4,16.9a73.21,73.21,0,0,0-1.9,16.2c-2.3-1.5-2.5-5.3-3.1-7.8a50.88,50.88,0,0,1-.3-7,45.79,45.79,0,0,1,.4-5.5,36.19,36.19,0,0,1,3-9.5,37.76,37.76,0,0,0,4.3-5.4,45.54,45.54,0,0,0-8.8-14.8,8.18,8.18,0,0,0-.8-.9A63.6,63.6,0,0,1,351.8,399.9ZM93.7,397.8a29.34,29.34,0,0,0-.3,6.3c0,1.6.2,3.7.4,6.3l.3,1a23.39,23.39,0,0,0,1.6,5.9c2.9,10.1,11,19.5,21,22.8a95.47,95.47,0,0,1-5-23c-.1-1.3-.2-2.6-.2-4-.1-.9-.1-1.8-.2-2.7-.6-.4-1.1-.9-1.7-1.3s-1-.7-1.5-1.1c-1.7-3.1-3.1-6.2-4.9-9.3a27.76,27.76,0,0,0-3.5-5.4,9.35,9.35,0,0,0-4.4,0A16.11,16.11,0,0,0,93.7,397.8Z"/>
  </g>
</svg>
