<svg id="Layer_1" data-name="Layer 1" xmlns="http://www.w3.org/2000/svg" viewBox="0 0 509 533.03">
  <defs>
    <style>
.cls-1{fill:#f8eee4;}.cls-2{fill:#e2a275;}.cls-3{fill:#9f654c;}.cls-4{fill:#a0664d;}.cls-5{fill:#636363;opacity:0.5;isolation:isolate;}.cls-6{fill:#a18b9e;}.cls-7{fill:#f4b56a;}.cls-8{fill:#131660;}.cls-9{fill:#fff;}.cls-10{fill:#ba9f93;}.cls-11{fill:#bba094;}.cls-12{fill:#c03c74;}.cls-13{fill:#8c2f6e;}.cls-14{fill:#9d7e91;}.cls-15{fill:#dc6a8b;}.cls-16{opacity:0.55;}.cls-17{fill:#e8e7e6;}.cls-18{opacity:0.6;}.cls-19{fill:#6b6b6b;}.cls-20{opacity:0.7;}
</style>
  </defs>
  <rect id="right_bg" class="cls-1" x="111.5" width="397.5" height="533"/>
  <path id="left_bg" class="cls-2" d="M0,533V0H366.5c-16.8,31.5-39.4,74-66.1,124.4-62.8,118.9-67.8,123.7-78.1,152.4-21.7,60.1-34.8,89.3-42.6,108.5C136,493.4,138.4,470.1,134.5,487c-.7,3.3-7.9,36-27.3,44.6-2.2,1-9.6,1.1-24.2,1.3-17.1.3-28.5,0-28.5,0C42.5,532.7,24.5,532.5,0,533Z"/>
  <g id="seperator">
    <path id="p1" class="cls-3" d="M362.9,0H392c-.9,2-2.3,5-4,8.6-2.3,5-3.9,8.1-7.4,15.3-5.1,10.3-5.7,11.8-6.5,13.4a13.23,13.23,0,0,1-.8,1.5c-1.4,2.5-3.6,7-7.4,14.5-1.7,3.5-2.3,4.6-4,8l-2.7,5.4c-1,1.9-1.2,2.3-4.1,7.9-2.7,5.1-3.3,6.3-4,7.8-.6,1.3-1.3,2.6-1.9,4-.5,1.1-1,2.1-1.5,3.1-3.7-1.3-7.7-2.6-11.9-3.8-4.6-1.3-9-2.4-13.2-3.4,2.3-5.8,5.4-11.1,7.9-16.8,5.1-10.3,9.8-20.9,15.5-30.9.7-1.6,1.5-3.2,2.3-4.8s1.6-3,2.4-4.3c2-3.9,4.1-7.9,6.1-12.1C359,8.8,361,4.4,362.9,0Z"/>
    <path id="p831" class="cls-4" d="M157.2,421.5a64.08,64.08,0,0,0,7.2,10.1c.7.7,1.4,1.5,2.3,2.4.4.4,1.2,1.2,2.3,2.2a28.57,28.57,0,0,0,4.1,3.6c.6.3,1.3.6,1.4,1.1a1.84,1.84,0,0,1-.6,1.6c-2.2,2.7-3,6.2-4.7,9.3-.9,1.6-2.1,3.9-3.4,6.8A34.48,34.48,0,0,0,163,464c-3.2,8.3-5.3,11-8.1,16.7-3.6,7.2-3.9,7.1-7.6,14.4-3.3,6.5-5.7,12-7.3,15.6-1.3,2.6-2.6,5.3-4,7.9-1.5,2.9-2.8,5.3-2.8,5.3s-2.8,6.3-4,8.8H102.4c9.5-19.1,18.7-38.2,28.1-57.4,5.2-10.2,10.3-20.6,15-31.1a24.43,24.43,0,0,0,1-2.4C150.6,435.6,153.3,428.2,157.2,421.5Z"/>
  </g>
  <ellipse id="shadow" class="cls-5" cx="283.6" cy="440.8" rx="132" ry="23.2"/>
  <g id="fish">
    <path id="p522" class="cls-6" d="M328.5,267c.3,1.2-.6,2.6-.8,3.8a4.16,4.16,0,0,1-2.5.2,13.59,13.59,0,0,0-1.1-2.8C325.8,270,328.1,270,328.5,267Z"/>
    <path id="p594" class="cls-7" d="M301.2,300.1a2.37,2.37,0,0,1,2.1.8c-.7,4.7-2.4,9.3-2.8,14a83.13,83.13,0,0,1,7.2-12.2c1.5.8,3.6,1,4.9,2.1-.2,4.5-.8,9-.5,13.4,1.5-3.8,3-7.5,4.6-11.2.5-2.1,2.4-.6,3.6-.3a40.24,40.24,0,0,1,.8,13.4c-.5,3.5-1.7,7.4-5.2,9.1-6.8,3-15.2,1.1-20.8-3.4-2.7-2.2-4.9-5.1-4.4-8.8C291.9,310.6,296.8,304.6,301.2,300.1Z"/>
    <path id="p791" class="cls-7" d="M275.1,399.6c1.7,1,3.3,2.2,5,3.3l-.3.7a40.39,40.39,0,0,0-10.9,7.4c.2-2.4-.3-5.4.4-7.6C271.2,402,273.1,400.8,275.1,399.6Z"/>
    <path id="p471" class="cls-7" d="M336.9,242.2a4.73,4.73,0,0,1,1.5-3.5c1.7-1.3,4.9-1,7.1,1.5a113.06,113.06,0,0,1,17.6,10.9c7.6,5.8,13.9,10.6,17.9,19.3a37,37,0,0,1,3.1,10.1c5.4,12.2,6.5,26.3,4.2,39.4a38,38,0,0,1,6.6,5.1,35.79,35.79,0,0,1,9.6,17.1l2.1,9.3a14.62,14.62,0,0,1-5.1,11.1,14.4,14.4,0,0,1-12.6,2.6,5.55,5.55,0,0,0-7.3,5.9c1.1,4.6,1.7,9.7-.4,14.1-3,6-10.9,8.5-16.9,5.6-4.3-1.9-6.6-5.4-9.2-9.1a100.49,100.49,0,0,1-9.8,8.6c-2.1,3.1-10.8,15.5-26.6,18.4-10.1,1.8-18-1.1-23.8-3.3-6.8-2.5-21.3-9.4-30.1-25.5a55.07,55.07,0,0,1-6.2-18.9,8.93,8.93,0,0,1,5.2-3.7,8.54,8.54,0,0,1,6.5.9l12.3-6.9c1-.4,7.2-2.8,9.3-9.1,1.7-5.2-.4-9.7-1.2-11.5-3.1-6.9-9.5-11.3-16.6-13.6s-14-4.4-20.9-7.2l-.4-.6c1.9-4.8,3.5-9.8,6-14.3a75.3,75.3,0,0,1,7.3-16.4c.4-.8,1.1-1.8,1.8-3.1,0,0,1.4-2.3,3-4.5,6.4-9.2,10.3-14.8,16.3-19.4a43.53,43.53,0,0,1,14.9-7.3l-2.7,10.2c-.9,3.7-1.9,7.3-2.8,10.9,1.4-3.2,3.1-6.5,5-10a110,110,0,0,1,6.5-10.4h2.1c1,.1,2,.2,2.8.3l.3-1.5c.5-.6,1.1-1.3,1.8-2a15.94,15.94,0,0,1,5.3-3.1c1.3,1.2,2.7,2.5,4.3,3.8.7.6,1.4,1.1,2.1,1.6h3.1a19.48,19.48,0,0,0,2.5-.2C333.9,243.3,335.4,242.7,336.9,242.2Zm-19.3,42.5a26.82,26.82,0,0,0,8,0c.8-2.2,3-2,4.4-3.7a12.06,12.06,0,0,0-1.4-18.7c-2.7-2.1-5.4-1.1-8.6-1.4-3.4-.5-6.5,2.2-8.2,4.8-3.9,5.9-1.4,15.3,5.7,17.4ZM277.5,280a55,55,0,0,0,19,17.2c-4.2,5.6-9,10.4-10.4,17.8-.1,3.4-.6,6.5,1.4,9.5,5.9,9.5,19.3,13.6,29.7,9.7,5.1-1.8,8.3-7,8.8-12.2.1-4.8,0-9.6,0-14.4,14.1,2.2,30.1,1.9,43.1-4.5,1.5-1,3.2-.8,2.9-3.1-2.1.1-4.1,1.3-6.1,1.7-13.2,3.5-27.6,3.1-40.8.1-15.9-3.3-32.5-10.2-44.5-21.4A4.9,4.9,0,0,0,277.5,280Zm106,55.5c-5.8,11.5-11.2,23.1-17.7,34.3-.3.3-.9,2.4-.3,2.5.3-.4.6-.9.9-1.4,9-6.6,14.9-17.3,17.7-27.9,1-3.3.8-6.6.8-10A20.13,20.13,0,0,0,383.5,335.5Z"/>
    <path id="p508" class="cls-8" d="M320,261c3.2.2,6-.8,8.6,1.4,6.3,4.1,7,13.8,1.4,18.7-1.4,1.7-3.6,1.5-4.4,3.7a26.82,26.82,0,0,1-8,0l-.1-1.5c-7.1-2-9.6-11.4-5.7-17.4C313.5,263.1,316.6,260.5,320,261Zm4,7.2a9.61,9.61,0,0,1,1.1,2.8,5.12,5.12,0,0,0,2.5-.2c.3-1.2,1.1-2.6.8-3.8l-.6-1C325.8,266.1,324,265.3,324,268.2Zm-7.6,4.3a3.94,3.94,0,0,0,.5,6.7,4.07,4.07,0,0,0,6-4.2C322.4,271.7,318.9,271.3,316.4,272.5Z"/>
    <path id="p528" class="cls-9" d="M316.4,272.5c2.4-1.2,6-.8,6.4,2.5a4,4,0,1,1-6.4-2.5Z"/>
    <path id="p548" class="cls-8" d="M277.5,280a4.27,4.27,0,0,1,3.1.5c12,11.3,28.5,18.1,44.5,21.4,13.2,2.9,27.7,3.4,40.8-.1,2-.5,4-1.6,6.1-1.7.4,2.3-1.4,2.1-2.9,3.1-13,6.4-29,6.7-43.1,4.5,0,4.8.1,9.6,0,14.4-.5,5.2-3.7,10.4-8.8,12.2-10.4,3.9-23.8-.3-29.7-9.7-2-3-1.4-6.1-1.4-9.5,1.4-7.4,6.2-12.2,10.4-17.8C289,292.8,282.3,287.3,277.5,280Zm43,26.6c-1.3-.3-3.2-1.8-3.6.3-1.6,3.7-3.1,7.5-4.6,11.2-.3-4.5.3-9,.5-13.4-1.2-1.1-3.4-1.3-4.9-2.1a88.7,88.7,0,0,0-7.2,12.2c.3-4.7,2.1-9.3,2.8-14a2.56,2.56,0,0,0-2.1-.8c-4.5,4.5-9.3,10.5-10.4,16.9-.5,3.7,1.7,6.6,4.4,8.8,5.6,4.5,14.1,6.4,20.8,3.4,3.4-1.7,4.7-5.6,5.2-9.1A43.1,43.1,0,0,0,320.5,306.6Z"/>
    <path id="p584" class="cls-7" d="M252.9,297.4a95.51,95.51,0,0,0-1,12c-1.3-.5-2.6-1.1-3.9-1.6-2.9-1.2-5.8-2.2-8.5-3.2a17.65,17.65,0,0,1,1.9-2.3,14,14,0,0,1,3.7-2.6,19,19,0,0,1,3.2-1.6A15,15,0,0,1,252.9,297.4Z"/>
    <path id="p801" class="cls-7" d="M290.1,407c-4.4,5.3-11,11.3-13.1,18,4.9-6.5,11.3-11.2,18.2-15.5a2.29,2.29,0,0,1,1.6,1.6,67.94,67.94,0,0,1,8.7,19.2c.8-6.3-1.8-13.4-3.6-19.5,1.9.2,3.5-.3,5,1.1a37.32,37.32,0,0,1,13.4,16.3c.1,0,.2-.1.2-.3a36.11,36.11,0,0,0-9.4-18.4c2.9-1.1,6-.6,9-1.4a27,27,0,0,1,8.5,10.8,28.66,28.66,0,0,1,1.9,14.8,33.9,33.9,0,0,1-6.2,16.1c-3.1,1.5-9.6,4.2-16.1,1.9s-11-8.8-14.5-13.8c-.7-1-1.2-1.8-1.6-2.4a36,36,0,0,1-11.4,5.8,38,38,0,0,1-10.6,1.4c-.3,0-5.6.7-8.4-2.7s-2-9.8,2.9-13.7c.4-2,.9-4.2,1.6-6.5a65.6,65.6,0,0,1,2.5-6.8,25.57,25.57,0,0,1,5.8-3.3C279.4,407.9,285.2,405.8,290.1,407Z"/>
    <path id="p662" class="cls-8" d="M385,333c0,3.4.2,6.7-.8,10-2.8,10.6-8.8,21.3-17.7,27.9-.3.5-.7,1-.9,1.4-.6-.1-.1-2.2.3-2.5,6.5-11.2,11.9-22.8,17.7-34.3A8.87,8.87,0,0,1,385,333Z"/>
  </g>
  <g id="main_body">
    <path id="p403" class="cls-10" d="M118,194.1a60.76,60.76,0,0,1,26.6,27.4c7.3,15,6.1,28.8,5.3,38.5a95.31,95.31,0,0,1-5.7,25.4,107.58,107.58,0,0,0-13.5,34.8c-1.8,9-3.2,16.1-1.2,25.4,3.2,15.5,13.4,26,16.7,29.3,2.2,2.2,4.1,3.8,5.5,5a108.61,108.61,0,0,0-.1,15.1,20.44,20.44,0,0,1,2.6,6.6c.3,1.2.4,2.4.7,4.5.2,1.9.4,3.5.5,4.6a90,90,0,0,1-32.7-17.5c-15.1-12.7-21.8-26.8-25-33.6-5.2-11.3-11.4-24.7-9.3-41,1.1-8.2,4.1-16.2,10.3-32.3,0,0,2.8-7.5,4.6-25.1a12.65,12.65,0,0,0-1.4-8c-2.6-4.2-7.8-5.1-9.1-5.4-1.6-.3-6.3-.9-12.9,2.5C68.7,256,70.3,263.9,61,268.4a22.79,22.79,0,0,1-19.9-.2c-8.4-4.4-10.7-13.4-11.7-17.2a33.38,33.38,0,0,1,1.3-20.2,44.53,44.53,0,0,1,15.9-24.3,46.75,46.75,0,0,1,28.2-16.3A59,59,0,0,1,118,194.1Z"/>
    <path id="p766" class="cls-10" d="M354.1,390c1.1.4,1.8,1.5,2.7,2.2a20.44,20.44,0,0,0,13.7,5.3c.5.6,1,1.1,1.5,1.7,1.8-.5,2.6-.2,3,.2,1.5,1.4-1.1,4.9-2.1,11.3-.6,3.9,0,4.5-.4,9.8a64.32,64.32,0,0,1-1.8,10.7,30.28,30.28,0,0,0-13.2-4c-3.5-.2-5.2.3-9,.4a32.88,32.88,0,0,1-13.9-2.9c-3.5-5.8-7.1-11.6-10.6-17.4a137.54,137.54,0,0,0,16-8.2c1.6-1,4.7-2.9,7.3-4.5C350,392.7,352.4,391.1,354.1,390Z"/>
    <path id="p218" class="cls-10" d="M157.8,84.1c1.2-2.3,2.5-4.6,3.7-6.9a219.41,219.41,0,0,1,25,2.3c14.9,2.3,30.7,6.3,33.3,6.9,15.2,3.9,18.4,5.6,25.9,5.1,8.1-.6,11.4-3,19.4-5.6,14.1-4.4,25.8-3.7,38.9-2.8a147.68,147.68,0,0,1,44.3,10.2,131.57,131.57,0,0,1,34.3,19.2,126.36,126.36,0,0,1,28.6,31.6c1.8,2.8,3.8,5.6,5.7,8.4,1.3,1.9,2.7,3.8,4,5.7a51.24,51.24,0,0,0,1.4,10.8c.9,3.5,2,5.9,2.2,6.7,3.5,13.2,6.4,26.6,9.3,40,1.3,6.3,5,12,6.5,18.2-4.1,0-7.9-1.6-11.6-3a3.16,3.16,0,0,0-4.3,2.7,10.72,10.72,0,0,0,.8,2.7,33.3,33.3,0,0,0,2.8,5.4,17.66,17.66,0,0,1,1.9,5.9,26,26,0,0,1-3,.6c-5,.8-7.2.4-9.7.8-3.3.6-5.4,2.6-8,5-19.3,17.8-22.3,18.5-24.1,17.9-1.3-.4-3.2-2-4.2-7.9a79,79,0,0,0-23.2-21.4c.5-5-.2-8.9-3-13.1-5.4-8.1-15.5-13.2-24.9-14.9-6-.2-12,0-18-.1-7.2-.5-14.7,2.6-20.7,6.2-6.5,4.2-13,11.5-12.3,19.8-.1,3-.1,7.8,2.7,9.7a83.92,83.92,0,0,0-12.6,13.1,80.74,80.74,0,0,0-14.2,29.8,64.89,64.89,0,0,0-12.8-4.4c-4.4-1-6.5-1-11-2.3a47.71,47.71,0,0,1-9.6-4.2c-15.3-8.1-22.9-12.1-29.2-17.5-3.9-3.4-6.5-6.2-12-9.1a47.9,47.9,0,0,0-9.9-3.9c-2.8.4-5.6-.1-6.8-1.8-1.8-2.5-.5-8,4.9-11.1,1.4-2.8,3.1-7.1-1.5-7.8-3.8,1.2-8.6,3.8-12.7,3.1,2-5.8,4.7-11,6.2-17,3.3-14.4,5.7-29.7,10.8-43.5a160.25,160.25,0,0,1,9.8-22,203,203,0,0,1-19.5-35c-3.2-7.8-6.1-16.7-5.9-25.2A39.3,39.3,0,0,0,157.8,84.1Zm35.1,60.6c.6-1.7,2.1-2.2,2.9-3.8a115,115,0,0,1,22.3-27.7,4.68,4.68,0,0,0-.9-7.4c-9.6-6.5-21.1-10.9-32.2-13.9-4-1.3-8.7-.9-12.9-.8a7.68,7.68,0,0,0-3,3.9c-.1,4.8-.5,9.2,1.2,13.8,4,12.9,11.5,25.6,20.3,35.8A3.56,3.56,0,0,0,192.9,144.7Zm163.8,76.2.6-.1c1.6-5.4,2-10.5,5.2-15.4,3.8-6.6,13.7-9,20-4.9a21,21,0,0,1,7.8,11.3c.5,1.2.6,3.2,2.5,2,1.1-8.4-4.1-18.5-12.7-20.7-5.5.2-11.5-1.2-16,2C355.8,200.2,353.2,212.2,356.7,220.9Zm-112.9,6.9c1.7-5.7,2-11.3,5.4-16.5,4.7-7.9,17.1-9.8,23.6-3.1,3.8,3.6,5.1,8.1,7,12.7l1.6-.5c.9-8.3-4.2-18.5-12.4-21.3-4.6-.1-9.4-.1-14,0-7.7,2.2-12.8,10.2-13,17.9,0,3.8-.4,7.1,1,10.7Z"/>
    <path id="p543" class="cls-10" d="M195.4,272.8q58.65,9.3,58.7,18.3c0,2.7-4.1,5.4-12.2,8.1a6.94,6.94,0,0,0-7,2.2c-4.8-2.5-9.4-5.6-14.3-7.8-1.4-.7-3.2-.4-4.7-.4a65.37,65.37,0,0,0,13.2,11.9c10.2,6.8,18.2,7.6,33.4,13a204.75,204.75,0,0,1,23.6,10c1.2,2.2,4.7,9.4,1.9,16.5-3.5,8.7-14.2,10.8-20.8,12.2-13.1,2.7-24.3-1.2-30.3-3.8a35.37,35.37,0,0,1-9.3-2.1c-2.3-.9-6.4-1.3-4.8-.5a23.74,23.74,0,0,0,5.5,3.1,29.78,29.78,0,0,0,9.5,1.7,32.81,32.81,0,0,1,13.8,4.5c.2.4.5.9.7,1.4s.4.9.6,1.4c-5-1.3-9.6-2.3-14.7-.7-4.5.9-7.9,3.9-10.5,7.5-.7.9-1.1,2.4-2.2,2.9a49.86,49.86,0,0,0-10.8-16,54.46,54.46,0,0,0-6.9-5.8c.5.7,1.1,1.3,1.6,2,.8.5,1.5,1,2.3,1.5a47.24,47.24,0,0,1,9.9,16.6,44.55,44.55,0,0,1,2.4,14.2c-.2,3.1-1.5,21.1-.5,25.3.3,1.3.8,1.5,1,1.6,1.8,1.2,5-.5,4.4-3-.5-3.4-1.2-6.7-.9-10.2.9,3.7.8,7.4,1.4,11.1-.2,2.2-2.1,2.1-3,3.8,0,.2.1.3.1.5.2,1,.4,1.7.4,1.7.4,1.6,1.1,6.8,2.1,11.7.3,1.6.5,2.4.7,3.2,1,3.3,1.5,5.2,3.1,6.9,1,1.1,1.9,1.7,1.9,2.8a2.48,2.48,0,0,1-.8,1.7c-1.6,1.8-4.5,1.3-7.4,2.1a21.34,21.34,0,0,0-2.7,1c-.1,0-.1.1-.2.1-8.1,4.4-17.1,3.4-23.9,2.4-18.3-2.6-30.9-14.7-36.7-23.4a39.26,39.26,0,0,1-5.5-11.2,41.15,41.15,0,0,1-1.7-16,114.71,114.71,0,0,1-.2-20.8,127.07,127.07,0,0,1,6-29.3C171.3,316.2,192.5,278.1,195.4,272.8Z"/>
    <path id="p771" class="cls-11" d="M269.2,393.4c1.7.5,2.8,3.4,0,3.4A4.93,4.93,0,0,1,269.2,393.4Z"/>
    <path id="p204" class="cls-10" d="M417.8,76a46.78,46.78,0,0,1,3.9,13.1,51.43,51.43,0,0,1-1.1,19.5,84,84,0,0,1-10.7,26.6c-2.4-2.1-4.2-4.9-6.4-7.3,5.8-11.6,12.1-25.7,11.4-38.9,0-3.3-1.6-7-5-8-2,.5-4,1.1-6,1.7a112.78,112.78,0,0,0-34.6,18.6c-1.4-.8-2.9-1.6-4.4-2.4A131.16,131.16,0,0,0,351.8,93c1.7-.9,4.1-2.2,7-3.7,5.4-2.8,12.4-6.5,20.2-9.8,11.9-5.1,17.8-7.7,24.3-7.5A34.52,34.52,0,0,1,417.8,76Z"/>
  </g>
  <g id="ears">
    <path id="p221" class="cls-12" d="M407,86.1c1.9-.3,2.5,1.4,2.7,2.9,1.2,12.2-2.5,24.9-8.3,35.6l-.4.3-.5-.2c-3.3-3.6-6.9-6.8-10.5-10.1,3.9-7.3,5.2-16.4,5.9-24.6A63.63,63.63,0,0,1,407,86.1Z"/>
    <path id="p228" class="cls-13" d="M395.8,90c-.7,8.2-2,17.3-5.9,24.6-5.3-4.5-10.9-8.5-16.6-12.5C380.1,97,388,93.2,395.8,90Z"/>
    <path id="p230" class="cls-8" d="M172.1,91.1c4.2-.1,8.9-.5,12.9.8,11.2,3,22.6,7.3,32.2,13.9a4.68,4.68,0,0,1,.9,7.4,112.25,112.25,0,0,0-22.3,27.7c-.8,1.6-2.3,2.1-2.9,3.8a4.86,4.86,0,0,1-2.4,0c-8.8-10.2-16.3-22.9-20.3-35.8-1.6-4.6-1.3-9.1-1.2-13.8A7.7,7.7,0,0,1,172.1,91.1ZM192,140.2c2.3-4.1,4.7-8.1,7.4-12A128.49,128.49,0,0,1,214.9,110c-8.1-5.6-18.2-9-27.6-11.9-3.8-.9-7.5-2-11.3-2.6-2.5.4-2.1,3.8-2.1,5.6,1.3,14.7,7.9,27.9,17.3,39Z"/>
    <path id="p237" class="cls-12" d="M175.9,95.4c3.8.6,7.6,1.7,11.3,2.6,1.2,2.5,1.5,5.1,2.1,7.7a83.19,83.19,0,0,0,9.9,22.4c-2.6,3.9-5.1,7.9-7.4,12l-.9-.2c-9.4-11.1-16-24.3-17.3-39C173.8,99.2,173.4,95.7,175.9,95.4Z"/>
    <path id="p241" class="cls-13" d="M187.3,98c9.4,2.9,19.4,6.3,27.6,11.9a122.25,122.25,0,0,0-15.5,18.2,80.19,80.19,0,0,1-9.9-22.4C188.8,103.1,188.5,100.5,187.3,98Z"/>
  </g>
  <g id="face">
    <path id="p398" class="cls-8" d="M382.5,193.3a23.18,23.18,0,0,1,7.5,7.8,21.73,21.73,0,0,1,2.7,12.7c-1.9,1.3-2-.7-2.5-2a21,21,0,0,0-7.8-11.3c-6.4-4.1-16.2-1.8-20,4.9-3.1,4.9-3.5,10-5.2,15.4l-.6.1c-3.6-10-.3-20.7,7.4-25.8C372.1,189.8,381.4,192.9,382.5,193.3Z"/>
    <path id="p406" class="cls-8" d="M255,199.1a22.37,22.37,0,0,1,6.6-1,26.06,26.06,0,0,1,7.3,1c8.2,2.8,13.3,13,12.4,21.3l-1.6.5c-2-4.6-3.2-9.1-7-12.7-6.5-6.7-18.9-4.7-23.6,3.1-3.4,5.2-3.7,10.8-5.4,16.5l-.8-.1c-1.4-3.6-1-6.9-1-10.7C242.2,209.2,247.3,201.3,255,199.1Z"/>
    <path id="p425" class="cls-9" d="M312,215c6,.1,12-.1,18,.1,9.4,1.7,19.5,6.8,24.9,14.9,2.8,4.2,3.5,8.1,3,13.1a69.07,69.07,0,0,0-16.2-7.2c-.1-.7-.1-1.5-.2-2.2-1-.8-2.9-1.2-3.4.3-1.9,3.5-5,6.3-9.1,6.3-3.6-1.2-5-4.3-7-7.2-1.4,0-3.2-.3-4.6.2-1.6,2.7-3.8,6.7-7.3,7-4.4-.3-7.1-3.5-9.2-7.1a3.07,3.07,0,0,0-2.5.2c-1.1,1.8.6,4.2,1.4,5.9a73.07,73.07,0,0,0-18.1,11.5c-2.8-1.9-2.8-6.7-2.7-9.7-.8-8.3,5.8-15.6,12.3-19.8C297.3,217.6,304.8,214.4,312,215Zm1.7,13.5-.5,1.3a51.64,51.64,0,0,0,10.4-.1l.8-1.4c2.9-1.1,6.6-2.7,8.4-5.4,1-3.7-2.6-5.9-5.8-5.9-6,0-12-.1-18,0-2.7.7-6.1,3-4.3,6.2C306.8,225.9,310.5,227.6,313.7,228.5Z"/>
    <path id="p430" class="cls-8" d="M309,217c6-.1,12,0,18,0,3.2,0,6.8,2.2,5.8,5.9-1.8,2.7-5.5,4.3-8.4,5.4l-.8,1.4a60.11,60.11,0,0,1-10.4.1l.5-1.3c-3.2-1-6.8-2.6-9-5.3C302.9,220,306.3,217.8,309,217Zm4.2,3c2.3,2.4,8.2,2.4,10.5,0C322.6,218.6,314.4,218.6,313.2,220Z"/>
    <path id="p433" class="cls-14" d="M323.7,220c-2.3,2.4-8.1,2.3-10.5,0C314.4,218.6,322.6,218.6,323.7,220Z"/>
  </g>
  <g id="right_foot">
    <path id="p722" class="cls-9" d="M407,364.6c3.9,2,7.2,4.7,8.3,9.2,1.9,7.7.3,16.4-2.3,23.9A76.27,76.27,0,0,1,400.9,424c-7.5,10.5-12.4,11.3-13.7,11.5-5.1.6-10-2-13-3.6a9.28,9.28,0,0,1-3.9-3.3c-.3-.4-.9-1.7-1-6.2a36.17,36.17,0,0,1,.5-8.3A46.37,46.37,0,0,1,372,407c1.1-2.9,2.2-5.5,3.2-7.6,1-.9,1.2-2.1,1.8-3.3,8.2-3.2,12-11.5,11.1-20-.1-1.7-.8-3.6-.3-5.3,2.1-.1,4.2.7,6.3.5A15.88,15.88,0,0,0,407,364.6Zm-2.1,11.5c-1.8-.1-3.5-.5-4.9,1-2.3,2.3-4.1,5.7-3.8,8.9-.2,2.1,1.3,3,2.2,4.7,1.7.3,1.5-.3,2.4-1.5a11.23,11.23,0,0,0,5.1-9.2C405.9,378.5,406.1,377.2,404.9,376.1Zm-15.9,17c3.2-3.3,5.9-5.8,4.7-10.9C387.9,380,384.8,390.2,389,393.1Zm13.9,4.8a3.69,3.69,0,0,0,2.6-.2c1.7-2.9,3.7-4.9,3.3-8.6-1.5-.1-3.2-.4-4.6.1C402,392.3,401.7,394.3,402.9,397.9ZM388,421.7c1.3-1.8,3.3-2.4,4.9-3.8,3.9-3.6,6.1-8.4,7.4-13.4.7-3.8.7-7.7-2.4-10.4-2.4.1-6-.8-7.9,1-4.5,3.4-7.4,8.9-8.5,14.4-.5,2.9-.6,7.1,1.5,9.5C385,420.5,385.1,422.4,388,421.7Z"/>
    <path id="p741" class="cls-15" d="M404.9,376.1c1.2,1.1,1,2.4,1.1,3.9a11.34,11.34,0,0,1-5.1,9.2c-.9,1.2-.7,1.8-2.4,1.5-1-1.7-2.5-2.6-2.2-4.7-.3-3.3,1.6-6.7,3.8-8.9C401.4,375.6,403.1,376,404.9,376.1Z"/>
    <path id="p748" class="cls-15" d="M393.8,382.2c1.2,5.1-1.5,7.6-4.7,10.9C384.8,390.2,387.9,380,393.8,382.2Z"/>
    <path id="p764" class="cls-15" d="M404.2,389.2a2.93,2.93,0,0,1,3.1-1.3,2.42,2.42,0,0,1,1.5,1.2c.4,3.7-1.6,5.6-3.3,8.6a3.75,3.75,0,0,1-2.6.2C401.7,394.3,402,392.3,404.2,389.2Z"/>
    <path id="p775" class="cls-15" d="M397.9,394.1c3.1,2.7,3.1,6.7,2.4,10.4-1.3,5-3.5,9.8-7.4,13.4-1.6,1.5-3.6,2-4.9,3.8-2.9.6-3-1.2-4.9-2.8-2.1-2.4-2-6.5-1.5-9.5,1.1-5.4,4-11,8.5-14.4C391.9,393.3,395.5,394.1,397.9,394.1Z"/>
  </g>
  <g id="left_foot">
    <path id="p723" class="cls-9" d="M240.1,366.5c5.3-1.3,12.3-.1,15.7,4.7,4.7,6.1,6.3,14.3,7.3,21.8a83.61,83.61,0,0,1,.6,12.1c-.1,7-.3,16.5-5.1,26.3-2.5,5.1-5.2,7.2-7,8.4-2,1.4-5.5,3.8-9.6,3.1s-7.3-4.1-8.5-5.4l-.7-.7c-1.7-2-2.3-4-3.4-8a63.9,63.9,0,0,1-2.1-11.3,22.11,22.11,0,0,0-.5-2.5c-.2-.8-.3-1.5-.5-2.3,1.6-.5,2.7-1.6,2.7-2.8a4.14,4.14,0,0,0-.1-1,47.36,47.36,0,0,0-.8-6,26.62,26.62,0,0,0-.8-3.3,35.58,35.58,0,0,1,2.2-21.2C231.5,374.3,234,368,240.1,366.5Zm7.4,26.3c3.7-5,4.7-11.2,1.3-16.7a27.15,27.15,0,0,0-5.7,0,13.78,13.78,0,0,0,.5,15.2C244.4,393.4,245.7,393.1,247.5,392.8Zm-13.2,6a3.31,3.31,0,0,0,2.4,0c2.3-3.5,3.1-7.9,1.2-11.8a38.44,38.44,0,0,0-4.8,0C231.1,391.2,232.1,395.2,234.3,398.8ZM257.9,387a11.82,11.82,0,0,0-4.6.3,25.13,25.13,0,0,0-.3,6.7c1.4,1.9.9,4.8,3.9,3.9C258.7,395,260.2,389.7,257.9,387Z"/>
    <path id="p740" class="cls-15" d="M243.2,376.1a3.24,3.24,0,0,1,2.9-1.7,3.54,3.54,0,0,1,2.8,1.7c3.4,5.4,2.3,11.7-1.3,16.7-1.8.4-3.1.7-3.9-1.4A13.94,13.94,0,0,1,243.2,376.1Z"/>
    <path id="p758" class="cls-15" d="M233.1,387.1a2.66,2.66,0,0,1,4.8,0c1.9,3.9,1.1,8.2-1.2,11.8a4.87,4.87,0,0,1-2.4,0C232.1,395.2,231.1,391.2,233.1,387.1Z"/>
    <path id="p759" class="cls-15" d="M253.3,387.3a2.72,2.72,0,0,1,2.6-1.5,3,3,0,0,1,2,1.2c2.3,2.7.8,8-.9,10.8-3.1.9-2.6-1.9-3.9-3.9A24.46,24.46,0,0,1,253.3,387.3Z"/>
    <path id="p783" class="cls-15" d="M244.1,397.1a51.45,51.45,0,0,1,6.8-.1c2,1.2,3.4,3.6,4.3,5.8,2.4,5.9,2,13.1.7,19.2-.4,1.1-.9,2.1-1.3,3.2-.1.2-2.1,4-6.1,4.4a7.9,7.9,0,0,1-8-5.3l-.3-.4a29,29,0,0,1-1.6-15.7C239.3,404.1,240.9,399.7,244.1,397.1Z"/>
  </g>
  <g id="white_arm">
    <path id="p623" class="cls-9" d="M248.2,313.7c5.6,2.3,11.3,4.3,17,6.1,7.6,2.5,10.4,2.9,13.8,5.3s7.4,6.7,9.9,14.7A27.51,27.51,0,0,1,252,353.7c-1.3-.2-2.6-.4-3.9-.5a46.21,46.21,0,0,1-4.2-24.8A44.5,44.5,0,0,1,248.2,313.7Z"/>
  </g>
  <g id="lights">
    <g class="cls-16">
      <path id="p395" class="cls-17" d="M84,191.3c15.2-1.9,32.2,1.6,44.1,11.6,10.2,8.4,16,20.4,18.8,33.1,3,12.9,1.6,25.8-2,38.4-.9-2.9.3-6.4.4-9.4,1.1-15-2.5-30.8-10.8-43.5a52.51,52.51,0,0,0-30-22c-18.1-5.2-38.6-2-55.1,6.8a2.13,2.13,0,0,1-2.8,0A73.73,73.73,0,0,1,84,191.3Z"/>
    </g>
    <g class="cls-16">
      <path id="p699" class="cls-17" d="M207.5,350.5c8.6,9.1,14,20.3,14.9,32.9-1.6-1.8-2-3.9-2.8-6.1A130.67,130.67,0,0,0,207,351.9Z"/>
    </g>
    <g class="cls-16">
      <path id="p209" class="cls-17" d="M164,79.8c9.4-.9,19.3,1.2,28.5,3a498.49,498.49,0,0,1,49.6,13.7c20.8-8.7,43.5-12,65.9-10.7,13.2,1.1,26.5,4.9,39,9.3a137.51,137.51,0,0,1,58.3,43.6,173.48,173.48,0,0,1,14.4,24.2c-2,.2-2.6-2.6-3.6-3.9-8.9-16.5-21.8-30-36.8-41.2a129.56,129.56,0,0,0-40.4-20.5c-11.7-3.6-23.6-6.6-36-6.9-19.9-.6-40.4,2.4-59,9.7-1.2.4-2.5,1.1-3.8.6-17.7-5.7-35.8-11-54.1-14.4-9-1.5-19-3.5-27.8-.5l-.4-1.7C159.5,81.1,160.5,80.4,164,79.8Z"/>
    </g>
    <g class="cls-16">
      <path id="p197" class="cls-17" d="M412.9,74.3c2.1.2,3.3,2.1,4.6,3.5-4.2-.5-8.3-.9-12.5.1-13.3,2.7-26.4,8.1-38.9,13.3a37,37,0,0,0-6.6,3.3c-1.2-.5-2.3-1-3.4-1.5l.2-.7c12.1-5.5,24.5-10.8,37.3-14.8C399.6,75.7,406.5,73.6,412.9,74.3Z"/>
    </g>
    <g class="cls-18">
      <path id="p633" class="cls-17" d="M388.3,319.9l-.2,2c6.5,6.8,12.5,14.5,15.4,23.4l-1.2.5a98.29,98.29,0,0,0-12.5-15.6C387.2,327.6,386,323.1,388.3,319.9Z"/>
    </g>
    <g class="cls-18">
      <path id="p466" class="cls-17" d="M320.9,240.5c.5,1.5,2,2.4,3.2,3.3-3.2.3-6.5.7-9.7,1v-.7C317.3,243.5,318.1,239.4,320.9,240.5Z"/>
    </g>
    <g class="cls-18">
      <path id="p469" class="cls-17" d="M338.9,240.7c19.6,6.1,36.9,20.9,45.1,39.8a6.11,6.11,0,0,1-2.4-2.1,75.9,75.9,0,0,0-45.7-33.6c-1.5-.3-2.3-1.5-2.1-2.3a1.68,1.68,0,0,1,1.6-1C336.6,241.2,337.7,240.9,338.9,240.7Z"/>
    </g>
    <g class="cls-18">
      <path id="p475" class="cls-17" d="M302,244.1c-1.1,2.1-2,4.2-3,6.3a27.93,27.93,0,0,0-7.7,3.9A78.49,78.49,0,0,0,268.9,276a7.47,7.47,0,0,1-2.8,2.5C274.3,263.6,286.5,251.3,302,244.1Z"/>
    </g>
    <g class="cls-18">
      <path id="p587" class="cls-17" d="M252.9,297.4a5,5,0,0,1,.2,2.9,6.22,6.22,0,0,1-.7,1.6c-1.4.6-3,1.3-4.6,2.1s-3.3,1.8-4.7,2.7a3.37,3.37,0,0,1-2.1-.5,4.17,4.17,0,0,1-1.5-1.6,65.42,65.42,0,0,1,6.4-4.1A40.79,40.79,0,0,1,252.9,297.4Z"/>
    </g>
  </g>
  <g id="shadows">
    <g class="cls-16">
      <path id="p714" class="cls-19" d="M258.5,360.8h2.3c6.5,12.3,16.3,22.6,29.4,27.9A81.45,81.45,0,0,0,335,392c3.5-.6,6.7-1.9,10.3-1.9-7.5,6.5-16.4,12.5-26.1,15.3l-.4.6c.5.7,1,1.5,1.5,2.2-3,.8-6.1.4-9,1.4-.7-1.2.2-3.1-.8-4.2-2.7-.9-5.7-.5-8.4-1-9.7-1.4-19.5-4.8-26.5-12a70.09,70.09,0,0,1-11.3-17.7C262.3,370.4,259.5,365.5,258.5,360.8Z"/>
    </g>
    <g class="cls-16">
      <path id="p835" class="cls-19" d="M293.1,423.6c1.5,1.1,2.1,3.5,3.1,5.1,4.4,7.5,12.6,14,21.8,12.9,4.5-.5,7.4-3,11.3-5a17.15,17.15,0,0,1-3.9,8.8,15.07,15.07,0,0,1-17.5,3.8c-8.1-3.7-12.3-11.1-15-19.2-3,2.4-5.4,5.2-8.8,7-5.7,3.3-12.9,5.1-19.2,2.2-.8-.6-2.8-1.1-2.8-2.2a43.72,43.72,0,0,0,3.4-8c.6,2.4,3.5,2.3,5.5,2.7C279.5,432.6,286.7,428.9,293.1,423.6Z"/>
    </g>
    <g class="cls-18">
      <path id="p786" class="cls-19" d="M412.9,397.7a86.17,86.17,0,0,1-13,26.3c-3.8,4.9-8.2,10.4-14.9,11.1-7.1.7-11.8-3.3-16.4-8-27.3,2.7-34.9.2-36-3.2-.4-1.2-.2-3.2-1.6-6.6-1.7-4-4.1-6-3.4-7.3.5-.9,2.2-.9,3.4-.9,4.3,0,8.7-.4,13-.1h25.8c1.1.1,2,2.8,2.2,3.3a56.8,56.8,0,0,0,3.4,6.2c2.6,4.3,14.2,7.2,20.3,2.5C404,414.6,408,406.3,412.9,397.7Z"/>
    </g>
    <g class="cls-18">
      <path id="p463" class="cls-19" d="M426.5,239.3l.1.2c1,2.7,3.3,5.7,3.5,8.6-4.2,1.6-9.6-.7-14,1-5.3,1.8-7.6,5.8-11.6,9.4a105.16,105.16,0,0,1-18.6,13.3c-1.6-2.5-3-5-4.8-7.3,2.5-.3,4.5-1.6,6.6-2.7a99.55,99.55,0,0,0,19.9-14.1c2.6-2.4,4.8-5.4,8-7S423.3,240.9,426.5,239.3Z"/>
    </g>
    <g class="cls-20">
      <path id="p462" class="cls-19" d="M168.4,239.2c2.2,1.7,5.6.4,8.3,1,3.4,3.6,6.3,7.6,10.1,10.9,14.7,13.7,33.7,20.9,53.2,24.8,6.4,1.4,12.9,2,19.3,3.3-1.9,3.8-3.5,7.9-5.3,11.8-5,2-9.9,3.8-14.4,6.8-.4-1-.9-1.5-1.7-1.6-15.8-3.5-30.8-8.9-44-18.5.7-1.3,1.4-2.5,2.2-3.8,8.2,4.6,16.7,8.4,26,10.1a9.06,9.06,0,0,0,1.1,1.6c.2-.9.5-1.8.7-2.7-.8-.9-2.1-1.2-3.2-1.8-13.6-6.3-26-13.7-36.3-24.7-3.6-3.6-8-7.7-13.5-6.9-1.7,0-5.7.5-6.6-1.5C165.5,245.1,167.1,242.2,168.4,239.2Z"/>
    </g>
    <g class="cls-18">
      <path id="p665" class="cls-19" d="M286.1,334.2a13.93,13.93,0,0,1-2.3,12.6c-3.6,5-9.8,7.5-15.8,7.7-3.9.2-9.2,0-19.9-1.3a117.43,117.43,0,0,1-13.1-1.9c-2.1-.5-5.4-1.3-10.4-2.1-1.7-.3-3.1-.5-4-.6a27.46,27.46,0,0,1,5.9-3.3c2.1-.9,6.6-2.4,18.1-1.6,8.1.6,7.7,1.3,14.1,1.6,6.1.2,9.7.2,13.9-.9C278.4,342.9,282.6,339.1,286.1,334.2Z"/>
    </g>
    <g class="cls-18">
      <path id="p785" class="cls-19" d="M157.6,397.8a20.29,20.29,0,0,1,2.1,3.5,69.32,69.32,0,0,0,10.6,17.5c6.6,7.5,16.7,12.1,26.5,13.6,8.6,1.2,17.6.4,24.4-5.5,2.9-2.4,4.2-5.5,5.5-8.9a5.53,5.53,0,0,1,1.4,1.9c1.2,6.3,1.9,14.3,6.8,18.8l-1.5-.1c-11.5,5.8-24.4,9-37.2,6.2-14-3-26.3-13.3-33.6-25.4A59.29,59.29,0,0,1,157.6,397.8Z"/>
    </g>
    <g class="cls-18">
      <path id="p770" class="cls-19" d="M263.1,393c1.5,8.5.3,16.6-.9,25.1-1.6,11.4-3.8,15.1-5.7,17.5-1.2,1.4-6.8,8.4-14,7.5a14.6,14.6,0,0,1-7.9-4.2,20.47,20.47,0,0,1-5.7-10.2,31.87,31.87,0,0,1-1.1-6.9,10.58,10.58,0,0,1-.6-2.8,17,17,0,0,1-.1-2.2,56,56,0,0,0,6.7,4.2,56.53,56.53,0,0,0,6.4,2.9l.3.4a36.27,36.27,0,0,0,7.5.1,30.65,30.65,0,0,0,7.3-1.6l.6-.8c4.6-4.2,7.6-10.8,7-17C263,401,263,397,263.1,393Z"/>
    </g>
    <g class="cls-18">
      <path id="p452" class="cls-19" d="M30.6,230.7c1.3,2.6,1.6,5.5,2.6,8.2,2.3,6.7,6.6,12.6,13.1,15.8,5.6,2.9,12.3,2.8,18.1.7,7.3-2.6,13.4-7.8,18.5-13.5,4.2-4.7,9.6-8.9,16.1-9.3,5.5-.4,10.4,2.7,13.2,7.3,3.4,5.5,3.5,11.9,3.5,18.1,0,9.6-3.4,18.7-7.3,27.4s-7.6,17.1-9.2,26.6c-2.6,14.6-1.1,29.8,5.6,43.2,8,16.2,22,28.5,37.2,37.9,2.9,1.8,5.9,3.9,9.1,5,.2-1,.3-2.1.5-3.1.6,4.2.7,8.4,1.5,12.6a148.79,148.79,0,0,1-28.4-17.1c-13.8-10.7-25.7-23.9-31.1-40.8-4.7-14.6-3.4-30,.6-44.5,2.7-9.9,7.2-19.1,10.2-28.8,1.7-6,2.8-12,.5-18.1a16.32,16.32,0,0,0-15.8-10.7c-6.9.3-12.7,4.5-17.2,9.4-4.2,4.7-9.4,9.2-15.3,11.6-4.8,2-10.8,2.2-15.4-.3-4.8-2.4-8.3-7-10.2-11.9A39.08,39.08,0,0,1,30.6,230.7Z"/>
    </g>
  </g>
  <g id="outline">
    <path id="p189" class="cls-8" d="M399.7,70.2a37.82,37.82,0,0,1,10.9-1,42.71,42.71,0,0,1,7.1,1.1c5.4,4,8.2,11.1,8.2,17.7,1.2,15.8-4.2,32.4-10.1,47a29.14,29.14,0,0,0-2.3,5.5c-.1,1.2,1.2,2.5,1.8,3.5,1.3,1.8,2.3,3.7,3.4,5.5.8,1.5,1.8,2.9,2.6,4.4a167.73,167.73,0,0,1,6.9,15.6c4,13.2,6.9,26.8,9.8,40.3a42.5,42.5,0,0,0,2.8,10.6c1.6,4.2,3.7,8.2,4.8,12.6a5.65,5.65,0,0,1-4.8,6.8,24,24,0,0,1-8.5-1.3c1.6,3.8,4.7,7.6,3.1,12-1.9,3.7-5.8,3.8-9.5,4.1-3,.2-6.3-1.1-8.9.5-2.7,1.3-4.1,3.6-6.4,5.4-2,1.7-3.8,3.7-5.9,5.3A93.17,93.17,0,0,1,388,276.2c1.2,2.7,2.2,5.3,3.2,8.1a14.24,14.24,0,0,0,.5,1.6,78.73,78.73,0,0,1,2.6,31.3c-1.5,4.2,4.3,7.2,6,10.7,6.8,9.3,11.9,20.2,8.9,31.9l3,.6c.4,1.8,2,2.2,3.2,3.4,3.9,3.4,5.6,8.2,6.1,13.3.8,7-.8,14.2-2.5,20.9-3.5,11-8.6,22.1-15.9,31.1a47.52,47.52,0,0,1-9.6,9.4c-2.5.8-4.7,1.8-7.3,2.1-7.5,1-14.6-2.5-19.6-7.9-10-2.3-20.9-2.3-31.2-2.3.3,5.9-.9,12.6-4.6,17.4a20.58,20.58,0,0,1-11.9,7.8l-.3,1.3a51.72,51.72,0,0,1-8.8,0l-.4-1.3c-8-1.8-14.7-8.7-18.4-15.8l-.6-.2a34.5,34.5,0,0,1-16.2,6.9,24.61,24.61,0,0,1-15.8-4.5c-3.7,2.7-8.5,5.7-13.2,5.2a25.35,25.35,0,0,1-11.1-2.5,66.53,66.53,0,0,1-17.3,5.8l-.4,1.2a109.05,109.05,0,0,1-20.6,0l-.5-1.2a54.81,54.81,0,0,1-20.7-9.4,75,75,0,0,1-10.1-9.4,71.29,71.29,0,0,1-7.2-10.1c-.9-2.2-1.4-5-2.7-7-18.9-8.9-37.6-20.7-51.1-36.9C93.7,366,87,352.1,85.4,337c-1.1-12.9.9-25.6,4.8-37.9,2.6-8.5,6.5-16.6,9-25.1,1.2-4.5,2.2-10.1.2-14.5a10.76,10.76,0,0,0-11.5-6.6c-5.1.8-9.5,4.5-12.8,8.2-5.8,6.4-13.5,12.3-22.2,13.7a23.22,23.22,0,0,1-21-6.9c-7.5-8.1-9.7-19.3-8.6-30,1.3-10.8,5.5-21.5,13-29.5,11.2-12.3,27.8-19.8,44.1-22.2,6.8-.4,13.7-.1,20.5-.2a57.07,57.07,0,0,1,30.4,12.6,60.63,60.63,0,0,1,19,29.3l.6-.1a91.5,91.5,0,0,0,4.2-11.4c2.5-11,4.5-22.1,7.4-33a158.46,158.46,0,0,1,12.1-30.6l-.2-.8c-8.2-12.5-15.7-25.9-20.6-40-2.7-8.1-4.8-17.4-2.7-25.8.6-2.5,2.5-7.9,7.4-10.6,2.2-1.2,4.5-1.5,9.2-1.5A87.07,87.07,0,0,1,185,75.7c8.8,2.1,29.4,7.2,56.8,14.8a150.54,150.54,0,0,1,60-10.5,109.23,109.23,0,0,1,20.6,2.3,200.92,200.92,0,0,1,26.2,7.6c1.2-1.3,3-1.7,4.6-2.5,8.9-4,18.2-8.1,27.5-11.4a78.1,78.1,0,0,0,8.1-2.9A75.42,75.42,0,0,1,399.7,70.2ZM356,92.9c1.1.5,2.3,1,3.4,1.5,3.1,1.5,6.2,3.6,9.4,4.8,10.4-8.1,22.2-13.7,34.6-17.9,2.1-.6,4.4-.3,6.5-.3,3.4,1,5,4.7,5,7.9.7,13.2-5.6,27.3-11.4,38.9,2.2,2.3,4.1,5.2,6.4,7.3,4.7-11.5,8.9-23.9,10.4-36.3.7-6.7.9-15.2-2.9-21.1-1.2-1.4-2.5-3.3-4.6-3.5-6.4-.7-13.4,1.4-19.5,3.2A321.42,321.42,0,0,0,356,92.2ZM157.8,84.1c-1.5,2.1-1.6,5.3-1.9,7.8-.2,8.5,2.7,17.4,5.9,25.2a203,203,0,0,0,19.5,35,135.32,135.32,0,0,0-9.8,22c-5.2,13.8-7.5,29.1-10.8,43.5-1.5,6-4.3,11.2-6.2,17,4.1.6,8.9-2,12.7-3.1,4.6.7,2.9,5,1.5,7.8-1.3,3-2.9,5.8-4.1,8.9.9,1.9,4.9,1.4,6.6,1.5,5.6-.8,9.9,3.3,13.5,6.9C195,267.7,207.4,275,221,281.3a9.16,9.16,0,0,1,3.2,1.8,26.81,26.81,0,0,0-.7,2.7,9.06,9.06,0,0,1-1.1-1.6c-9.3-1.7-17.8-5.5-26-10.1-.8,1.2-1.5,2.5-2.2,3.8-12.5,21.6-23.4,44.7-30.4,68.7-4.6,16.3-8,34.4-6.1,51.3a63.38,63.38,0,0,0,4.9,21.8c7.1,12,19.4,22.3,33.4,25.3,12.8,2.8,25.7-.4,37.2-6.2l1.5.1c5.9,6.1,17.4,3.2,21.8-3.3,3.2-5.1,4.6-11.6,5.7-17.5,1.2-8.4,2.3-16.6.9-25.1-1-7.4-2.6-15.7-7.3-21.8-3.3-4.8-10.3-5.9-15.7-4.7-5.7,1.7-8.9,6.5-10.6,11.9a53,53,0,0,0-1.5,19.4c-.3,3.5.4,6.8.9,10.2.8,3.1-4.5,5.1-5.4,1.4a108.41,108.41,0,0,1-1.3-26.1c-.8-12.6-6.3-23.8-14.9-32.9l.5-.5c2.4-.3,3.8,1.1,5.5,2.5a44.24,44.24,0,0,1,12.2,19.3c1.1-.5,1.5-2,2.2-2.9,2.6-3.6,6-6.6,10.5-7.5,5.1-1.6,9.8-.6,14.7.7-.4-1-.9-1.9-1.3-2.8a182.86,182.86,0,0,1-24.3-4.7c-2.7-.9-7.2-2.8-8.1-5.8.8-.4,8.2-.4,11.1.5a95.33,95.33,0,0,0,17.6,3.9,110.93,110.93,0,0,0,19.9,1.3c6-.3,12.2-2.7,15.8-7.7a14.23,14.23,0,0,0,2.3-12.6c-1.1-3.9-3.9-6.8-7.2-9.1-4.1-2.7-9.1-3.7-13.8-5.3-5.7-1.9-11.4-3.8-17-6.1-6.5-2.7-12.9-5.6-19.1-8.8-4.9-2.8-10.9-6.5-13.2-11.9,1.5,0,3.3-.2,4.7.4,4.9,2.3,9.5,5.4,14.3,7.8,1.6-1.1,3.1-2.4,4.8-3.4,4.5-3.1,9.4-4.8,14.4-6.8,1.8-3.9,3.3-7.9,5.3-11.8,5.7-10.7,12.9-20.8,22.4-28.5a71.28,71.28,0,0,1,18.1-11.5c-.8-1.6-2.5-4-1.4-5.9a3.07,3.07,0,0,1,2.5-.2c2.1,3.5,4.7,6.8,9.2,7.1,3.5-.4,5.7-4.3,7.3-7,1.4-.5,3.1-.2,4.6-.2,1.9,3,3.4,6.1,7,7.2,4.1,0,7.2-2.8,9.1-6.3.6-1.5,2.5-1.1,3.4-.3.1.7.1,1.5.2,2.2a63.61,63.61,0,0,1,16.2,7.2,79,79,0,0,1,23.2,21.4c1.7,2.4,3.2,4.8,4.8,7.3a106.63,106.63,0,0,0,18.6-13.3c3.9-3.5,6.3-7.5,11.6-9.4,4.4-1.8,9.8.6,14-1-.2-2.9-2.4-5.8-3.5-8.6l-.1-.2a17.76,17.76,0,0,1-1.9-5.3,3.13,3.13,0,0,1,4.3-2.7c3.7,1.4,7.5,3,11.6,3-1.4-6.2-5.2-11.8-6.5-18.2-2.9-13.4-5.8-26.8-9.3-40a82.3,82.3,0,0,0-5-13.3,164.26,164.26,0,0,0-14.4-24.2,137.51,137.51,0,0,0-58.3-43.6c-12.5-4.5-25.7-8.2-39-9.3a147,147,0,0,0-65.9,10.7,498.49,498.49,0,0,0-49.6-13.7c-9.2-1.8-19.1-3.9-28.5-3C160.5,80.4,159.5,81.1,157.8,84.1Zm238,5.9c-7.8,3.3-15.8,7-22.6,12.1,5.7,4,11.3,8,16.6,12.5a142.67,142.67,0,0,1,10.5,10.1l.5.2.4-.3c5.7-10.7,9.4-23.4,8.3-35.6-.2-1.5-.7-3.2-2.7-2.9A72.57,72.57,0,0,0,395.8,90ZM46.5,206.4a44.89,44.89,0,0,0-15.9,24.3,39.1,39.1,0,0,0,.3,25.5c1.9,4.9,5.4,9.6,10.2,11.9,4.7,2.5,10.6,2.3,15.4.3,5.9-2.3,11.1-6.8,15.3-11.6,4.5-4.9,10.3-9.2,17.2-9.4a16.32,16.32,0,0,1,15.8,10.7c2.3,6,1.2,12-.5,18.1-3,9.8-7.5,18.9-10.2,28.8-4,14.5-5.4,30-.6,44.5,5.4,16.9,17.3,30.1,31.1,40.8A139.2,139.2,0,0,0,153,407.4c-.8-4.2-.9-8.4-1.5-12.6a95.24,95.24,0,0,1,.1-15.1c-1.5-1.9-3.7-3.3-5.5-5-8.3-7.6-15.8-16.9-19-27.8-2.7-9.3-1.9-18.8.7-28,4.3-15.2,12.4-29.5,16.9-44.6,3.6-12.6,5-25.5,2-38.4-2.8-12.7-8.6-24.7-18.8-33.1-11.9-10-28.9-13.5-44.1-11.6A74.75,74.75,0,0,0,46.5,206.4Zm106.7,33.8c2.4,16.6-1.3,32.4-7.4,47.7-5.4,14.2-14,29.8-14.9,45.1-.6,9.9,2.9,19.3,8.9,27.1A76.33,76.33,0,0,0,152.3,373c1.4-12.4,4.6-24.3,8.4-36.1,7.7-23.1,18.6-45.1,30.9-66.1a91.08,91.08,0,0,1-9.4-8.1c-2.9-2.8-4.6-5.8-8.4-7.4-4-.3-7.7.5-11.6-1.6A5.65,5.65,0,0,1,159,248c.2-3.5,2.3-5.9,3.2-9A24.53,24.53,0,0,1,153.2,240.2Zm161.1,4.6-.1.8a26.64,26.64,0,0,1-6.3.3,79.55,79.55,0,0,0-11.5,19.2c-.6-5,1-10.1,2.5-14.8,1-2.1,1.9-4.2,3-6.3-15.5,7.1-27.6,19.5-35.9,34.3a89.13,89.13,0,0,0-7.3,16.4c-2.6,4.4-4.1,9.5-6,14.3l.4.6c6.9,2.8,13.8,5,20.9,7.2s13.5,6.6,16.6,13.6c1.7,3.7,1.6,7.5,1.2,11.5-1.7,9-10.3,16.3-19.2,17.3v1.4c-3.9.1-7.8.1-11.8.1h-2.3c1,4.7,3.8,9.5,5.8,13.9a70.09,70.09,0,0,0,11.3,17.7c6.9,7.2,16.8,10.6,26.5,12,2.8.5,5.8.2,8.4,1,.9,1.1,0,3,.8,4.2,4.6,5,8.3,11.6,9.4,18.4-.1.2-.1.3-.2.3a36.77,36.77,0,0,0-13.4-16.3c-1.5-1.4-3.2-1-5-1.1,1.8,6,4.4,13.1,3.6,19.5-2.6-8-4.2-11.9-8.7-19.2a2.29,2.29,0,0,0-1.6-1.6c-6.9,4.3-13.3,9-18.2,15.5,2.1-6.7,8.7-12.8,13.1-18-5-1.2-10.8.8-15.4,2.6a25.57,25.57,0,0,0-5.8,3.3c-1.1,5.4-1.5,10.9-3.5,16.1a61.92,61.92,0,0,1-3.4,8c-.1,1.2,1.9,1.7,2.8,2.2,6.3,2.9,13.5,1.1,19.2-2.2,3.4-1.9,5.9-4.6,8.8-7,2.7,8.1,6.9,15.5,15,19.2a15,15,0,0,0,17.5-3.8,16.79,16.79,0,0,0,3.9-8.8c2-10.9-2.7-20.1-9-28.5-.5-.7-1-1.5-1.5-2.2l.4-.6c9.6-2.7,18.5-8.8,26.1-15.3a72.72,72.72,0,0,0,9.8-8.6c2.5,3.8,4.9,7.2,9.2,9.1,6,2.9,13.9.4,16.9-5.6,2.1-4.4,1.5-9.5.4-14.1a5.58,5.58,0,0,1,7.3-5.9c4.5,1,9.4,1.2,12.6-2.6,3.7-4.6,3.8-11.9,2-17.3-3-9-9-16.7-15.4-23.4l.2-2c2.2-13.1,1.1-27.2-4.2-39.4-8.3-18.9-25.5-33.7-45.1-39.8a9.51,9.51,0,0,0-2,1.5c-1.4,1.7-4,1.1-3.5,3.5a41.81,41.81,0,0,1-7.9.1c.1-1.3-.4-2-1.4-2.1-1.2-.9-2.7-1.8-3.2-3.3-2.8-1.1-3.5,3-6.5,3.7Zm-62.2,52.9c-4.1,1.7-8.6,3.6-11.9,6.6,1.3.6,2.7,1.2,4,1.8,2.5,1.2,5.2,2.2,7.7,3.3a81,81,0,0,1,1-12Zm135.6,73c-.4,1.7.2,3.5.3,5.3.9,8.5-2.9,16.8-11.1,20-.6,1.2-.8,2.4-1.8,3.3a7.62,7.62,0,0,1-3-.2c-.5-.6-1-1.1-1.5-1.7a20.44,20.44,0,0,1-13.7-5.3c-.9-.7-1.6-1.8-2.7-2.2-8,7.2-16.9,13.9-26.8,18.3l.4.9c2.9,4.9,5.5,9.8,6.8,15.4,9.6.1,18.9.2,28.4,1.7,2,.3,3.8-.3,5.6.8,4.6,4.7,9.3,8.7,16.4,8,6.7-.6,11.1-6.1,14.9-11.1a86.17,86.17,0,0,0,13-26.3c2.6-7.4,4.2-16.1,2.3-23.9-1.1-4.5-4.4-7.2-8.3-9.2a15.83,15.83,0,0,1-13,6.6C391.8,371.5,389.8,370.6,387.7,370.7ZM269.2,393.4a5,5,0,0,0,0,3.4C272,396.7,270.9,393.8,269.2,393.4Zm.1,9.9c-.7,2.3-.2,5.2-.4,7.6a42,42,0,0,1,10.9-7.4l.3-.7c-1.7-1.1-3.3-2.2-5-3.3C273.1,400.8,271.2,402,269.3,403.3Z"/>
  </g>
</svg>
