<svg xmlns="http://www.w3.org/2000/svg" viewBox="0 0 95.15 77.14"><defs><style>.cls-1{fill:#fff;}.cls-2{fill:#f16464;}</style></defs><g id="Layer_2" data-name="Layer 2"><path class="cls-1" d="M-2.77,53.45c6.55-.05,13.11-.31,19.66-.17s13,1,19.57,1.52c5.67.4,11.34.61,17,.57,1.71,0,3.43,0,5.14.11l6.22-6.38q5.22-5.39,10.42-10.79a5.77,5.77,0,0,1-.36-1.55,105,105,0,0,0-2.24-13.61c-3.44,1.53-6.9,3.18-10.3,5a154.69,154.69,0,0,1,7.55-16.86,10.33,10.33,0,0,1,1-6.56c-1.05-3.35-2.7-6.5-5.76-8.45a10.42,10.42,0,0,0-2.44-1.15,88.17,88.17,0,0,0-7.14,7.56c.91-2.75,1.84-5.49,2.76-8.23-2.41,0-4.87.29-7.2.47C40-4.18,28.81-3,17.65-3.51A5,5,0,0,1,15.37-3a145,145,0,0,0-18.29.78A5.29,5.29,0,0,0-.67,3.33a52.41,52.41,0,0,1-1.42,8.2,150.83,150.83,0,0,0-2.14,15.4,134.19,134.19,0,0,0-.45,15.14C-4.58,45.92-4.69,50-2.77,53.45Z" transform="translate(16.11 7)"/></g><g id="Layer_1" data-name="Layer 1"><path class="cls-2" d="M74,70.13C65.74,67.6,60,63.64,54.55,59a11.9,11.9,0,0,0-6.88-2.8C33.2,55.91,18.72,56.06,4.24,56c-13,0-20.27-7.32-20.32-20.47,0-7.82-.07-15.65,0-23.46C-15.88.55-8.28-7,3.13-7Q31.59-7,60-7C70.58-7,78.42.49,78.71,11.08c.25,9,.7,18-.23,26.92a23.8,23.8,0,0,1-6,13.06c-3,3.12-3.57,5.55-2.31,9.07C71.16,63.06,72.34,65.94,74,70.13ZM29.44,14C25,8.82,21.31,7.57,17.15,9.58c-4.36,2.12-6.54,7.17-5.29,12.77,2.05,9.14,8.45,14.79,16,19.38a3.22,3.22,0,0,0,2.77.15c7.93-4.7,14.67-10.5,16.41-20.17,1-5.58-1.35-10.36-5.53-12.25S33.63,9,29.44,14Z" transform="translate(16.11 7)"/></g></svg>