<svg id="Layer_1" data-name="Layer 1" xmlns="http://www.w3.org/2000/svg" viewBox="0 0 95.15 77.14"><defs><style>.cls-1{fill:#f16464;}</style></defs><path class="cls-1" d="M74,70.13C65.74,67.6,60,63.64,54.55,59a11.9,11.9,0,0,0-6.88-2.8C33.2,55.91,18.72,56.06,4.24,56c-13,0-20.27-7.32-20.32-20.47,0-7.82-.07-15.65,0-23.46C-15.88.55-8.28-7,3.13-7Q31.59-7,60-7C70.58-7,78.42.49,78.71,11.08c.25,9,.7,18-.23,26.92a23.8,23.8,0,0,1-6,13.06c-3,3.12-3.57,5.55-2.31,9.07C71.16,63.06,72.34,65.94,74,70.13ZM29.44,14C25,8.82,21.31,7.57,17.15,9.58c-4.36,2.12-6.54,7.17-5.29,12.77,2.05,9.14,8.45,14.79,16,19.38a3.22,3.22,0,0,0,2.77.15c7.93-4.7,14.67-10.5,16.41-20.17,1-5.58-1.35-10.36-5.53-12.25S33.63,9,29.44,14Z" transform="translate(16.11 7)"/></svg>