<svg xmlns="http://www.w3.org/2000/svg" viewBox="0 0 42 29.9"  id="home" class="navPic navIcon">
  <path d="M19.64,19.55q-1.47.28-2.94.6h0C17.7,19.93,18.67,19.73,19.64,19.55Z" transform="translate(0 -0.1)" fill="none"/>
  <path d="M16.08,27.82c4.62,2.52,10.23,1.64,14.35-1.4C26.29,29.47,21.61,28.63,16.08,27.82Z" transform="translate(0 -0.1)" fill="none"/>
  <path d="M9.69,16.49a16.59,16.59,0,0,0,1.28,5c-.58-3-1.56-6.43-1.11-9.5A16.47,16.47,0,0,0,9.69,16.49Z" transform="translate(0 -0.1)" fill="none"/>
  <path d="M28.33,27.26a13,13,0,0,0,2.16-1.41c.07-.06.33-.28.62-.57a13.28,13.28,0,0,0,2.14-2.82,54.4,54.4,0,0,1,3.1-4.63c-2.4,4.22-5.34,7-7.47,8a22.52,22.52,0,0,1-4.06,1.45,12.54,12.54,0,0,1-1.94.37,9.93,9.93,0,0,1-5.34-.82,9.8,9.8,0,0,1-3.7-3.06,15.48,15.48,0,0,1,3.94-2.15c.14,0,.66-.18,1.35-.43s1.08-.45,1.24-.48a11.93,11.93,0,0,0,1.53-.51.81.81,0,0,0,.29-.17c.69-.54.76-1.81.39-2-.1-.05-.19,0-1.29.42l-.68.28-.54.19c-.84.29-1.48.45-2.05.61-.91.25-.95.24-2.06.54s-2.1.58-2.56.72l-.78.22c-.09-.11-.18-.22-.27-.35a7.19,7.19,0,0,1-.79-1.44l-.33-.84a11.76,11.76,0,0,1-.65-2.78,9.38,9.38,0,0,1-.1-1.25h0c0-.37,0-.77.07-1.2a16.78,16.78,0,0,1,.28-1.68l.36-1.27A9.91,9.91,0,0,1,12.8,6.87a11.11,11.11,0,0,1,6.93-4,12.75,12.75,0,0,1,6.18.25,13.32,13.32,0,0,1,7.54,6.26l2.32-.06a6.41,6.41,0,0,0-.31-1,8.51,8.51,0,0,0-.54-1.09c-.15-.27-.29-.48-.39-.63A13.61,13.61,0,0,0,33.39,5a15.28,15.28,0,0,0-2.08-2.1,23.55,23.55,0,0,0-5-2.38h0A15.55,15.55,0,0,0,24.71.2h0A12.76,12.76,0,0,0,23.05.1s-.64,0-2.6,0a13.75,13.75,0,0,0-1.94.39,12.14,12.14,0,0,0-3,1.15,2.54,2.54,0,0,0,.29,0h0L17.61.83l-2.07.86A11,11,0,0,0,13.21,3,12.6,12.6,0,0,0,11.8,4.26a19,19,0,0,0-2,2.36,14.87,14.87,0,0,0-2.25,7.92,15.35,15.35,0,0,0,2.08,7.63,11.61,11.61,0,0,1-3.43-.7A5,5,0,0,1,4,20.2a4.07,4.07,0,0,1-.91-1.64A2.87,2.87,0,0,1,3,17.15a10.53,10.53,0,0,1,3-5.73H4.26A12.71,12.71,0,0,0,2.8,13.19a9.33,9.33,0,0,0-.95,1.69,7,7,0,0,0-.55,2.36A4.91,4.91,0,0,0,1.44,19a5.24,5.24,0,0,0,1.15,1.91,5.8,5.8,0,0,0,1.16,1.17,7.19,7.19,0,0,0,1.44.76,12.23,12.23,0,0,0,1.51.54,13.37,13.37,0,0,0,1.61.34c.5.08,1.14.17,1.9.22l.45-.07.9-.09c-.35.2-.36.22-.37.24-.07.19.37.47.7.89s.17.46.48.83a1.79,1.79,0,0,0,.78.62c.65.2,1.14-.3,1.39-.06s.06.76.06.85l.31.06c-.65,0-.67,0-.67,0s.48.36.77.5a9.23,9.23,0,0,0,3.58.75C21.84,28.79,26.25,28.29,28.33,27.26Z" transform="translate(0 -0.1)" fill="currentColor"/>
  <path d="M33.3,23.28l-1.93,2.35A13.28,13.28,0,0,0,33.3,23.28Z" transform="translate(0 -0.1)" fill="none"/>
  <path d="M19.17,15c2.79-.1,5.58-.13,8.37-.16-1.12-1.6-2.29-3.17-3.48-4.72l3,.5c5,1.07,10,.92,15,.66L37.22,7.21l-1.45,2.1-2.32.06A17.89,17.89,0,0,0,28,4.8,12,12,0,0,0,22.71,3C17,2.77,11.13,8.46,11,13.46a9.42,9.42,0,0,0,.89,4.14c.1,0-.51-4.16-.89-4.14-.16,0-.23.74-.25.92-.18,1.82.3,3,1.37,5.95a2.42,2.42,0,0,0,.56.91,1.9,1.9,0,0,0,.28.23c1.82-.53,2.8-.87,3.36-1.09l1.26-.5,1-.38L19.9,19l1.39-.52c1.07-.21,1.39-.16,1.43,0s-.14.29-.49.68l-.39.42c-.74.45-1.36.77-1.79,1-.86.41-1,.4-2,.88-.48.24-.74.4-1.33.66l-1,.42c-.14.06-.55.21-1.18.42s-1.2.39-2,.61l1,.68a28.57,28.57,0,0,0,4.8,2.8c2.79,1.09,5.57.34,7.33-.11a13.14,13.14,0,0,0,3-1.15,16.88,16.88,0,0,0,1.78-1.11,14.17,14.17,0,0,0,2.74-2.13,13.54,13.54,0,0,0,1.41-2.23c.71-1.22,1.29-2.25,1.72-3l.9,1.25-3.53,4.27-.45.54a15.75,15.75,0,0,1-1.06,1.2,22.15,22.15,0,0,1-2.68,2.22,12,12,0,0,1-3,1.66,11.31,11.31,0,0,1-3.12.46A25.18,25.18,0,0,1,17,28.47a30.28,30.28,0,0,1-4.37-1.16A35.53,35.53,0,0,1,2.87,22C1.6,21.09.62,20.27,0,19.73V30H42V13a69.52,69.52,0,0,1-15.34,5.68C23.49,19.75,21.45,16.63,19.17,15Z" transform="translate(0 -0.1)" fill="none"/>
  <path d="M27.52,10.31h0l-.19-.13a2.67,2.67,0,0,0-.81-.38,1.45,1.45,0,0,0-.85.13c-.47.17-1.1.38-2,.64.6.6,1.26,1.23,2,1.86s1.35,1.14,2,1.63a24.3,24.3,0,0,1-3.32.58c-.72.07-1.14.07-2.66.17L19.17,15C20,15.65,21,16.32,22,17s2.12,1.26,3.09,1.76A68.47,68.47,0,0,0,34.35,15a69.39,69.39,0,0,0,6.49-3.63A3.08,3.08,0,0,0,39.18,9.3c-.9-.29-1.69.44-4.69,2.11-1.32.74-2,1.06-2.88.95a5.06,5.06,0,0,1-1.51-.59A26.49,26.49,0,0,1,27.52,10.31Z" transform="translate(0 -0.1)" fill="currentColor"/>
  <path d="M27.1,26.33a13,13,0,0,1-4.45.85,12.07,12.07,0,0,1-4.57-.86c-3.13-1.34-5.25-4-5.41-3.83s.21.3.13.47c-.21.42-2-.46-2.37,0s.84,2,1.8,2.89a10.51,10.51,0,0,0,2.29,1.7,15.18,15.18,0,0,0,5,1.75,16.12,16.12,0,0,0,7.93-.76,17,17,0,0,0,4.87-2.79,11.83,11.83,0,0,0,2.91-2.91,10,10,0,0,0,1.56-5.54l-2.23.12a8.84,8.84,0,0,1-.76,3.19,9.72,9.72,0,0,1-3,3.6A13.21,13.21,0,0,1,27.1,26.33Z" transform="translate(0 -0.1)" fill="currentColor"/>
  <path d="M55.82,16.16" transform="translate(0 -0.1)" fill="none"/>
  <path d="M16.27,31.72" transform="translate(0 -0.1)" fill="currentColor"/>
  <path d="M48.17,21.7" transform="translate(0 -0.1)" fill="currentColor"/>
  <path d="M-5.47,19.71" transform="translate(0 -0.1)" fill="none"/>
  <path d="M16.6-15.14" transform="translate(0 -0.1)" fill="currentColor"/>
</svg>
