<svg xmlns="http://www.w3.org/2000/svg" viewBox="0 0 27 31" id="post" class="navPic navIcon">
  <path d="M0,0H25.77l.13,1.49a87.44,87.44,0,0,1-.23,18.72c-2.07-5.62-.83-12.42-1.12-18.44-7.75-.1-15.5-.09-23.25,0q0,13.89,0,27.77c5.15-.16,10.07-.39,15,1.47H0Z" fill="currentColor"/>
  <path d="M25.77,0H27V31H22.13c.1-1.35.21-2.7.32-4L27,25.84l-4.4-1.45-.78-4.64c-.51,1.57-1,3.14-1.51,4.72-1.65.46-3.3.91-4.95,1.38l5.26,1c.1,1.37.2,2.74.29,4.11H16.3c-4.93-1.86-9.85-1.63-15-1.47q0-13.89,0-27.77c7.75-.08,15.5-.09,23.25,0,.29,6-.95,12.82,1.12,18.44A87.44,87.44,0,0,0,25.9,1.49ZM5.86,9.58A18.09,18.09,0,0,0,20,9.66,47.13,47.13,0,0,0,5.86,9.58ZM6,15.16c1.06.46,2.13.89,3.21,1.28a27.26,27.26,0,0,0,10.81-1A48.44,48.44,0,0,0,6,15.16Zm-.2,6.76A31.3,31.3,0,0,0,15,21.15C11.57,20.36,8.89,19.84,5.75,21.92Z" fill="none"/>
  <path d="M5.86,9.58A47.13,47.13,0,0,1,20,9.66,18.09,18.09,0,0,1,5.86,9.58Z" fill="currentColor"/>
  <path d="M6,15.16a48.44,48.44,0,0,1,14,.25,27.26,27.26,0,0,1-10.81,1C8.08,16.05,7,15.62,6,15.16Z" fill="currentColor"/>
  <path d="M15,21.15a31.3,31.3,0,0,1-9.25.77C8.89,19.84,11.57,20.36,15,21.15Z" fill="currentColor"/>
  <path d="M21.78,19.75l.78,4.64L27,25.84,22.45,27c-.11,1.34-.22,2.69-.32,4H20.87c-.09-1.37-.19-2.74-.29-4.11l-5.26-1c1.65-.47,3.3-.92,4.95-1.38C20.78,22.89,21.27,21.32,21.78,19.75Z" fill="currentColor"/>
</svg>
