<?xml version="1.0" encoding="utf-8"?>
<!-- Generator: Adobe Illustrator 25.0.0, SVG Export Plug-In . SVG Version: 6.00 Build 0)  -->
<svg version="1.1" id="Layer_1" xmlns="http://www.w3.org/2000/svg" xmlns:xlink="http://www.w3.org/1999/xlink" x="0px" y="0px"
	 viewBox="0 0 96.5 96.5" style="enable-background:new 0 0 96.5 96.5;" xml:space="preserve">
<style type="text/css">
	.st0{fill:#FFFFFF;}
	.st1{fill:#F16464;}
</style>
<g id="Layer_2_1_">
	<path class="st0" d="M14.1,71c6.6,0,13.1-0.3,19.7-0.2c6.5,0.1,13,1,19.6,1.5c5.7,0.4,11.3,0.6,17,0.6c1.7,0,3.4,0,5.1,0.1l6.2-6.4
		c3.5-3.6,7-7.2,10.4-10.8c-0.2-0.5-0.3-1-0.4-1.5c-0.4-4.6-1.2-9.1-2.2-13.6c-3.4,1.5-6.9,3.2-10.3,5c2.2-5.8,4.7-11.4,7.5-16.9
		c-0.4-2.2,0-4.5,1-6.6c-1.1-3.4-2.7-6.5-5.8-8.4c-0.8-0.5-1.6-0.9-2.4-1.1c-2.5,2.4-4.9,4.9-7.1,7.6c0.9-2.8,1.8-5.5,2.8-8.2
		c-2.4,0-4.9,0.3-7.2,0.5c-11.1,0.9-22.3,2.1-33.5,1.6c-0.7,0.3-1.5,0.5-2.3,0.5c-6.1-0.1-12.2,0.1-18.3,0.8
		c-0.5,2.1,0.4,4.3,2.3,5.5c-0.3,2.8-0.7,5.5-1.4,8.2c-1,5.1-1.7,10.2-2.1,15.4c-0.4,5-0.6,10.1-0.4,15.1
		C12.2,63.4,12.1,67.5,14.1,71z"/>
</g>
<g id="Layer_1_1_">
	<path class="st1" d="M90.8,87.6c-8.3-2.5-14-6.5-19.4-11.1c-1.9-1.6-4.3-2.6-6.9-2.8c-14.5-0.3-28.9-0.1-43.4-0.2
		c-13,0-20.3-7.3-20.3-20.5c0-7.8-0.1-15.6,0-23.5C0.9,18.1,8.5,10.5,20,10.5c19,0,37.9,0,56.9,0c10.6,0,18.4,7.5,18.7,18.1
		c0.2,9,0.7,18-0.2,26.9c-0.6,4.9-2.7,9.4-6,13.1c-3,3.1-3.6,5.6-2.3,9.1C88,80.6,89.2,83.4,90.8,87.6z M46.3,31.5
		c-4.4-5.2-8.1-6.4-12.3-4.4c-4.4,2.1-6.5,7.2-5.3,12.8c2.1,9.1,8.5,14.8,16,19.4c0.9,0.5,1.9,0.5,2.8,0.2
		c7.9-4.7,14.7-10.5,16.4-20.2c1-5.6-1.3-10.4-5.5-12.3C54.2,25.1,50.5,26.5,46.3,31.5z"/>
</g>
</svg>
